<?xml version="1.0" encoding="utf-8" standalone="no"?>
<!DOCTYPE svg PUBLIC "-//W3C//DTD SVG 1.1//EN"
  "http://www.w3.org/Graphics/SVG/1.1/DTD/svg11.dtd">
<!-- Created with matplotlib (https://matplotlib.org/) -->
<svg height="691.92pt" version="1.1" viewBox="0 0 1382.4 691.92" width="1382.4pt" xmlns="http://www.w3.org/2000/svg" xmlns:xlink="http://www.w3.org/1999/xlink">
 <metadata>
  <rdf:RDF xmlns:cc="http://creativecommons.org/ns#" xmlns:dc="http://purl.org/dc/elements/1.1/" xmlns:rdf="http://www.w3.org/1999/02/22-rdf-syntax-ns#">
   <cc:Work>
    <dc:type rdf:resource="http://purl.org/dc/dcmitype/StillImage"/>
    <dc:date>2021-12-20T19:38:10.448923</dc:date>
    <dc:format>image/svg+xml</dc:format>
    <dc:creator>
     <cc:Agent>
      <dc:title>Matplotlib v3.3.4, https://matplotlib.org/</dc:title>
     </cc:Agent>
    </dc:creator>
   </cc:Work>
  </rdf:RDF>
 </metadata>
 <defs>
  <style type="text/css">*{stroke-linecap:butt;stroke-linejoin:round;}</style>
 </defs>
 <g id="figure_1">
  <g id="patch_1">
   <path d="M 0 691.92 
L 1382.4 691.92 
L 1382.4 0 
L 0 0 
z
" style="fill:#ffffff;"/>
  </g>
  <g id="axes_1">
   <g id="patch_2">
    <path d="M 172.8 615.8088 
L 1244.16 615.8088 
L 1244.16 83.0304 
L 172.8 83.0304 
z
" style="fill:#ffffff;"/>
   </g>
   <g id="matplotlib.axis_1">
    <g id="xtick_1">
     <g id="line2d_1">
      <defs>
       <path d="M 0 0 
L 0 3.5 
" id="mf2bc519813" style="stroke:#000000;stroke-width:0.8;"/>
      </defs>
      <g>
       <use style="stroke:#000000;stroke-width:0.8;" x="221.498182" xlink:href="#mf2bc519813" y="615.8088"/>
      </g>
     </g>
     <g id="text_1">
      <!-- 0 -->
      <g transform="translate(218.316932 630.407237)scale(0.1 -0.1)">
       <defs>
        <path d="M 31.78125 66.40625 
Q 24.171875 66.40625 20.328125 58.90625 
Q 16.5 51.421875 16.5 36.375 
Q 16.5 21.390625 20.328125 13.890625 
Q 24.171875 6.390625 31.78125 6.390625 
Q 39.453125 6.390625 43.28125 13.890625 
Q 47.125 21.390625 47.125 36.375 
Q 47.125 51.421875 43.28125 58.90625 
Q 39.453125 66.40625 31.78125 66.40625 
z
M 31.78125 74.21875 
Q 44.046875 74.21875 50.515625 64.515625 
Q 56.984375 54.828125 56.984375 36.375 
Q 56.984375 17.96875 50.515625 8.265625 
Q 44.046875 -1.421875 31.78125 -1.421875 
Q 19.53125 -1.421875 13.0625 8.265625 
Q 6.59375 17.96875 6.59375 36.375 
Q 6.59375 54.828125 13.0625 64.515625 
Q 19.53125 74.21875 31.78125 74.21875 
z
" id="DejaVuSans-48"/>
       </defs>
       <use xlink:href="#DejaVuSans-48"/>
      </g>
     </g>
    </g>
    <g id="xtick_2">
     <g id="line2d_2">
      <g>
       <use style="stroke:#000000;stroke-width:0.8;" x="343.548763" xlink:href="#mf2bc519813" y="615.8088"/>
      </g>
     </g>
     <g id="text_2">
      <!-- 50 -->
      <g transform="translate(337.186263 630.407237)scale(0.1 -0.1)">
       <defs>
        <path d="M 10.796875 72.90625 
L 49.515625 72.90625 
L 49.515625 64.59375 
L 19.828125 64.59375 
L 19.828125 46.734375 
Q 21.96875 47.46875 24.109375 47.828125 
Q 26.265625 48.1875 28.421875 48.1875 
Q 40.625 48.1875 47.75 41.5 
Q 54.890625 34.8125 54.890625 23.390625 
Q 54.890625 11.625 47.5625 5.09375 
Q 40.234375 -1.421875 26.90625 -1.421875 
Q 22.3125 -1.421875 17.546875 -0.640625 
Q 12.796875 0.140625 7.71875 1.703125 
L 7.71875 11.625 
Q 12.109375 9.234375 16.796875 8.0625 
Q 21.484375 6.890625 26.703125 6.890625 
Q 35.15625 6.890625 40.078125 11.328125 
Q 45.015625 15.765625 45.015625 23.390625 
Q 45.015625 31 40.078125 35.4375 
Q 35.15625 39.890625 26.703125 39.890625 
Q 22.75 39.890625 18.8125 39.015625 
Q 14.890625 38.140625 10.796875 36.28125 
z
" id="DejaVuSans-53"/>
       </defs>
       <use xlink:href="#DejaVuSans-53"/>
       <use x="63.623047" xlink:href="#DejaVuSans-48"/>
      </g>
     </g>
    </g>
    <g id="xtick_3">
     <g id="line2d_3">
      <g>
       <use style="stroke:#000000;stroke-width:0.8;" x="465.599344" xlink:href="#mf2bc519813" y="615.8088"/>
      </g>
     </g>
     <g id="text_3">
      <!-- 100 -->
      <g transform="translate(456.055594 630.407237)scale(0.1 -0.1)">
       <defs>
        <path d="M 12.40625 8.296875 
L 28.515625 8.296875 
L 28.515625 63.921875 
L 10.984375 60.40625 
L 10.984375 69.390625 
L 28.421875 72.90625 
L 38.28125 72.90625 
L 38.28125 8.296875 
L 54.390625 8.296875 
L 54.390625 0 
L 12.40625 0 
z
" id="DejaVuSans-49"/>
       </defs>
       <use xlink:href="#DejaVuSans-49"/>
       <use x="63.623047" xlink:href="#DejaVuSans-48"/>
       <use x="127.246094" xlink:href="#DejaVuSans-48"/>
      </g>
     </g>
    </g>
    <g id="xtick_4">
     <g id="line2d_4">
      <g>
       <use style="stroke:#000000;stroke-width:0.8;" x="587.649925" xlink:href="#mf2bc519813" y="615.8088"/>
      </g>
     </g>
     <g id="text_4">
      <!-- 150 -->
      <g transform="translate(578.106175 630.407237)scale(0.1 -0.1)">
       <use xlink:href="#DejaVuSans-49"/>
       <use x="63.623047" xlink:href="#DejaVuSans-53"/>
       <use x="127.246094" xlink:href="#DejaVuSans-48"/>
      </g>
     </g>
    </g>
    <g id="xtick_5">
     <g id="line2d_5">
      <g>
       <use style="stroke:#000000;stroke-width:0.8;" x="709.700506" xlink:href="#mf2bc519813" y="615.8088"/>
      </g>
     </g>
     <g id="text_5">
      <!-- 200 -->
      <g transform="translate(700.156756 630.407237)scale(0.1 -0.1)">
       <defs>
        <path d="M 19.1875 8.296875 
L 53.609375 8.296875 
L 53.609375 0 
L 7.328125 0 
L 7.328125 8.296875 
Q 12.9375 14.109375 22.625 23.890625 
Q 32.328125 33.6875 34.8125 36.53125 
Q 39.546875 41.84375 41.421875 45.53125 
Q 43.3125 49.21875 43.3125 52.78125 
Q 43.3125 58.59375 39.234375 62.25 
Q 35.15625 65.921875 28.609375 65.921875 
Q 23.96875 65.921875 18.8125 64.3125 
Q 13.671875 62.703125 7.8125 59.421875 
L 7.8125 69.390625 
Q 13.765625 71.78125 18.9375 73 
Q 24.125 74.21875 28.421875 74.21875 
Q 39.75 74.21875 46.484375 68.546875 
Q 53.21875 62.890625 53.21875 53.421875 
Q 53.21875 48.921875 51.53125 44.890625 
Q 49.859375 40.875 45.40625 35.40625 
Q 44.1875 33.984375 37.640625 27.21875 
Q 31.109375 20.453125 19.1875 8.296875 
z
" id="DejaVuSans-50"/>
       </defs>
       <use xlink:href="#DejaVuSans-50"/>
       <use x="63.623047" xlink:href="#DejaVuSans-48"/>
       <use x="127.246094" xlink:href="#DejaVuSans-48"/>
      </g>
     </g>
    </g>
    <g id="xtick_6">
     <g id="line2d_6">
      <g>
       <use style="stroke:#000000;stroke-width:0.8;" x="831.751087" xlink:href="#mf2bc519813" y="615.8088"/>
      </g>
     </g>
     <g id="text_6">
      <!-- 250 -->
      <g transform="translate(822.207337 630.407237)scale(0.1 -0.1)">
       <use xlink:href="#DejaVuSans-50"/>
       <use x="63.623047" xlink:href="#DejaVuSans-53"/>
       <use x="127.246094" xlink:href="#DejaVuSans-48"/>
      </g>
     </g>
    </g>
    <g id="xtick_7">
     <g id="line2d_7">
      <g>
       <use style="stroke:#000000;stroke-width:0.8;" x="953.801668" xlink:href="#mf2bc519813" y="615.8088"/>
      </g>
     </g>
     <g id="text_7">
      <!-- 300 -->
      <g transform="translate(944.257918 630.407237)scale(0.1 -0.1)">
       <defs>
        <path d="M 40.578125 39.3125 
Q 47.65625 37.796875 51.625 33 
Q 55.609375 28.21875 55.609375 21.1875 
Q 55.609375 10.40625 48.1875 4.484375 
Q 40.765625 -1.421875 27.09375 -1.421875 
Q 22.515625 -1.421875 17.65625 -0.515625 
Q 12.796875 0.390625 7.625 2.203125 
L 7.625 11.71875 
Q 11.71875 9.328125 16.59375 8.109375 
Q 21.484375 6.890625 26.8125 6.890625 
Q 36.078125 6.890625 40.9375 10.546875 
Q 45.796875 14.203125 45.796875 21.1875 
Q 45.796875 27.640625 41.28125 31.265625 
Q 36.765625 34.90625 28.71875 34.90625 
L 20.21875 34.90625 
L 20.21875 43.015625 
L 29.109375 43.015625 
Q 36.375 43.015625 40.234375 45.921875 
Q 44.09375 48.828125 44.09375 54.296875 
Q 44.09375 59.90625 40.109375 62.90625 
Q 36.140625 65.921875 28.71875 65.921875 
Q 24.65625 65.921875 20.015625 65.03125 
Q 15.375 64.15625 9.8125 62.3125 
L 9.8125 71.09375 
Q 15.4375 72.65625 20.34375 73.4375 
Q 25.25 74.21875 29.59375 74.21875 
Q 40.828125 74.21875 47.359375 69.109375 
Q 53.90625 64.015625 53.90625 55.328125 
Q 53.90625 49.265625 50.4375 45.09375 
Q 46.96875 40.921875 40.578125 39.3125 
z
" id="DejaVuSans-51"/>
       </defs>
       <use xlink:href="#DejaVuSans-51"/>
       <use x="63.623047" xlink:href="#DejaVuSans-48"/>
       <use x="127.246094" xlink:href="#DejaVuSans-48"/>
      </g>
     </g>
    </g>
    <g id="xtick_8">
     <g id="line2d_8">
      <g>
       <use style="stroke:#000000;stroke-width:0.8;" x="1075.852249" xlink:href="#mf2bc519813" y="615.8088"/>
      </g>
     </g>
     <g id="text_8">
      <!-- 350 -->
      <g transform="translate(1066.308499 630.407237)scale(0.1 -0.1)">
       <use xlink:href="#DejaVuSans-51"/>
       <use x="63.623047" xlink:href="#DejaVuSans-53"/>
       <use x="127.246094" xlink:href="#DejaVuSans-48"/>
      </g>
     </g>
    </g>
    <g id="xtick_9">
     <g id="line2d_9">
      <g>
       <use style="stroke:#000000;stroke-width:0.8;" x="1197.90283" xlink:href="#mf2bc519813" y="615.8088"/>
      </g>
     </g>
     <g id="text_9">
      <!-- 400 -->
      <g transform="translate(1188.35908 630.407237)scale(0.1 -0.1)">
       <defs>
        <path d="M 37.796875 64.3125 
L 12.890625 25.390625 
L 37.796875 25.390625 
z
M 35.203125 72.90625 
L 47.609375 72.90625 
L 47.609375 25.390625 
L 58.015625 25.390625 
L 58.015625 17.1875 
L 47.609375 17.1875 
L 47.609375 0 
L 37.796875 0 
L 37.796875 17.1875 
L 4.890625 17.1875 
L 4.890625 26.703125 
z
" id="DejaVuSans-52"/>
       </defs>
       <use xlink:href="#DejaVuSans-52"/>
       <use x="63.623047" xlink:href="#DejaVuSans-48"/>
       <use x="127.246094" xlink:href="#DejaVuSans-48"/>
      </g>
     </g>
    </g>
   </g>
   <g id="matplotlib.axis_2">
    <g id="ytick_1">
     <g id="line2d_10">
      <defs>
       <path d="M 0 0 
L -3.5 0 
" id="md5ba578e80" style="stroke:#000000;stroke-width:0.8;"/>
      </defs>
      <g>
       <use style="stroke:#000000;stroke-width:0.8;" x="172.8" xlink:href="#md5ba578e80" y="576.487425"/>
      </g>
     </g>
     <g id="text_10">
      <!-- 100000 -->
      <g transform="translate(127.625 580.286644)scale(0.1 -0.1)">
       <use xlink:href="#DejaVuSans-49"/>
       <use x="63.623047" xlink:href="#DejaVuSans-48"/>
       <use x="127.246094" xlink:href="#DejaVuSans-48"/>
       <use x="190.869141" xlink:href="#DejaVuSans-48"/>
       <use x="254.492188" xlink:href="#DejaVuSans-48"/>
       <use x="318.115234" xlink:href="#DejaVuSans-48"/>
      </g>
     </g>
    </g>
    <g id="ytick_2">
     <g id="line2d_11">
      <g>
       <use style="stroke:#000000;stroke-width:0.8;" x="172.8" xlink:href="#md5ba578e80" y="485.859861"/>
      </g>
     </g>
     <g id="text_11">
      <!-- 200000 -->
      <g transform="translate(127.625 489.65908)scale(0.1 -0.1)">
       <use xlink:href="#DejaVuSans-50"/>
       <use x="63.623047" xlink:href="#DejaVuSans-48"/>
       <use x="127.246094" xlink:href="#DejaVuSans-48"/>
       <use x="190.869141" xlink:href="#DejaVuSans-48"/>
       <use x="254.492188" xlink:href="#DejaVuSans-48"/>
       <use x="318.115234" xlink:href="#DejaVuSans-48"/>
      </g>
     </g>
    </g>
    <g id="ytick_3">
     <g id="line2d_12">
      <g>
       <use style="stroke:#000000;stroke-width:0.8;" x="172.8" xlink:href="#md5ba578e80" y="395.232297"/>
      </g>
     </g>
     <g id="text_12">
      <!-- 300000 -->
      <g transform="translate(127.625 399.031516)scale(0.1 -0.1)">
       <use xlink:href="#DejaVuSans-51"/>
       <use x="63.623047" xlink:href="#DejaVuSans-48"/>
       <use x="127.246094" xlink:href="#DejaVuSans-48"/>
       <use x="190.869141" xlink:href="#DejaVuSans-48"/>
       <use x="254.492188" xlink:href="#DejaVuSans-48"/>
       <use x="318.115234" xlink:href="#DejaVuSans-48"/>
      </g>
     </g>
    </g>
    <g id="ytick_4">
     <g id="line2d_13">
      <g>
       <use style="stroke:#000000;stroke-width:0.8;" x="172.8" xlink:href="#md5ba578e80" y="304.604734"/>
      </g>
     </g>
     <g id="text_13">
      <!-- 400000 -->
      <g transform="translate(127.625 308.403952)scale(0.1 -0.1)">
       <use xlink:href="#DejaVuSans-52"/>
       <use x="63.623047" xlink:href="#DejaVuSans-48"/>
       <use x="127.246094" xlink:href="#DejaVuSans-48"/>
       <use x="190.869141" xlink:href="#DejaVuSans-48"/>
       <use x="254.492188" xlink:href="#DejaVuSans-48"/>
       <use x="318.115234" xlink:href="#DejaVuSans-48"/>
      </g>
     </g>
    </g>
    <g id="ytick_5">
     <g id="line2d_14">
      <g>
       <use style="stroke:#000000;stroke-width:0.8;" x="172.8" xlink:href="#md5ba578e80" y="213.97717"/>
      </g>
     </g>
     <g id="text_14">
      <!-- 500000 -->
      <g transform="translate(127.625 217.776389)scale(0.1 -0.1)">
       <use xlink:href="#DejaVuSans-53"/>
       <use x="63.623047" xlink:href="#DejaVuSans-48"/>
       <use x="127.246094" xlink:href="#DejaVuSans-48"/>
       <use x="190.869141" xlink:href="#DejaVuSans-48"/>
       <use x="254.492188" xlink:href="#DejaVuSans-48"/>
       <use x="318.115234" xlink:href="#DejaVuSans-48"/>
      </g>
     </g>
    </g>
    <g id="ytick_6">
     <g id="line2d_15">
      <g>
       <use style="stroke:#000000;stroke-width:0.8;" x="172.8" xlink:href="#md5ba578e80" y="123.349606"/>
      </g>
     </g>
     <g id="text_15">
      <!-- 600000 -->
      <g transform="translate(127.625 127.148825)scale(0.1 -0.1)">
       <defs>
        <path d="M 33.015625 40.375 
Q 26.375 40.375 22.484375 35.828125 
Q 18.609375 31.296875 18.609375 23.390625 
Q 18.609375 15.53125 22.484375 10.953125 
Q 26.375 6.390625 33.015625 6.390625 
Q 39.65625 6.390625 43.53125 10.953125 
Q 47.40625 15.53125 47.40625 23.390625 
Q 47.40625 31.296875 43.53125 35.828125 
Q 39.65625 40.375 33.015625 40.375 
z
M 52.59375 71.296875 
L 52.59375 62.3125 
Q 48.875 64.0625 45.09375 64.984375 
Q 41.3125 65.921875 37.59375 65.921875 
Q 27.828125 65.921875 22.671875 59.328125 
Q 17.53125 52.734375 16.796875 39.40625 
Q 19.671875 43.65625 24.015625 45.921875 
Q 28.375 48.1875 33.59375 48.1875 
Q 44.578125 48.1875 50.953125 41.515625 
Q 57.328125 34.859375 57.328125 23.390625 
Q 57.328125 12.15625 50.6875 5.359375 
Q 44.046875 -1.421875 33.015625 -1.421875 
Q 20.359375 -1.421875 13.671875 8.265625 
Q 6.984375 17.96875 6.984375 36.375 
Q 6.984375 53.65625 15.1875 63.9375 
Q 23.390625 74.21875 37.203125 74.21875 
Q 40.921875 74.21875 44.703125 73.484375 
Q 48.484375 72.75 52.59375 71.296875 
z
" id="DejaVuSans-54"/>
       </defs>
       <use xlink:href="#DejaVuSans-54"/>
       <use x="63.623047" xlink:href="#DejaVuSans-48"/>
       <use x="127.246094" xlink:href="#DejaVuSans-48"/>
       <use x="190.869141" xlink:href="#DejaVuSans-48"/>
       <use x="254.492188" xlink:href="#DejaVuSans-48"/>
       <use x="318.115234" xlink:href="#DejaVuSans-48"/>
      </g>
     </g>
    </g>
   </g>
   <g id="line2d_16">
    <path clip-path="url(#pe31f8ae044)" d="M 221.498182 107.2476 
L 223.939193 383.98458 
L 226.380205 479.823914 
L 228.821217 490.279871 
L 231.262228 493.477028 
L 233.70324 495.571588 
L 236.144252 497.333984 
L 238.585263 498.371791 
L 243.467286 499.861058 
L 245.908298 500.301681 
L 255.672344 501.478866 
L 258.113356 501.523743 
L 262.995379 502.045362 
L 267.877403 502.311383 
L 272.759426 502.59398 
L 275.200437 502.569597 
L 277.641449 502.910793 
L 289.846507 503.533665 
L 294.72853 504.021674 
L 297.169542 504.744816 
L 299.610554 505.985337 
L 302.051565 508.72845 
L 304.492577 510.572404 
L 306.933589 511.98427 
L 309.3746 513.26045 
L 311.815612 514.245818 
L 316.697635 515.811939 
L 324.02067 518.762961 
L 326.461681 519.51183 
L 328.902693 519.911668 
L 331.343705 520.572353 
L 338.66674 522.128368 
L 341.107751 522.522787 
L 343.548763 523.190251 
L 350.871798 524.607306 
L 355.753821 525.985692 
L 363.076856 527.853728 
L 365.517867 528.711977 
L 367.958879 529.070165 
L 370.399891 530.094999 
L 372.840902 530.853072 
L 375.281914 531.913193 
L 377.722925 532.627215 
L 380.163937 533.160644 
L 385.04596 534.714181 
L 387.486972 535.136179 
L 389.927984 535.872013 
L 397.251018 537.502568 
L 399.69203 537.857664 
L 404.574053 538.968577 
L 407.015065 539.404544 
L 409.456077 540.331172 
L 414.3381 540.829531 
L 416.779111 541.576417 
L 419.220123 541.759042 
L 421.661135 542.105864 
L 424.102146 543.022439 
L 428.98417 543.543073 
L 431.425181 544.129611 
L 436.307204 544.575795 
L 441.189228 545.816525 
L 443.630239 546.447286 
L 446.071251 547.21724 
L 448.512262 547.11382 
L 450.953274 547.626348 
L 453.394286 547.999159 
L 455.835297 548.249429 
L 458.276309 549.249217 
L 460.717321 549.268793 
L 463.158332 549.592134 
L 465.599344 550.110876 
L 468.040355 549.415893 
L 470.481367 550.025513 
L 472.922379 551.386178 
L 475.36339 551.608036 
L 480.245414 552.50744 
L 482.686425 553.195293 
L 485.127437 552.578548 
L 487.568448 553.938284 
L 490.00946 554.461273 
L 492.450472 554.389223 
L 494.891483 554.550181 
L 497.332495 555.118979 
L 504.65553 556.1926 
L 509.537553 556.157638 
L 511.978565 557.394122 
L 514.419576 557.328342 
L 516.860588 557.925089 
L 519.301599 557.444607 
L 521.742611 558.469777 
L 524.183623 558.311473 
L 526.624634 558.511625 
L 529.065646 559.629451 
L 531.506658 558.425014 
L 533.947669 559.737893 
L 536.388681 559.958718 
L 538.829692 560.499962 
L 541.270704 560.495888 
L 543.711716 561.036849 
L 546.152727 560.993123 
L 548.593739 561.237566 
L 551.034751 561.313775 
L 553.475762 560.93999 
L 555.916774 562.312795 
L 558.357785 562.552591 
L 560.798797 562.512415 
L 563.239809 562.847459 
L 565.68082 562.772812 
L 568.121832 563.269583 
L 570.562843 562.798445 
L 573.003855 563.465196 
L 582.767902 564.949449 
L 585.208913 564.564838 
L 587.649925 564.424982 
L 590.090936 565.039001 
L 592.531948 565.36832 
L 594.97296 565.408036 
L 599.854983 566.323058 
L 602.295995 566.116095 
L 604.737006 566.390934 
L 607.178018 566.43135 
L 609.619029 567.123 
L 612.060041 566.679443 
L 614.501053 566.704237 
L 616.942064 567.397232 
L 621.824087 566.552403 
L 624.265099 568.317391 
L 626.706111 567.634497 
L 629.147122 568.529872 
L 631.588134 568.688465 
L 634.029146 569.081066 
L 636.470157 569.355008 
L 638.911169 568.108848 
L 641.35218 568.752531 
L 646.234204 569.809777 
L 648.675215 569.302739 
L 651.116227 570.001254 
L 653.557239 568.540913 
L 655.99825 570.873808 
L 658.439262 570.996875 
L 660.880273 570.810369 
L 663.321285 570.063491 
L 668.203308 570.652825 
L 670.64432 571.262572 
L 673.085332 571.191597 
L 675.526343 571.667792 
L 677.967355 571.208051 
L 680.408366 572.547745 
L 682.849378 572.282901 
L 685.29039 571.523034 
L 687.731401 571.940001 
L 690.172413 571.485631 
L 692.613424 570.720198 
L 695.054436 571.931361 
L 697.495448 571.256613 
L 699.936459 573.201143 
L 702.377471 573.5279 
L 704.818483 572.908032 
L 707.259494 572.807093 
L 709.700506 573.174891 
L 712.141517 572.371046 
L 714.582529 573.923331 
L 717.023541 573.582616 
L 719.464552 575.03104 
L 721.905564 573.792027 
L 724.346576 574.411269 
L 726.787587 574.238326 
L 729.228599 574.298982 
L 731.66961 573.747438 
L 734.110622 575.212365 
L 736.551634 575.848822 
L 738.992645 574.500224 
L 741.433657 574.842847 
L 743.874668 574.538551 
L 746.31568 574.372986 
L 748.756692 575.413748 
L 751.197703 575.686013 
L 753.638715 575.406762 
L 756.079727 575.51998 
L 758.520738 576.512491 
L 760.96175 576.265309 
L 765.843773 576.346798 
L 768.284785 576.843338 
L 770.725796 577.532877 
L 773.166808 576.029167 
L 775.60782 577.349861 
L 778.048831 576.014113 
L 780.489843 576.801041 
L 782.930854 577.90675 
L 785.371866 578.069201 
L 787.812878 577.576743 
L 790.253889 578.177509 
L 792.694901 574.064309 
L 795.135913 577.1252 
L 797.576924 577.746544 
L 800.017936 578.50817 
L 802.458947 577.649412 
L 804.899959 578.07395 
L 809.781982 578.596032 
L 812.222994 579.042432 
L 814.664005 579.181099 
L 817.105017 579.903087 
L 819.546029 578.89756 
L 821.98704 579.182649 
L 824.428052 579.29653 
L 826.869064 579.037177 
L 829.310075 578.214403 
L 831.751087 578.889229 
L 834.192098 578.001699 
L 836.63311 580.483015 
L 839.074122 579.357835 
L 841.515133 580.628957 
L 843.956145 580.949862 
L 846.397157 580.887484 
L 848.838168 579.967751 
L 851.27918 579.977631 
L 853.720191 580.607731 
L 856.161203 580.553093 
L 858.602215 579.76805 
L 861.043226 575.278434 
L 863.484238 581.156254 
L 865.925249 581.351726 
L 868.366261 580.552295 
L 870.807273 580.846783 
L 875.689296 582.489656 
L 880.571319 581.863302 
L 885.453342 582.365688 
L 887.894354 581.639736 
L 890.335366 582.554609 
L 892.776377 582.444427 
L 895.217389 582.614576 
L 897.658401 583.278309 
L 902.540424 583.421787 
L 904.981435 581.384551 
L 907.422447 582.662967 
L 909.863459 582.306719 
L 912.30447 583.011142 
L 914.745482 584.261536 
L 917.186494 583.818836 
L 919.627505 582.505255 
L 922.068517 583.237776 
L 924.509528 583.408021 
L 926.95054 582.936578 
L 929.391552 584.683625 
L 931.832563 584.81493 
L 934.273575 584.440794 
L 936.714586 584.704063 
L 939.155598 585.265634 
L 941.59661 584.845416 
L 946.478633 584.651685 
L 948.919645 584.547696 
L 951.360656 583.50272 
L 953.801668 584.698278 
L 958.683691 584.633031 
L 961.124703 584.966678 
L 963.565714 584.588477 
L 966.006726 585.286836 
L 968.447738 585.024188 
L 970.888749 585.308829 
L 973.329761 585.218885 
L 975.770772 585.854486 
L 985.534819 583.786807 
L 987.97583 585.735298 
L 990.416842 585.992325 
L 992.857854 585.148355 
L 995.298865 586.026018 
L 997.739877 585.460313 
L 1000.180889 586.711774 
L 1002.6219 585.583806 
L 1005.062912 587.10046 
L 1007.503923 587.108187 
L 1009.944935 586.105776 
L 1012.385947 584.837721 
L 1014.826958 586.431506 
L 1017.26797 586.441238 
L 1019.708982 586.261795 
L 1022.149993 587.139069 
L 1024.591005 586.175998 
L 1027.032016 586.926282 
L 1029.473028 587.185665 
L 1031.91404 585.488713 
L 1036.796063 588.190149 
L 1039.237075 586.964457 
L 1041.678086 586.189893 
L 1044.119098 587.554546 
L 1046.560109 588.051595 
L 1049.001121 588.10312 
L 1051.442133 586.235983 
L 1053.883144 584.832248 
L 1056.324156 586.716906 
L 1058.765167 587.734331 
L 1063.647191 586.892524 
L 1066.088202 588.470668 
L 1068.529214 588.278733 
L 1070.970226 588.404168 
L 1073.411237 586.976795 
L 1078.29326 587.451991 
L 1080.734272 587.426009 
L 1083.175284 588.040921 
L 1085.616295 587.208621 
L 1088.057307 588.422529 
L 1090.498319 589.140746 
L 1092.93933 589.174159 
L 1095.380342 589.430642 
L 1097.821353 588.698854 
L 1100.262365 588.649854 
L 1102.703377 589.211092 
L 1105.144388 589.225118 
L 1107.5854 589.063022 
L 1110.026411 590.106972 
L 1112.467423 590.067118 
L 1114.908435 588.691057 
L 1117.349446 588.797534 
L 1119.790458 589.212358 
L 1122.23147 588.964446 
L 1124.672481 588.546562 
L 1127.113493 590.254508 
L 1129.554504 590.139224 
L 1131.995516 589.784457 
L 1134.436528 589.030186 
L 1136.877539 589.886968 
L 1139.318551 589.408385 
L 1141.759563 588.516081 
L 1144.200574 590.005185 
L 1146.641586 591.06936 
L 1149.082597 589.84228 
L 1151.523609 589.439666 
L 1153.964621 589.280831 
L 1156.405632 590.257013 
L 1161.287656 590.058786 
L 1163.728667 591.025186 
L 1166.169679 591.365281 
L 1168.61069 590.044592 
L 1171.051702 587.838474 
L 1173.492714 582.32184 
L 1175.933725 587.873251 
L 1178.374737 589.169958 
L 1180.815748 591.071034 
L 1183.25676 590.31269 
L 1185.697772 590.929117 
L 1188.138783 590.955555 
L 1190.579795 590.125071 
L 1193.020807 591.240191 
L 1195.461818 591.5916 
L 1195.461818 591.5916 
" style="fill:none;stroke:#1f77b4;stroke-linecap:square;stroke-width:1.5;"/>
   </g>
   <g id="line2d_17">
    <path clip-path="url(#pe31f8ae044)" d="M 221.498182 277.173708 
L 223.939193 469.556093 
L 226.380205 493.77771 
L 228.821217 500.157874 
L 231.262228 502.960389 
L 233.70324 504.629502 
L 236.144252 506.130028 
L 238.585263 504.484351 
L 241.026275 507.351629 
L 243.467286 508.183233 
L 245.908298 507.010077 
L 248.34931 508.860232 
L 250.790321 508.076277 
L 255.672344 509.075311 
L 258.113356 509.398372 
L 260.554368 510.150853 
L 262.995379 508.149834 
L 265.436391 510.265041 
L 267.877403 510.069622 
L 270.318414 510.887871 
L 272.759426 510.858684 
L 275.200437 509.861462 
L 277.641449 510.846613 
L 280.082461 511.333452 
L 282.523472 510.757473 
L 284.964484 511.539009 
L 287.405496 511.541886 
L 289.846507 511.679511 
L 294.72853 511.612956 
L 297.169542 513.613763 
L 302.051565 515.769901 
L 304.492577 515.415037 
L 309.3746 516.661973 
L 311.815612 516.293365 
L 314.256623 516.742406 
L 316.697635 516.761108 
L 319.138647 517.520042 
L 321.579658 519.347045 
L 324.02067 520.029437 
L 326.461681 521.388467 
L 328.902693 520.436475 
L 331.343705 520.61898 
L 333.784716 518.555428 
L 336.225728 521.580379 
L 338.66674 520.879276 
L 341.107751 521.720793 
L 343.548763 521.377084 
L 345.989774 521.692357 
L 348.430786 521.577486 
L 350.871798 522.196266 
L 353.312809 520.866674 
L 355.753821 522.648061 
L 358.194833 522.148574 
L 360.635844 523.630599 
L 363.076856 523.941103 
L 365.517867 523.065298 
L 367.958879 524.721178 
L 370.399891 524.318327 
L 375.281914 525.989333 
L 377.722925 526.61006 
L 380.163937 525.448466 
L 382.604949 525.559274 
L 385.04596 528.046853 
L 387.486972 526.26132 
L 389.927984 526.233615 
L 392.368995 528.352352 
L 394.810007 527.540176 
L 397.251018 527.201236 
L 399.69203 527.453611 
L 402.133042 528.442293 
L 407.015065 528.034564 
L 409.456077 527.193685 
L 411.897088 529.281772 
L 414.3381 528.319004 
L 416.779111 529.211867 
L 419.220123 528.011641 
L 424.102146 529.343768 
L 426.543158 528.863916 
L 428.98417 530.49571 
L 431.425181 529.112982 
L 433.866193 529.316892 
L 436.307204 530.051287 
L 438.748216 529.897324 
L 441.189228 529.474707 
L 443.630239 529.497464 
L 446.071251 529.989643 
L 448.512262 531.805005 
L 450.953274 528.731041 
L 453.394286 530.160255 
L 455.835297 529.748035 
L 458.276309 531.6184 
L 460.717321 531.907326 
L 463.158332 530.306047 
L 465.599344 527.467187 
L 468.040355 530.640788 
L 470.481367 531.724911 
L 472.922379 531.834945 
L 475.36339 530.849048 
L 477.804402 529.993034 
L 480.245414 531.64989 
L 482.686425 530.233503 
L 485.127437 532.589097 
L 487.568448 530.780186 
L 490.00946 532.280797 
L 492.450472 532.284259 
L 494.891483 532.560626 
L 497.332495 531.813425 
L 499.773506 530.653449 
L 502.214518 530.793661 
L 504.65553 532.964581 
L 507.096541 531.695513 
L 509.537553 531.262207 
L 511.978565 532.201233 
L 514.419576 531.931447 
L 516.860588 530.95285 
L 519.301599 531.695839 
L 521.742611 532.992686 
L 524.183623 529.412451 
L 526.624634 533.074288 
L 529.065646 531.700392 
L 531.506658 534.376651 
L 533.947669 531.86256 
L 536.388681 532.971908 
L 538.829692 532.345329 
L 541.270704 531.188614 
L 543.711716 531.494886 
L 546.152727 532.517735 
L 548.593739 530.698559 
L 551.034751 528.536719 
L 553.475762 532.097654 
L 555.916774 533.218586 
L 558.357785 532.267553 
L 560.798797 532.966984 
L 563.239809 526.668792 
L 565.68082 533.264953 
L 568.121832 533.368182 
L 570.562843 534.910091 
L 573.003855 535.136297 
L 575.444867 534.290818 
L 577.885878 531.906568 
L 580.32689 531.749857 
L 582.767902 534.724843 
L 585.208913 533.839593 
L 587.649925 531.828986 
L 590.090936 534.454564 
L 592.531948 533.00914 
L 594.97296 527.611078 
L 597.413971 531.788475 
L 599.854983 529.58334 
L 602.295995 533.082167 
L 604.737006 532.309481 
L 609.619029 533.065047 
L 612.060041 528.685254 
L 614.501053 535.147996 
L 616.942064 534.102486 
L 619.383076 528.34717 
L 621.824087 533.738531 
L 624.265099 533.765112 
L 626.706111 534.20351 
L 629.147122 534.131853 
L 631.588134 533.448885 
L 634.029146 534.200761 
L 636.470157 530.576168 
L 638.911169 534.449266 
L 641.35218 532.465175 
L 643.793192 533.436777 
L 646.234204 532.226251 
L 648.675215 535.77628 
L 651.116227 525.060691 
L 653.557239 534.72299 
L 658.439262 532.677713 
L 660.880273 532.21186 
L 663.321285 533.23806 
L 665.762297 533.179085 
L 668.203308 534.564673 
L 670.64432 535.818739 
L 673.085332 534.661319 
L 675.526343 535.337494 
L 677.967355 534.974626 
L 680.408366 530.633194 
L 682.849378 534.050482 
L 685.29039 533.137372 
L 687.731401 532.642521 
L 690.172413 535.737302 
L 692.613424 532.442432 
L 695.054436 534.127843 
L 697.495448 536.862106 
L 699.936459 535.659385 
L 702.377471 532.646445 
L 704.818483 532.145497 
L 707.259494 534.20199 
L 709.700506 528.996991 
L 712.141517 532.732271 
L 714.582529 533.979246 
L 717.023541 533.141071 
L 719.464552 534.754473 
L 721.905564 535.243628 
L 724.346576 533.549533 
L 726.787587 533.403061 
L 729.228599 534.520754 
L 731.66961 533.575133 
L 734.110622 534.296509 
L 736.551634 532.505263 
L 738.992645 536.092583 
L 741.433657 533.636411 
L 743.874668 532.420274 
L 746.31568 532.923206 
L 748.756692 533.899109 
L 751.197703 532.642539 
L 753.638715 533.778166 
L 756.079727 530.480491 
L 758.520738 534.593266 
L 760.96175 535.516086 
L 763.402761 535.132369 
L 765.843773 535.406831 
L 768.284785 533.8648 
L 770.725796 534.913902 
L 773.166808 534.597851 
L 775.60782 531.836292 
L 778.048831 530.832823 
L 780.489843 534.092818 
L 782.930854 535.875237 
L 785.371866 533.726843 
L 787.812878 535.22726 
L 790.253889 532.464019 
L 792.694901 535.256769 
L 795.135913 533.310972 
L 797.576924 536.126313 
L 800.017936 537.100275 
L 802.458947 533.277941 
L 804.899959 528.184707 
L 807.340971 537.040418 
L 809.781982 535.138525 
L 812.222994 531.606262 
L 814.664005 532.453073 
L 817.105017 534.207388 
L 819.546029 533.14213 
L 821.98704 534.493147 
L 824.428052 533.477152 
L 826.869064 536.44394 
L 829.310075 534.655853 
L 831.751087 535.864279 
L 834.192098 533.451229 
L 836.63311 535.759751 
L 839.074122 535.71423 
L 841.515133 534.169857 
L 843.956145 537.775901 
L 846.397157 536.841855 
L 848.838168 531.891695 
L 851.27918 534.493567 
L 853.720191 528.658438 
L 856.161203 533.817283 
L 858.602215 511.290705 
L 861.043226 534.591752 
L 863.484238 536.726284 
L 865.925249 536.064298 
L 868.366261 530.934185 
L 870.807273 535.197216 
L 873.248284 534.079339 
L 875.689296 535.439018 
L 878.130308 534.02408 
L 880.571319 532.945704 
L 883.012331 530.817125 
L 885.453342 533.841599 
L 887.894354 533.302546 
L 890.335366 533.92063 
L 892.776377 536.329792 
L 895.217389 528.051615 
L 897.658401 537.296786 
L 900.099412 535.440475 
L 902.540424 535.81604 
L 904.981435 533.022078 
L 907.422447 535.585416 
L 909.863459 537.261709 
L 912.30447 534.787869 
L 914.745482 534.814242 
L 917.186494 533.986622 
L 919.627505 535.462875 
L 922.068517 532.75561 
L 924.509528 530.292097 
L 926.95054 533.415165 
L 929.391552 534.593026 
L 931.832563 533.51546 
L 934.273575 535.419689 
L 936.714586 535.261435 
L 939.155598 532.39498 
L 941.59661 535.050552 
L 944.037621 535.495409 
L 946.478633 535.419759 
L 948.919645 534.764822 
L 951.360656 535.68083 
L 953.801668 534.190292 
L 956.242679 529.600455 
L 958.683691 536.719632 
L 961.124703 531.656645 
L 963.565714 531.175841 
L 966.006726 536.018886 
L 968.447738 532.820524 
L 970.888749 537.538581 
L 973.329761 536.772657 
L 975.770772 535.205294 
L 978.211784 535.04982 
L 980.652796 533.55185 
L 983.093807 535.178798 
L 985.534819 535.277945 
L 987.97583 534.122956 
L 990.416842 537.534007 
L 995.298865 532.493593 
L 997.739877 535.160409 
L 1000.180889 536.039437 
L 1002.6219 536.161734 
L 1005.062912 535.873459 
L 1007.503923 538.442711 
L 1009.944935 533.501156 
L 1012.385947 533.103788 
L 1014.826958 536.362016 
L 1017.26797 530.05602 
L 1019.708982 533.71433 
L 1022.149993 534.769699 
L 1024.591005 530.738712 
L 1027.032016 536.422933 
L 1029.473028 535.577027 
L 1031.91404 535.249072 
L 1034.355051 535.786771 
L 1036.796063 536.839952 
L 1039.237075 534.493699 
L 1041.678086 532.95377 
L 1044.119098 535.339824 
L 1046.560109 534.439965 
L 1049.001121 534.540687 
L 1051.442133 536.275103 
L 1053.883144 531.648306 
L 1056.324156 536.223846 
L 1058.765167 534.647405 
L 1061.206179 536.194137 
L 1063.647191 534.625822 
L 1066.088202 536.418019 
L 1068.529214 528.060207 
L 1070.970226 534.719979 
L 1073.411237 531.486371 
L 1075.852249 534.126507 
L 1078.29326 534.533247 
L 1080.734272 535.794721 
L 1083.175284 530.383878 
L 1088.057307 536.495651 
L 1090.498319 536.45754 
L 1092.93933 532.266264 
L 1095.380342 532.860656 
L 1097.821353 527.655117 
L 1100.262365 532.352448 
L 1102.703377 533.202068 
L 1105.144388 529.802374 
L 1107.5854 532.688911 
L 1110.026411 535.152429 
L 1112.467423 532.486028 
L 1114.908435 531.692665 
L 1117.349446 535.057989 
L 1119.790458 535.613811 
L 1122.23147 529.68741 
L 1124.672481 533.88436 
L 1127.113493 534.570698 
L 1129.554504 533.136366 
L 1131.995516 534.670172 
L 1134.436528 533.192571 
L 1136.877539 534.097919 
L 1139.318551 533.969393 
L 1141.759563 535.041348 
L 1144.200574 532.309838 
L 1146.641586 533.525546 
L 1149.082597 532.335317 
L 1151.523609 528.516635 
L 1153.964621 534.487184 
L 1156.405632 532.502574 
L 1158.846644 533.653307 
L 1161.287656 532.807846 
L 1163.728667 534.415715 
L 1166.169679 534.915109 
L 1168.61069 528.086397 
L 1171.051702 528.669965 
L 1175.933725 532.179404 
L 1178.374737 534.172254 
L 1180.815748 534.675474 
L 1183.25676 534.671384 
L 1185.697772 536.366597 
L 1188.138783 535.423212 
L 1190.579795 536.625256 
L 1193.020807 536.136572 
L 1195.461818 530.561273 
L 1195.461818 530.561273 
" style="fill:none;stroke:#ff7f0e;stroke-linecap:square;stroke-width:1.5;"/>
   </g>
   <g id="patch_3">
    <path d="M 172.8 615.8088 
L 172.8 83.0304 
" style="fill:none;stroke:#000000;stroke-linecap:square;stroke-linejoin:miter;stroke-width:0.8;"/>
   </g>
   <g id="patch_4">
    <path d="M 1244.16 615.8088 
L 1244.16 83.0304 
" style="fill:none;stroke:#000000;stroke-linecap:square;stroke-linejoin:miter;stroke-width:0.8;"/>
   </g>
   <g id="patch_5">
    <path d="M 172.8 615.8088 
L 1244.16 615.8088 
" style="fill:none;stroke:#000000;stroke-linecap:square;stroke-linejoin:miter;stroke-width:0.8;"/>
   </g>
   <g id="patch_6">
    <path d="M 172.8 83.0304 
L 1244.16 83.0304 
" style="fill:none;stroke:#000000;stroke-linecap:square;stroke-linejoin:miter;stroke-width:0.8;"/>
   </g>
   <g id="text_16">
    <!-- Training and testing loss -->
    <g transform="translate(635.410312 77.0304)scale(0.12 -0.12)">
     <defs>
      <path d="M -0.296875 72.90625 
L 61.375 72.90625 
L 61.375 64.59375 
L 35.5 64.59375 
L 35.5 0 
L 25.59375 0 
L 25.59375 64.59375 
L -0.296875 64.59375 
z
" id="DejaVuSans-84"/>
      <path d="M 41.109375 46.296875 
Q 39.59375 47.171875 37.8125 47.578125 
Q 36.03125 48 33.890625 48 
Q 26.265625 48 22.1875 43.046875 
Q 18.109375 38.09375 18.109375 28.8125 
L 18.109375 0 
L 9.078125 0 
L 9.078125 54.6875 
L 18.109375 54.6875 
L 18.109375 46.1875 
Q 20.953125 51.171875 25.484375 53.578125 
Q 30.03125 56 36.53125 56 
Q 37.453125 56 38.578125 55.875 
Q 39.703125 55.765625 41.0625 55.515625 
z
" id="DejaVuSans-114"/>
      <path d="M 34.28125 27.484375 
Q 23.390625 27.484375 19.1875 25 
Q 14.984375 22.515625 14.984375 16.5 
Q 14.984375 11.71875 18.140625 8.90625 
Q 21.296875 6.109375 26.703125 6.109375 
Q 34.1875 6.109375 38.703125 11.40625 
Q 43.21875 16.703125 43.21875 25.484375 
L 43.21875 27.484375 
z
M 52.203125 31.203125 
L 52.203125 0 
L 43.21875 0 
L 43.21875 8.296875 
Q 40.140625 3.328125 35.546875 0.953125 
Q 30.953125 -1.421875 24.3125 -1.421875 
Q 15.921875 -1.421875 10.953125 3.296875 
Q 6 8.015625 6 15.921875 
Q 6 25.140625 12.171875 29.828125 
Q 18.359375 34.515625 30.609375 34.515625 
L 43.21875 34.515625 
L 43.21875 35.40625 
Q 43.21875 41.609375 39.140625 45 
Q 35.0625 48.390625 27.6875 48.390625 
Q 23 48.390625 18.546875 47.265625 
Q 14.109375 46.140625 10.015625 43.890625 
L 10.015625 52.203125 
Q 14.9375 54.109375 19.578125 55.046875 
Q 24.21875 56 28.609375 56 
Q 40.484375 56 46.34375 49.84375 
Q 52.203125 43.703125 52.203125 31.203125 
z
" id="DejaVuSans-97"/>
      <path d="M 9.421875 54.6875 
L 18.40625 54.6875 
L 18.40625 0 
L 9.421875 0 
z
M 9.421875 75.984375 
L 18.40625 75.984375 
L 18.40625 64.59375 
L 9.421875 64.59375 
z
" id="DejaVuSans-105"/>
      <path d="M 54.890625 33.015625 
L 54.890625 0 
L 45.90625 0 
L 45.90625 32.71875 
Q 45.90625 40.484375 42.875 44.328125 
Q 39.84375 48.1875 33.796875 48.1875 
Q 26.515625 48.1875 22.3125 43.546875 
Q 18.109375 38.921875 18.109375 30.90625 
L 18.109375 0 
L 9.078125 0 
L 9.078125 54.6875 
L 18.109375 54.6875 
L 18.109375 46.1875 
Q 21.34375 51.125 25.703125 53.5625 
Q 30.078125 56 35.796875 56 
Q 45.21875 56 50.046875 50.171875 
Q 54.890625 44.34375 54.890625 33.015625 
z
" id="DejaVuSans-110"/>
      <path d="M 45.40625 27.984375 
Q 45.40625 37.75 41.375 43.109375 
Q 37.359375 48.484375 30.078125 48.484375 
Q 22.859375 48.484375 18.828125 43.109375 
Q 14.796875 37.75 14.796875 27.984375 
Q 14.796875 18.265625 18.828125 12.890625 
Q 22.859375 7.515625 30.078125 7.515625 
Q 37.359375 7.515625 41.375 12.890625 
Q 45.40625 18.265625 45.40625 27.984375 
z
M 54.390625 6.78125 
Q 54.390625 -7.171875 48.1875 -13.984375 
Q 42 -20.796875 29.203125 -20.796875 
Q 24.46875 -20.796875 20.265625 -20.09375 
Q 16.0625 -19.390625 12.109375 -17.921875 
L 12.109375 -9.1875 
Q 16.0625 -11.328125 19.921875 -12.34375 
Q 23.78125 -13.375 27.78125 -13.375 
Q 36.625 -13.375 41.015625 -8.765625 
Q 45.40625 -4.15625 45.40625 5.171875 
L 45.40625 9.625 
Q 42.625 4.78125 38.28125 2.390625 
Q 33.9375 0 27.875 0 
Q 17.828125 0 11.671875 7.65625 
Q 5.515625 15.328125 5.515625 27.984375 
Q 5.515625 40.671875 11.671875 48.328125 
Q 17.828125 56 27.875 56 
Q 33.9375 56 38.28125 53.609375 
Q 42.625 51.21875 45.40625 46.390625 
L 45.40625 54.6875 
L 54.390625 54.6875 
z
" id="DejaVuSans-103"/>
      <path id="DejaVuSans-32"/>
      <path d="M 45.40625 46.390625 
L 45.40625 75.984375 
L 54.390625 75.984375 
L 54.390625 0 
L 45.40625 0 
L 45.40625 8.203125 
Q 42.578125 3.328125 38.25 0.953125 
Q 33.9375 -1.421875 27.875 -1.421875 
Q 17.96875 -1.421875 11.734375 6.484375 
Q 5.515625 14.40625 5.515625 27.296875 
Q 5.515625 40.1875 11.734375 48.09375 
Q 17.96875 56 27.875 56 
Q 33.9375 56 38.25 53.625 
Q 42.578125 51.265625 45.40625 46.390625 
z
M 14.796875 27.296875 
Q 14.796875 17.390625 18.875 11.75 
Q 22.953125 6.109375 30.078125 6.109375 
Q 37.203125 6.109375 41.296875 11.75 
Q 45.40625 17.390625 45.40625 27.296875 
Q 45.40625 37.203125 41.296875 42.84375 
Q 37.203125 48.484375 30.078125 48.484375 
Q 22.953125 48.484375 18.875 42.84375 
Q 14.796875 37.203125 14.796875 27.296875 
z
" id="DejaVuSans-100"/>
      <path d="M 18.3125 70.21875 
L 18.3125 54.6875 
L 36.8125 54.6875 
L 36.8125 47.703125 
L 18.3125 47.703125 
L 18.3125 18.015625 
Q 18.3125 11.328125 20.140625 9.421875 
Q 21.96875 7.515625 27.59375 7.515625 
L 36.8125 7.515625 
L 36.8125 0 
L 27.59375 0 
Q 17.1875 0 13.234375 3.875 
Q 9.28125 7.765625 9.28125 18.015625 
L 9.28125 47.703125 
L 2.6875 47.703125 
L 2.6875 54.6875 
L 9.28125 54.6875 
L 9.28125 70.21875 
z
" id="DejaVuSans-116"/>
      <path d="M 56.203125 29.59375 
L 56.203125 25.203125 
L 14.890625 25.203125 
Q 15.484375 15.921875 20.484375 11.0625 
Q 25.484375 6.203125 34.421875 6.203125 
Q 39.59375 6.203125 44.453125 7.46875 
Q 49.3125 8.734375 54.109375 11.28125 
L 54.109375 2.78125 
Q 49.265625 0.734375 44.1875 -0.34375 
Q 39.109375 -1.421875 33.890625 -1.421875 
Q 20.796875 -1.421875 13.15625 6.1875 
Q 5.515625 13.8125 5.515625 26.8125 
Q 5.515625 40.234375 12.765625 48.109375 
Q 20.015625 56 32.328125 56 
Q 43.359375 56 49.78125 48.890625 
Q 56.203125 41.796875 56.203125 29.59375 
z
M 47.21875 32.234375 
Q 47.125 39.59375 43.09375 43.984375 
Q 39.0625 48.390625 32.421875 48.390625 
Q 24.90625 48.390625 20.390625 44.140625 
Q 15.875 39.890625 15.1875 32.171875 
z
" id="DejaVuSans-101"/>
      <path d="M 44.28125 53.078125 
L 44.28125 44.578125 
Q 40.484375 46.53125 36.375 47.5 
Q 32.28125 48.484375 27.875 48.484375 
Q 21.1875 48.484375 17.84375 46.4375 
Q 14.5 44.390625 14.5 40.28125 
Q 14.5 37.15625 16.890625 35.375 
Q 19.28125 33.59375 26.515625 31.984375 
L 29.59375 31.296875 
Q 39.15625 29.25 43.1875 25.515625 
Q 47.21875 21.78125 47.21875 15.09375 
Q 47.21875 7.46875 41.1875 3.015625 
Q 35.15625 -1.421875 24.609375 -1.421875 
Q 20.21875 -1.421875 15.453125 -0.5625 
Q 10.6875 0.296875 5.421875 2 
L 5.421875 11.28125 
Q 10.40625 8.6875 15.234375 7.390625 
Q 20.0625 6.109375 24.8125 6.109375 
Q 31.15625 6.109375 34.5625 8.28125 
Q 37.984375 10.453125 37.984375 14.40625 
Q 37.984375 18.0625 35.515625 20.015625 
Q 33.0625 21.96875 24.703125 23.78125 
L 21.578125 24.515625 
Q 13.234375 26.265625 9.515625 29.90625 
Q 5.8125 33.546875 5.8125 39.890625 
Q 5.8125 47.609375 11.28125 51.796875 
Q 16.75 56 26.8125 56 
Q 31.78125 56 36.171875 55.265625 
Q 40.578125 54.546875 44.28125 53.078125 
z
" id="DejaVuSans-115"/>
      <path d="M 9.421875 75.984375 
L 18.40625 75.984375 
L 18.40625 0 
L 9.421875 0 
z
" id="DejaVuSans-108"/>
      <path d="M 30.609375 48.390625 
Q 23.390625 48.390625 19.1875 42.75 
Q 14.984375 37.109375 14.984375 27.296875 
Q 14.984375 17.484375 19.15625 11.84375 
Q 23.34375 6.203125 30.609375 6.203125 
Q 37.796875 6.203125 41.984375 11.859375 
Q 46.1875 17.53125 46.1875 27.296875 
Q 46.1875 37.015625 41.984375 42.703125 
Q 37.796875 48.390625 30.609375 48.390625 
z
M 30.609375 56 
Q 42.328125 56 49.015625 48.375 
Q 55.71875 40.765625 55.71875 27.296875 
Q 55.71875 13.875 49.015625 6.21875 
Q 42.328125 -1.421875 30.609375 -1.421875 
Q 18.84375 -1.421875 12.171875 6.21875 
Q 5.515625 13.875 5.515625 27.296875 
Q 5.515625 40.765625 12.171875 48.375 
Q 18.84375 56 30.609375 56 
z
" id="DejaVuSans-111"/>
     </defs>
     <use xlink:href="#DejaVuSans-84"/>
     <use x="46.333984" xlink:href="#DejaVuSans-114"/>
     <use x="87.447266" xlink:href="#DejaVuSans-97"/>
     <use x="148.726562" xlink:href="#DejaVuSans-105"/>
     <use x="176.509766" xlink:href="#DejaVuSans-110"/>
     <use x="239.888672" xlink:href="#DejaVuSans-105"/>
     <use x="267.671875" xlink:href="#DejaVuSans-110"/>
     <use x="331.050781" xlink:href="#DejaVuSans-103"/>
     <use x="394.527344" xlink:href="#DejaVuSans-32"/>
     <use x="426.314453" xlink:href="#DejaVuSans-97"/>
     <use x="487.59375" xlink:href="#DejaVuSans-110"/>
     <use x="550.972656" xlink:href="#DejaVuSans-100"/>
     <use x="614.449219" xlink:href="#DejaVuSans-32"/>
     <use x="646.236328" xlink:href="#DejaVuSans-116"/>
     <use x="685.445312" xlink:href="#DejaVuSans-101"/>
     <use x="746.96875" xlink:href="#DejaVuSans-115"/>
     <use x="799.068359" xlink:href="#DejaVuSans-116"/>
     <use x="838.277344" xlink:href="#DejaVuSans-105"/>
     <use x="866.060547" xlink:href="#DejaVuSans-110"/>
     <use x="929.439453" xlink:href="#DejaVuSans-103"/>
     <use x="992.916016" xlink:href="#DejaVuSans-32"/>
     <use x="1024.703125" xlink:href="#DejaVuSans-108"/>
     <use x="1052.486328" xlink:href="#DejaVuSans-111"/>
     <use x="1113.667969" xlink:href="#DejaVuSans-115"/>
     <use x="1165.767578" xlink:href="#DejaVuSans-115"/>
    </g>
   </g>
   <g id="legend_1">
    <g id="patch_7">
     <path d="M 1143.214687 120.38665 
L 1237.16 120.38665 
Q 1239.16 120.38665 1239.16 118.38665 
L 1239.16 90.0304 
Q 1239.16 88.0304 1237.16 88.0304 
L 1143.214687 88.0304 
Q 1141.214687 88.0304 1141.214687 90.0304 
L 1141.214687 118.38665 
Q 1141.214687 120.38665 1143.214687 120.38665 
z
" style="fill:#ffffff;opacity:0.8;stroke:#cccccc;stroke-linejoin:miter;"/>
    </g>
    <g id="line2d_18">
     <path d="M 1145.214687 96.128837 
L 1165.214687 96.128837 
" style="fill:none;stroke:#1f77b4;stroke-linecap:square;stroke-width:1.5;"/>
    </g>
    <g id="line2d_19"/>
    <g id="text_17">
     <!-- Training loss -->
     <g transform="translate(1173.214687 99.628837)scale(0.1 -0.1)">
      <use xlink:href="#DejaVuSans-84"/>
      <use x="46.333984" xlink:href="#DejaVuSans-114"/>
      <use x="87.447266" xlink:href="#DejaVuSans-97"/>
      <use x="148.726562" xlink:href="#DejaVuSans-105"/>
      <use x="176.509766" xlink:href="#DejaVuSans-110"/>
      <use x="239.888672" xlink:href="#DejaVuSans-105"/>
      <use x="267.671875" xlink:href="#DejaVuSans-110"/>
      <use x="331.050781" xlink:href="#DejaVuSans-103"/>
      <use x="394.527344" xlink:href="#DejaVuSans-32"/>
      <use x="426.314453" xlink:href="#DejaVuSans-108"/>
      <use x="454.097656" xlink:href="#DejaVuSans-111"/>
      <use x="515.279297" xlink:href="#DejaVuSans-115"/>
      <use x="567.378906" xlink:href="#DejaVuSans-115"/>
     </g>
    </g>
    <g id="line2d_20">
     <path d="M 1145.214687 110.806962 
L 1165.214687 110.806962 
" style="fill:none;stroke:#ff7f0e;stroke-linecap:square;stroke-width:1.5;"/>
    </g>
    <g id="line2d_21"/>
    <g id="text_18">
     <!-- Testing loss -->
     <g transform="translate(1173.214687 114.306962)scale(0.1 -0.1)">
      <use xlink:href="#DejaVuSans-84"/>
      <use x="44.083984" xlink:href="#DejaVuSans-101"/>
      <use x="105.607422" xlink:href="#DejaVuSans-115"/>
      <use x="157.707031" xlink:href="#DejaVuSans-116"/>
      <use x="196.916016" xlink:href="#DejaVuSans-105"/>
      <use x="224.699219" xlink:href="#DejaVuSans-110"/>
      <use x="288.078125" xlink:href="#DejaVuSans-103"/>
      <use x="351.554688" xlink:href="#DejaVuSans-32"/>
      <use x="383.341797" xlink:href="#DejaVuSans-108"/>
      <use x="411.125" xlink:href="#DejaVuSans-111"/>
      <use x="472.306641" xlink:href="#DejaVuSans-115"/>
      <use x="524.40625" xlink:href="#DejaVuSans-115"/>
     </g>
    </g>
   </g>
  </g>
 </g>
 <defs>
  <clipPath id="pe31f8ae044">
   <rect height="532.7784" width="1071.36" x="172.8" y="83.0304"/>
  </clipPath>
 </defs>
</svg>
