<?xml version="1.0" encoding="utf-8" standalone="no"?>
<!DOCTYPE svg PUBLIC "-//W3C//DTD SVG 1.1//EN"
  "http://www.w3.org/Graphics/SVG/1.1/DTD/svg11.dtd">
<!-- Created with matplotlib (https://matplotlib.org/) -->
<svg height="691.92pt" version="1.1" viewBox="0 0 1382.4 691.92" width="1382.4pt" xmlns="http://www.w3.org/2000/svg" xmlns:xlink="http://www.w3.org/1999/xlink">
 <metadata>
  <rdf:RDF xmlns:cc="http://creativecommons.org/ns#" xmlns:dc="http://purl.org/dc/elements/1.1/" xmlns:rdf="http://www.w3.org/1999/02/22-rdf-syntax-ns#">
   <cc:Work>
    <dc:type rdf:resource="http://purl.org/dc/dcmitype/StillImage"/>
    <dc:date>2021-12-20T19:39:23.960886</dc:date>
    <dc:format>image/svg+xml</dc:format>
    <dc:creator>
     <cc:Agent>
      <dc:title>Matplotlib v3.3.4, https://matplotlib.org/</dc:title>
     </cc:Agent>
    </dc:creator>
   </cc:Work>
  </rdf:RDF>
 </metadata>
 <defs>
  <style type="text/css">*{stroke-linecap:butt;stroke-linejoin:round;}</style>
 </defs>
 <g id="figure_1">
  <g id="patch_1">
   <path d="M 0 691.92 
L 1382.4 691.92 
L 1382.4 0 
L 0 0 
z
" style="fill:#ffffff;"/>
  </g>
  <g id="axes_1">
   <g id="patch_2">
    <path d="M 172.8 325.2024 
L 659.781818 325.2024 
L 659.781818 83.0304 
L 172.8 83.0304 
z
" style="fill:#ffffff;"/>
   </g>
   <g id="matplotlib.axis_1">
    <g id="xtick_1">
     <g id="line2d_1">
      <defs>
       <path d="M 0 0 
L 0 3.5 
" id="m39f7c35820" style="stroke:#000000;stroke-width:0.8;"/>
      </defs>
      <g>
       <use style="stroke:#000000;stroke-width:0.8;" x="213.381818" xlink:href="#m39f7c35820" y="325.2024"/>
      </g>
     </g>
     <g id="text_1">
      <!-- 1 -->
      <g transform="translate(210.200568 339.800837)scale(0.1 -0.1)">
       <defs>
        <path d="M 12.40625 8.296875 
L 28.515625 8.296875 
L 28.515625 63.921875 
L 10.984375 60.40625 
L 10.984375 69.390625 
L 28.421875 72.90625 
L 38.28125 72.90625 
L 38.28125 8.296875 
L 54.390625 8.296875 
L 54.390625 0 
L 12.40625 0 
z
" id="DejaVuSans-49"/>
       </defs>
       <use xlink:href="#DejaVuSans-49"/>
      </g>
     </g>
    </g>
    <g id="xtick_2">
     <g id="line2d_2">
      <g>
       <use style="stroke:#000000;stroke-width:0.8;" x="294.545455" xlink:href="#m39f7c35820" y="325.2024"/>
      </g>
     </g>
     <g id="text_2">
      <!-- 2 -->
      <g transform="translate(291.364205 339.800837)scale(0.1 -0.1)">
       <defs>
        <path d="M 19.1875 8.296875 
L 53.609375 8.296875 
L 53.609375 0 
L 7.328125 0 
L 7.328125 8.296875 
Q 12.9375 14.109375 22.625 23.890625 
Q 32.328125 33.6875 34.8125 36.53125 
Q 39.546875 41.84375 41.421875 45.53125 
Q 43.3125 49.21875 43.3125 52.78125 
Q 43.3125 58.59375 39.234375 62.25 
Q 35.15625 65.921875 28.609375 65.921875 
Q 23.96875 65.921875 18.8125 64.3125 
Q 13.671875 62.703125 7.8125 59.421875 
L 7.8125 69.390625 
Q 13.765625 71.78125 18.9375 73 
Q 24.125 74.21875 28.421875 74.21875 
Q 39.75 74.21875 46.484375 68.546875 
Q 53.21875 62.890625 53.21875 53.421875 
Q 53.21875 48.921875 51.53125 44.890625 
Q 49.859375 40.875 45.40625 35.40625 
Q 44.1875 33.984375 37.640625 27.21875 
Q 31.109375 20.453125 19.1875 8.296875 
z
" id="DejaVuSans-50"/>
       </defs>
       <use xlink:href="#DejaVuSans-50"/>
      </g>
     </g>
    </g>
    <g id="xtick_3">
     <g id="line2d_3">
      <g>
       <use style="stroke:#000000;stroke-width:0.8;" x="375.709091" xlink:href="#m39f7c35820" y="325.2024"/>
      </g>
     </g>
     <g id="text_3">
      <!-- 3 -->
      <g transform="translate(372.527841 339.800837)scale(0.1 -0.1)">
       <defs>
        <path d="M 40.578125 39.3125 
Q 47.65625 37.796875 51.625 33 
Q 55.609375 28.21875 55.609375 21.1875 
Q 55.609375 10.40625 48.1875 4.484375 
Q 40.765625 -1.421875 27.09375 -1.421875 
Q 22.515625 -1.421875 17.65625 -0.515625 
Q 12.796875 0.390625 7.625 2.203125 
L 7.625 11.71875 
Q 11.71875 9.328125 16.59375 8.109375 
Q 21.484375 6.890625 26.8125 6.890625 
Q 36.078125 6.890625 40.9375 10.546875 
Q 45.796875 14.203125 45.796875 21.1875 
Q 45.796875 27.640625 41.28125 31.265625 
Q 36.765625 34.90625 28.71875 34.90625 
L 20.21875 34.90625 
L 20.21875 43.015625 
L 29.109375 43.015625 
Q 36.375 43.015625 40.234375 45.921875 
Q 44.09375 48.828125 44.09375 54.296875 
Q 44.09375 59.90625 40.109375 62.90625 
Q 36.140625 65.921875 28.71875 65.921875 
Q 24.65625 65.921875 20.015625 65.03125 
Q 15.375 64.15625 9.8125 62.3125 
L 9.8125 71.09375 
Q 15.4375 72.65625 20.34375 73.4375 
Q 25.25 74.21875 29.59375 74.21875 
Q 40.828125 74.21875 47.359375 69.109375 
Q 53.90625 64.015625 53.90625 55.328125 
Q 53.90625 49.265625 50.4375 45.09375 
Q 46.96875 40.921875 40.578125 39.3125 
z
" id="DejaVuSans-51"/>
       </defs>
       <use xlink:href="#DejaVuSans-51"/>
      </g>
     </g>
    </g>
    <g id="xtick_4">
     <g id="line2d_4">
      <g>
       <use style="stroke:#000000;stroke-width:0.8;" x="456.872727" xlink:href="#m39f7c35820" y="325.2024"/>
      </g>
     </g>
     <g id="text_4">
      <!-- 4 -->
      <g transform="translate(453.691477 339.800837)scale(0.1 -0.1)">
       <defs>
        <path d="M 37.796875 64.3125 
L 12.890625 25.390625 
L 37.796875 25.390625 
z
M 35.203125 72.90625 
L 47.609375 72.90625 
L 47.609375 25.390625 
L 58.015625 25.390625 
L 58.015625 17.1875 
L 47.609375 17.1875 
L 47.609375 0 
L 37.796875 0 
L 37.796875 17.1875 
L 4.890625 17.1875 
L 4.890625 26.703125 
z
" id="DejaVuSans-52"/>
       </defs>
       <use xlink:href="#DejaVuSans-52"/>
      </g>
     </g>
    </g>
    <g id="xtick_5">
     <g id="line2d_5">
      <g>
       <use style="stroke:#000000;stroke-width:0.8;" x="538.036364" xlink:href="#m39f7c35820" y="325.2024"/>
      </g>
     </g>
     <g id="text_5">
      <!-- 5 -->
      <g transform="translate(534.855114 339.800837)scale(0.1 -0.1)">
       <defs>
        <path d="M 10.796875 72.90625 
L 49.515625 72.90625 
L 49.515625 64.59375 
L 19.828125 64.59375 
L 19.828125 46.734375 
Q 21.96875 47.46875 24.109375 47.828125 
Q 26.265625 48.1875 28.421875 48.1875 
Q 40.625 48.1875 47.75 41.5 
Q 54.890625 34.8125 54.890625 23.390625 
Q 54.890625 11.625 47.5625 5.09375 
Q 40.234375 -1.421875 26.90625 -1.421875 
Q 22.3125 -1.421875 17.546875 -0.640625 
Q 12.796875 0.140625 7.71875 1.703125 
L 7.71875 11.625 
Q 12.109375 9.234375 16.796875 8.0625 
Q 21.484375 6.890625 26.703125 6.890625 
Q 35.15625 6.890625 40.078125 11.328125 
Q 45.015625 15.765625 45.015625 23.390625 
Q 45.015625 31 40.078125 35.4375 
Q 35.15625 39.890625 26.703125 39.890625 
Q 22.75 39.890625 18.8125 39.015625 
Q 14.890625 38.140625 10.796875 36.28125 
z
" id="DejaVuSans-53"/>
       </defs>
       <use xlink:href="#DejaVuSans-53"/>
      </g>
     </g>
    </g>
    <g id="xtick_6">
     <g id="line2d_6">
      <g>
       <use style="stroke:#000000;stroke-width:0.8;" x="619.2" xlink:href="#m39f7c35820" y="325.2024"/>
      </g>
     </g>
     <g id="text_6">
      <!-- 6 -->
      <g transform="translate(616.01875 339.800837)scale(0.1 -0.1)">
       <defs>
        <path d="M 33.015625 40.375 
Q 26.375 40.375 22.484375 35.828125 
Q 18.609375 31.296875 18.609375 23.390625 
Q 18.609375 15.53125 22.484375 10.953125 
Q 26.375 6.390625 33.015625 6.390625 
Q 39.65625 6.390625 43.53125 10.953125 
Q 47.40625 15.53125 47.40625 23.390625 
Q 47.40625 31.296875 43.53125 35.828125 
Q 39.65625 40.375 33.015625 40.375 
z
M 52.59375 71.296875 
L 52.59375 62.3125 
Q 48.875 64.0625 45.09375 64.984375 
Q 41.3125 65.921875 37.59375 65.921875 
Q 27.828125 65.921875 22.671875 59.328125 
Q 17.53125 52.734375 16.796875 39.40625 
Q 19.671875 43.65625 24.015625 45.921875 
Q 28.375 48.1875 33.59375 48.1875 
Q 44.578125 48.1875 50.953125 41.515625 
Q 57.328125 34.859375 57.328125 23.390625 
Q 57.328125 12.15625 50.6875 5.359375 
Q 44.046875 -1.421875 33.015625 -1.421875 
Q 20.359375 -1.421875 13.671875 8.265625 
Q 6.984375 17.96875 6.984375 36.375 
Q 6.984375 53.65625 15.1875 63.9375 
Q 23.390625 74.21875 37.203125 74.21875 
Q 40.921875 74.21875 44.703125 73.484375 
Q 48.484375 72.75 52.59375 71.296875 
z
" id="DejaVuSans-54"/>
       </defs>
       <use xlink:href="#DejaVuSans-54"/>
      </g>
     </g>
    </g>
   </g>
   <g id="matplotlib.axis_2">
    <g id="ytick_1">
     <g id="line2d_7">
      <defs>
       <path d="M 0 0 
L -3.5 0 
" id="mf8bf9c8e41" style="stroke:#000000;stroke-width:0.8;"/>
      </defs>
      <g>
       <use style="stroke:#000000;stroke-width:0.8;" x="172.8" xlink:href="#mf8bf9c8e41" y="325.2024"/>
      </g>
     </g>
     <g id="text_7">
      <!-- 0 -->
      <g transform="translate(159.4375 329.001619)scale(0.1 -0.1)">
       <defs>
        <path d="M 31.78125 66.40625 
Q 24.171875 66.40625 20.328125 58.90625 
Q 16.5 51.421875 16.5 36.375 
Q 16.5 21.390625 20.328125 13.890625 
Q 24.171875 6.390625 31.78125 6.390625 
Q 39.453125 6.390625 43.28125 13.890625 
Q 47.125 21.390625 47.125 36.375 
Q 47.125 51.421875 43.28125 58.90625 
Q 39.453125 66.40625 31.78125 66.40625 
z
M 31.78125 74.21875 
Q 44.046875 74.21875 50.515625 64.515625 
Q 56.984375 54.828125 56.984375 36.375 
Q 56.984375 17.96875 50.515625 8.265625 
Q 44.046875 -1.421875 31.78125 -1.421875 
Q 19.53125 -1.421875 13.0625 8.265625 
Q 6.59375 17.96875 6.59375 36.375 
Q 6.59375 54.828125 13.0625 64.515625 
Q 19.53125 74.21875 31.78125 74.21875 
z
" id="DejaVuSans-48"/>
       </defs>
       <use xlink:href="#DejaVuSans-48"/>
      </g>
     </g>
    </g>
    <g id="ytick_2">
     <g id="line2d_8">
      <g>
       <use style="stroke:#000000;stroke-width:0.8;" x="172.8" xlink:href="#mf8bf9c8e41" y="284.8404"/>
      </g>
     </g>
     <g id="text_8">
      <!-- 10 -->
      <g transform="translate(153.075 288.639619)scale(0.1 -0.1)">
       <use xlink:href="#DejaVuSans-49"/>
       <use x="63.623047" xlink:href="#DejaVuSans-48"/>
      </g>
     </g>
    </g>
    <g id="ytick_3">
     <g id="line2d_9">
      <g>
       <use style="stroke:#000000;stroke-width:0.8;" x="172.8" xlink:href="#mf8bf9c8e41" y="244.4784"/>
      </g>
     </g>
     <g id="text_9">
      <!-- 20 -->
      <g transform="translate(153.075 248.277619)scale(0.1 -0.1)">
       <use xlink:href="#DejaVuSans-50"/>
       <use x="63.623047" xlink:href="#DejaVuSans-48"/>
      </g>
     </g>
    </g>
    <g id="ytick_4">
     <g id="line2d_10">
      <g>
       <use style="stroke:#000000;stroke-width:0.8;" x="172.8" xlink:href="#mf8bf9c8e41" y="204.1164"/>
      </g>
     </g>
     <g id="text_10">
      <!-- 30 -->
      <g transform="translate(153.075 207.915619)scale(0.1 -0.1)">
       <use xlink:href="#DejaVuSans-51"/>
       <use x="63.623047" xlink:href="#DejaVuSans-48"/>
      </g>
     </g>
    </g>
    <g id="ytick_5">
     <g id="line2d_11">
      <g>
       <use style="stroke:#000000;stroke-width:0.8;" x="172.8" xlink:href="#mf8bf9c8e41" y="163.7544"/>
      </g>
     </g>
     <g id="text_11">
      <!-- 40 -->
      <g transform="translate(153.075 167.553619)scale(0.1 -0.1)">
       <use xlink:href="#DejaVuSans-52"/>
       <use x="63.623047" xlink:href="#DejaVuSans-48"/>
      </g>
     </g>
    </g>
    <g id="ytick_6">
     <g id="line2d_12">
      <g>
       <use style="stroke:#000000;stroke-width:0.8;" x="172.8" xlink:href="#mf8bf9c8e41" y="123.3924"/>
      </g>
     </g>
     <g id="text_12">
      <!-- 50 -->
      <g transform="translate(153.075 127.191619)scale(0.1 -0.1)">
       <use xlink:href="#DejaVuSans-53"/>
       <use x="63.623047" xlink:href="#DejaVuSans-48"/>
      </g>
     </g>
    </g>
    <g id="ytick_7">
     <g id="line2d_13">
      <g>
       <use style="stroke:#000000;stroke-width:0.8;" x="172.8" xlink:href="#mf8bf9c8e41" y="83.0304"/>
      </g>
     </g>
     <g id="text_13">
      <!-- 60 -->
      <g transform="translate(153.075 86.829619)scale(0.1 -0.1)">
       <use xlink:href="#DejaVuSans-54"/>
       <use x="63.623047" xlink:href="#DejaVuSans-48"/>
      </g>
     </g>
    </g>
    <g id="text_14">
     <!-- degrees -->
     <g transform="translate(146.995312 224.242181)rotate(-90)scale(0.1 -0.1)">
      <defs>
       <path d="M 45.40625 46.390625 
L 45.40625 75.984375 
L 54.390625 75.984375 
L 54.390625 0 
L 45.40625 0 
L 45.40625 8.203125 
Q 42.578125 3.328125 38.25 0.953125 
Q 33.9375 -1.421875 27.875 -1.421875 
Q 17.96875 -1.421875 11.734375 6.484375 
Q 5.515625 14.40625 5.515625 27.296875 
Q 5.515625 40.1875 11.734375 48.09375 
Q 17.96875 56 27.875 56 
Q 33.9375 56 38.25 53.625 
Q 42.578125 51.265625 45.40625 46.390625 
z
M 14.796875 27.296875 
Q 14.796875 17.390625 18.875 11.75 
Q 22.953125 6.109375 30.078125 6.109375 
Q 37.203125 6.109375 41.296875 11.75 
Q 45.40625 17.390625 45.40625 27.296875 
Q 45.40625 37.203125 41.296875 42.84375 
Q 37.203125 48.484375 30.078125 48.484375 
Q 22.953125 48.484375 18.875 42.84375 
Q 14.796875 37.203125 14.796875 27.296875 
z
" id="DejaVuSans-100"/>
       <path d="M 56.203125 29.59375 
L 56.203125 25.203125 
L 14.890625 25.203125 
Q 15.484375 15.921875 20.484375 11.0625 
Q 25.484375 6.203125 34.421875 6.203125 
Q 39.59375 6.203125 44.453125 7.46875 
Q 49.3125 8.734375 54.109375 11.28125 
L 54.109375 2.78125 
Q 49.265625 0.734375 44.1875 -0.34375 
Q 39.109375 -1.421875 33.890625 -1.421875 
Q 20.796875 -1.421875 13.15625 6.1875 
Q 5.515625 13.8125 5.515625 26.8125 
Q 5.515625 40.234375 12.765625 48.109375 
Q 20.015625 56 32.328125 56 
Q 43.359375 56 49.78125 48.890625 
Q 56.203125 41.796875 56.203125 29.59375 
z
M 47.21875 32.234375 
Q 47.125 39.59375 43.09375 43.984375 
Q 39.0625 48.390625 32.421875 48.390625 
Q 24.90625 48.390625 20.390625 44.140625 
Q 15.875 39.890625 15.1875 32.171875 
z
" id="DejaVuSans-101"/>
       <path d="M 45.40625 27.984375 
Q 45.40625 37.75 41.375 43.109375 
Q 37.359375 48.484375 30.078125 48.484375 
Q 22.859375 48.484375 18.828125 43.109375 
Q 14.796875 37.75 14.796875 27.984375 
Q 14.796875 18.265625 18.828125 12.890625 
Q 22.859375 7.515625 30.078125 7.515625 
Q 37.359375 7.515625 41.375 12.890625 
Q 45.40625 18.265625 45.40625 27.984375 
z
M 54.390625 6.78125 
Q 54.390625 -7.171875 48.1875 -13.984375 
Q 42 -20.796875 29.203125 -20.796875 
Q 24.46875 -20.796875 20.265625 -20.09375 
Q 16.0625 -19.390625 12.109375 -17.921875 
L 12.109375 -9.1875 
Q 16.0625 -11.328125 19.921875 -12.34375 
Q 23.78125 -13.375 27.78125 -13.375 
Q 36.625 -13.375 41.015625 -8.765625 
Q 45.40625 -4.15625 45.40625 5.171875 
L 45.40625 9.625 
Q 42.625 4.78125 38.28125 2.390625 
Q 33.9375 0 27.875 0 
Q 17.828125 0 11.671875 7.65625 
Q 5.515625 15.328125 5.515625 27.984375 
Q 5.515625 40.671875 11.671875 48.328125 
Q 17.828125 56 27.875 56 
Q 33.9375 56 38.28125 53.609375 
Q 42.625 51.21875 45.40625 46.390625 
L 45.40625 54.6875 
L 54.390625 54.6875 
z
" id="DejaVuSans-103"/>
       <path d="M 41.109375 46.296875 
Q 39.59375 47.171875 37.8125 47.578125 
Q 36.03125 48 33.890625 48 
Q 26.265625 48 22.1875 43.046875 
Q 18.109375 38.09375 18.109375 28.8125 
L 18.109375 0 
L 9.078125 0 
L 9.078125 54.6875 
L 18.109375 54.6875 
L 18.109375 46.1875 
Q 20.953125 51.171875 25.484375 53.578125 
Q 30.03125 56 36.53125 56 
Q 37.453125 56 38.578125 55.875 
Q 39.703125 55.765625 41.0625 55.515625 
z
" id="DejaVuSans-114"/>
       <path d="M 44.28125 53.078125 
L 44.28125 44.578125 
Q 40.484375 46.53125 36.375 47.5 
Q 32.28125 48.484375 27.875 48.484375 
Q 21.1875 48.484375 17.84375 46.4375 
Q 14.5 44.390625 14.5 40.28125 
Q 14.5 37.15625 16.890625 35.375 
Q 19.28125 33.59375 26.515625 31.984375 
L 29.59375 31.296875 
Q 39.15625 29.25 43.1875 25.515625 
Q 47.21875 21.78125 47.21875 15.09375 
Q 47.21875 7.46875 41.1875 3.015625 
Q 35.15625 -1.421875 24.609375 -1.421875 
Q 20.21875 -1.421875 15.453125 -0.5625 
Q 10.6875 0.296875 5.421875 2 
L 5.421875 11.28125 
Q 10.40625 8.6875 15.234375 7.390625 
Q 20.0625 6.109375 24.8125 6.109375 
Q 31.15625 6.109375 34.5625 8.28125 
Q 37.984375 10.453125 37.984375 14.40625 
Q 37.984375 18.0625 35.515625 20.015625 
Q 33.0625 21.96875 24.703125 23.78125 
L 21.578125 24.515625 
Q 13.234375 26.265625 9.515625 29.90625 
Q 5.8125 33.546875 5.8125 39.890625 
Q 5.8125 47.609375 11.28125 51.796875 
Q 16.75 56 26.8125 56 
Q 31.78125 56 36.171875 55.265625 
Q 40.578125 54.546875 44.28125 53.078125 
z
" id="DejaVuSans-115"/>
      </defs>
      <use xlink:href="#DejaVuSans-100"/>
      <use x="63.476562" xlink:href="#DejaVuSans-101"/>
      <use x="125" xlink:href="#DejaVuSans-103"/>
      <use x="188.476562" xlink:href="#DejaVuSans-114"/>
      <use x="227.339844" xlink:href="#DejaVuSans-101"/>
      <use x="288.863281" xlink:href="#DejaVuSans-101"/>
      <use x="350.386719" xlink:href="#DejaVuSans-115"/>
     </g>
    </g>
   </g>
   <g id="line2d_14">
    <path clip-path="url(#p00c316f79e)" d="M 213.381818 282.479334 
L 213.381818 302.889124 
" style="fill:none;stroke:#000000;stroke-linecap:square;"/>
   </g>
   <g id="line2d_15">
    <path clip-path="url(#p00c316f79e)" d="M 213.381818 264.164796 
L 213.381818 236.715296 
" style="fill:none;stroke:#000000;stroke-linecap:square;"/>
   </g>
   <g id="line2d_16">
    <path clip-path="url(#p00c316f79e)" d="M 203.236364 302.889124 
L 223.527273 302.889124 
" style="fill:none;stroke:#000000;stroke-linecap:square;"/>
   </g>
   <g id="line2d_17">
    <path clip-path="url(#p00c316f79e)" d="M 203.236364 236.715296 
L 223.527273 236.715296 
" style="fill:none;stroke:#000000;stroke-linecap:square;"/>
   </g>
   <g id="line2d_18">
    <path clip-path="url(#p00c316f79e)" d="M 294.545455 298.448389 
L 294.545455 312.034521 
" style="fill:none;stroke:#000000;stroke-linecap:square;"/>
   </g>
   <g id="line2d_19">
    <path clip-path="url(#p00c316f79e)" d="M 294.545455 282.045702 
L 294.545455 257.828116 
" style="fill:none;stroke:#000000;stroke-linecap:square;"/>
   </g>
   <g id="line2d_20">
    <path clip-path="url(#p00c316f79e)" d="M 284.4 312.034521 
L 304.690909 312.034521 
" style="fill:none;stroke:#000000;stroke-linecap:square;"/>
   </g>
   <g id="line2d_21">
    <path clip-path="url(#p00c316f79e)" d="M 284.4 257.828116 
L 304.690909 257.828116 
" style="fill:none;stroke:#000000;stroke-linecap:square;"/>
   </g>
   <g id="line2d_22">
    <path clip-path="url(#p00c316f79e)" d="M 375.709091 301.818425 
L 375.709091 314.099567 
" style="fill:none;stroke:#000000;stroke-linecap:square;"/>
   </g>
   <g id="line2d_23">
    <path clip-path="url(#p00c316f79e)" d="M 375.709091 292.667353 
L 375.709091 279.143172 
" style="fill:none;stroke:#000000;stroke-linecap:square;"/>
   </g>
   <g id="line2d_24">
    <path clip-path="url(#p00c316f79e)" d="M 365.563636 314.099567 
L 385.854545 314.099567 
" style="fill:none;stroke:#000000;stroke-linecap:square;"/>
   </g>
   <g id="line2d_25">
    <path clip-path="url(#p00c316f79e)" d="M 365.563636 279.143172 
L 385.854545 279.143172 
" style="fill:none;stroke:#000000;stroke-linecap:square;"/>
   </g>
   <g id="line2d_26">
    <path clip-path="url(#p00c316f79e)" d="M 456.872727 281.021999 
L 456.872727 308.456961 
" style="fill:none;stroke:#000000;stroke-linecap:square;"/>
   </g>
   <g id="line2d_27">
    <path clip-path="url(#p00c316f79e)" d="M 456.872727 262.679037 
L 456.872727 235.190056 
" style="fill:none;stroke:#000000;stroke-linecap:square;"/>
   </g>
   <g id="line2d_28">
    <path clip-path="url(#p00c316f79e)" d="M 446.727273 308.456961 
L 467.018182 308.456961 
" style="fill:none;stroke:#000000;stroke-linecap:square;"/>
   </g>
   <g id="line2d_29">
    <path clip-path="url(#p00c316f79e)" d="M 446.727273 235.190056 
L 467.018182 235.190056 
" style="fill:none;stroke:#000000;stroke-linecap:square;"/>
   </g>
   <g id="line2d_30">
    <path clip-path="url(#p00c316f79e)" d="M 538.036364 296.438026 
L 538.036364 311.047836 
" style="fill:none;stroke:#000000;stroke-linecap:square;"/>
   </g>
   <g id="line2d_31">
    <path clip-path="url(#p00c316f79e)" d="M 538.036364 281.430771 
L 538.036364 259.05322 
" style="fill:none;stroke:#000000;stroke-linecap:square;"/>
   </g>
   <g id="line2d_32">
    <path clip-path="url(#p00c316f79e)" d="M 527.890909 311.047836 
L 548.181818 311.047836 
" style="fill:none;stroke:#000000;stroke-linecap:square;"/>
   </g>
   <g id="line2d_33">
    <path clip-path="url(#p00c316f79e)" d="M 527.890909 259.05322 
L 548.181818 259.05322 
" style="fill:none;stroke:#000000;stroke-linecap:square;"/>
   </g>
   <g id="line2d_34">
    <path clip-path="url(#p00c316f79e)" d="M 619.2 303.107468 
L 619.2 312.068601 
" style="fill:none;stroke:#000000;stroke-linecap:square;"/>
   </g>
   <g id="line2d_35">
    <path clip-path="url(#p00c316f79e)" d="M 619.2 293.140287 
L 619.2 278.284371 
" style="fill:none;stroke:#000000;stroke-linecap:square;"/>
   </g>
   <g id="line2d_36">
    <path clip-path="url(#p00c316f79e)" d="M 609.054545 312.068601 
L 629.345455 312.068601 
" style="fill:none;stroke:#000000;stroke-linecap:square;"/>
   </g>
   <g id="line2d_37">
    <path clip-path="url(#p00c316f79e)" d="M 609.054545 278.284371 
L 629.345455 278.284371 
" style="fill:none;stroke:#000000;stroke-linecap:square;"/>
   </g>
   <g id="patch_3">
    <path clip-path="url(#p00c316f79e)" d="M 193.090909 282.479334 
L 233.672727 282.479334 
L 233.672727 264.164796 
L 193.090909 264.164796 
L 193.090909 282.479334 
z
" style="fill:#ffc0cb;stroke:#000000;stroke-linejoin:miter;"/>
   </g>
   <g id="patch_4">
    <path clip-path="url(#p00c316f79e)" d="M 274.254545 298.448389 
L 314.836364 298.448389 
L 314.836364 282.045702 
L 274.254545 282.045702 
L 274.254545 298.448389 
z
" style="fill:#add8e6;stroke:#000000;stroke-linejoin:miter;"/>
   </g>
   <g id="patch_5">
    <path clip-path="url(#p00c316f79e)" d="M 355.418182 301.818425 
L 396 301.818425 
L 396 292.667353 
L 355.418182 292.667353 
L 355.418182 301.818425 
z
" style="fill:#90ee90;stroke:#000000;stroke-linejoin:miter;"/>
   </g>
   <g id="patch_6">
    <path clip-path="url(#p00c316f79e)" d="M 436.581818 281.021999 
L 477.163636 281.021999 
L 477.163636 262.679037 
L 436.581818 262.679037 
L 436.581818 281.021999 
z
" style="fill:#ffc0cb;stroke:#000000;stroke-linejoin:miter;"/>
   </g>
   <g id="patch_7">
    <path clip-path="url(#p00c316f79e)" d="M 517.745455 296.438026 
L 558.327273 296.438026 
L 558.327273 281.430771 
L 517.745455 281.430771 
L 517.745455 296.438026 
z
" style="fill:#add8e6;stroke:#000000;stroke-linejoin:miter;"/>
   </g>
   <g id="patch_8">
    <path clip-path="url(#p00c316f79e)" d="M 598.909091 303.107468 
L 639.490909 303.107468 
L 639.490909 293.140287 
L 598.909091 293.140287 
L 598.909091 303.107468 
z
" style="fill:#90ee90;stroke:#000000;stroke-linejoin:miter;"/>
   </g>
   <g id="line2d_38">
    <path clip-path="url(#p00c316f79e)" d="M 193.090909 274.517656 
L 233.672727 274.517656 
" style="fill:none;stroke:#ff7f0e;stroke-linecap:square;"/>
   </g>
   <g id="line2d_39">
    <path clip-path="url(#p00c316f79e)" d="M 274.254545 291.390734 
L 314.836364 291.390734 
" style="fill:none;stroke:#ff7f0e;stroke-linecap:square;"/>
   </g>
   <g id="line2d_40">
    <path clip-path="url(#p00c316f79e)" d="M 355.418182 297.66953 
L 396 297.66953 
" style="fill:none;stroke:#ff7f0e;stroke-linecap:square;"/>
   </g>
   <g id="line2d_41">
    <path clip-path="url(#p00c316f79e)" d="M 436.581818 272.814547 
L 477.163636 272.814547 
" style="fill:none;stroke:#ff7f0e;stroke-linecap:square;"/>
   </g>
   <g id="line2d_42">
    <path clip-path="url(#p00c316f79e)" d="M 517.745455 289.853018 
L 558.327273 289.853018 
" style="fill:none;stroke:#ff7f0e;stroke-linecap:square;"/>
   </g>
   <g id="line2d_43">
    <path clip-path="url(#p00c316f79e)" d="M 598.909091 298.03839 
L 639.490909 298.03839 
" style="fill:none;stroke:#ff7f0e;stroke-linecap:square;"/>
   </g>
   <g id="patch_9">
    <path d="M 172.8 325.2024 
L 172.8 83.0304 
" style="fill:none;stroke:#000000;stroke-linecap:square;stroke-linejoin:miter;stroke-width:0.8;"/>
   </g>
   <g id="patch_10">
    <path d="M 659.781818 325.2024 
L 659.781818 83.0304 
" style="fill:none;stroke:#000000;stroke-linecap:square;stroke-linejoin:miter;stroke-width:0.8;"/>
   </g>
   <g id="patch_11">
    <path d="M 172.8 325.2024 
L 659.781818 325.2024 
" style="fill:none;stroke:#000000;stroke-linecap:square;stroke-linejoin:miter;stroke-width:0.8;"/>
   </g>
   <g id="patch_12">
    <path d="M 172.8 83.0304 
L 659.781818 83.0304 
" style="fill:none;stroke:#000000;stroke-linecap:square;stroke-linejoin:miter;stroke-width:0.8;"/>
   </g>
   <g id="text_15">
    <!-- RMSE boxplot: training dataset -->
    <g transform="translate(323.331222 77.0304)scale(0.12 -0.12)">
     <defs>
      <path d="M 44.390625 34.1875 
Q 47.5625 33.109375 50.5625 29.59375 
Q 53.5625 26.078125 56.59375 19.921875 
L 66.609375 0 
L 56 0 
L 46.6875 18.703125 
Q 43.0625 26.03125 39.671875 28.421875 
Q 36.28125 30.8125 30.421875 30.8125 
L 19.671875 30.8125 
L 19.671875 0 
L 9.8125 0 
L 9.8125 72.90625 
L 32.078125 72.90625 
Q 44.578125 72.90625 50.734375 67.671875 
Q 56.890625 62.453125 56.890625 51.90625 
Q 56.890625 45.015625 53.6875 40.46875 
Q 50.484375 35.9375 44.390625 34.1875 
z
M 19.671875 64.796875 
L 19.671875 38.921875 
L 32.078125 38.921875 
Q 39.203125 38.921875 42.84375 42.21875 
Q 46.484375 45.515625 46.484375 51.90625 
Q 46.484375 58.296875 42.84375 61.546875 
Q 39.203125 64.796875 32.078125 64.796875 
z
" id="DejaVuSans-82"/>
      <path d="M 9.8125 72.90625 
L 24.515625 72.90625 
L 43.109375 23.296875 
L 61.8125 72.90625 
L 76.515625 72.90625 
L 76.515625 0 
L 66.890625 0 
L 66.890625 64.015625 
L 48.09375 14.015625 
L 38.1875 14.015625 
L 19.390625 64.015625 
L 19.390625 0 
L 9.8125 0 
z
" id="DejaVuSans-77"/>
      <path d="M 53.515625 70.515625 
L 53.515625 60.890625 
Q 47.90625 63.578125 42.921875 64.890625 
Q 37.9375 66.21875 33.296875 66.21875 
Q 25.25 66.21875 20.875 63.09375 
Q 16.5 59.96875 16.5 54.203125 
Q 16.5 49.359375 19.40625 46.890625 
Q 22.3125 44.4375 30.421875 42.921875 
L 36.375 41.703125 
Q 47.40625 39.59375 52.65625 34.296875 
Q 57.90625 29 57.90625 20.125 
Q 57.90625 9.515625 50.796875 4.046875 
Q 43.703125 -1.421875 29.984375 -1.421875 
Q 24.8125 -1.421875 18.96875 -0.25 
Q 13.140625 0.921875 6.890625 3.21875 
L 6.890625 13.375 
Q 12.890625 10.015625 18.65625 8.296875 
Q 24.421875 6.59375 29.984375 6.59375 
Q 38.421875 6.59375 43.015625 9.90625 
Q 47.609375 13.234375 47.609375 19.390625 
Q 47.609375 24.75 44.3125 27.78125 
Q 41.015625 30.8125 33.5 32.328125 
L 27.484375 33.5 
Q 16.453125 35.6875 11.515625 40.375 
Q 6.59375 45.0625 6.59375 53.421875 
Q 6.59375 63.09375 13.40625 68.65625 
Q 20.21875 74.21875 32.171875 74.21875 
Q 37.3125 74.21875 42.625 73.28125 
Q 47.953125 72.359375 53.515625 70.515625 
z
" id="DejaVuSans-83"/>
      <path d="M 9.8125 72.90625 
L 55.90625 72.90625 
L 55.90625 64.59375 
L 19.671875 64.59375 
L 19.671875 43.015625 
L 54.390625 43.015625 
L 54.390625 34.71875 
L 19.671875 34.71875 
L 19.671875 8.296875 
L 56.78125 8.296875 
L 56.78125 0 
L 9.8125 0 
z
" id="DejaVuSans-69"/>
      <path id="DejaVuSans-32"/>
      <path d="M 48.6875 27.296875 
Q 48.6875 37.203125 44.609375 42.84375 
Q 40.53125 48.484375 33.40625 48.484375 
Q 26.265625 48.484375 22.1875 42.84375 
Q 18.109375 37.203125 18.109375 27.296875 
Q 18.109375 17.390625 22.1875 11.75 
Q 26.265625 6.109375 33.40625 6.109375 
Q 40.53125 6.109375 44.609375 11.75 
Q 48.6875 17.390625 48.6875 27.296875 
z
M 18.109375 46.390625 
Q 20.953125 51.265625 25.265625 53.625 
Q 29.59375 56 35.59375 56 
Q 45.5625 56 51.78125 48.09375 
Q 58.015625 40.1875 58.015625 27.296875 
Q 58.015625 14.40625 51.78125 6.484375 
Q 45.5625 -1.421875 35.59375 -1.421875 
Q 29.59375 -1.421875 25.265625 0.953125 
Q 20.953125 3.328125 18.109375 8.203125 
L 18.109375 0 
L 9.078125 0 
L 9.078125 75.984375 
L 18.109375 75.984375 
z
" id="DejaVuSans-98"/>
      <path d="M 30.609375 48.390625 
Q 23.390625 48.390625 19.1875 42.75 
Q 14.984375 37.109375 14.984375 27.296875 
Q 14.984375 17.484375 19.15625 11.84375 
Q 23.34375 6.203125 30.609375 6.203125 
Q 37.796875 6.203125 41.984375 11.859375 
Q 46.1875 17.53125 46.1875 27.296875 
Q 46.1875 37.015625 41.984375 42.703125 
Q 37.796875 48.390625 30.609375 48.390625 
z
M 30.609375 56 
Q 42.328125 56 49.015625 48.375 
Q 55.71875 40.765625 55.71875 27.296875 
Q 55.71875 13.875 49.015625 6.21875 
Q 42.328125 -1.421875 30.609375 -1.421875 
Q 18.84375 -1.421875 12.171875 6.21875 
Q 5.515625 13.875 5.515625 27.296875 
Q 5.515625 40.765625 12.171875 48.375 
Q 18.84375 56 30.609375 56 
z
" id="DejaVuSans-111"/>
      <path d="M 54.890625 54.6875 
L 35.109375 28.078125 
L 55.90625 0 
L 45.3125 0 
L 29.390625 21.484375 
L 13.484375 0 
L 2.875 0 
L 24.125 28.609375 
L 4.6875 54.6875 
L 15.28125 54.6875 
L 29.78125 35.203125 
L 44.28125 54.6875 
z
" id="DejaVuSans-120"/>
      <path d="M 18.109375 8.203125 
L 18.109375 -20.796875 
L 9.078125 -20.796875 
L 9.078125 54.6875 
L 18.109375 54.6875 
L 18.109375 46.390625 
Q 20.953125 51.265625 25.265625 53.625 
Q 29.59375 56 35.59375 56 
Q 45.5625 56 51.78125 48.09375 
Q 58.015625 40.1875 58.015625 27.296875 
Q 58.015625 14.40625 51.78125 6.484375 
Q 45.5625 -1.421875 35.59375 -1.421875 
Q 29.59375 -1.421875 25.265625 0.953125 
Q 20.953125 3.328125 18.109375 8.203125 
z
M 48.6875 27.296875 
Q 48.6875 37.203125 44.609375 42.84375 
Q 40.53125 48.484375 33.40625 48.484375 
Q 26.265625 48.484375 22.1875 42.84375 
Q 18.109375 37.203125 18.109375 27.296875 
Q 18.109375 17.390625 22.1875 11.75 
Q 26.265625 6.109375 33.40625 6.109375 
Q 40.53125 6.109375 44.609375 11.75 
Q 48.6875 17.390625 48.6875 27.296875 
z
" id="DejaVuSans-112"/>
      <path d="M 9.421875 75.984375 
L 18.40625 75.984375 
L 18.40625 0 
L 9.421875 0 
z
" id="DejaVuSans-108"/>
      <path d="M 18.3125 70.21875 
L 18.3125 54.6875 
L 36.8125 54.6875 
L 36.8125 47.703125 
L 18.3125 47.703125 
L 18.3125 18.015625 
Q 18.3125 11.328125 20.140625 9.421875 
Q 21.96875 7.515625 27.59375 7.515625 
L 36.8125 7.515625 
L 36.8125 0 
L 27.59375 0 
Q 17.1875 0 13.234375 3.875 
Q 9.28125 7.765625 9.28125 18.015625 
L 9.28125 47.703125 
L 2.6875 47.703125 
L 2.6875 54.6875 
L 9.28125 54.6875 
L 9.28125 70.21875 
z
" id="DejaVuSans-116"/>
      <path d="M 11.71875 12.40625 
L 22.015625 12.40625 
L 22.015625 0 
L 11.71875 0 
z
M 11.71875 51.703125 
L 22.015625 51.703125 
L 22.015625 39.3125 
L 11.71875 39.3125 
z
" id="DejaVuSans-58"/>
      <path d="M 34.28125 27.484375 
Q 23.390625 27.484375 19.1875 25 
Q 14.984375 22.515625 14.984375 16.5 
Q 14.984375 11.71875 18.140625 8.90625 
Q 21.296875 6.109375 26.703125 6.109375 
Q 34.1875 6.109375 38.703125 11.40625 
Q 43.21875 16.703125 43.21875 25.484375 
L 43.21875 27.484375 
z
M 52.203125 31.203125 
L 52.203125 0 
L 43.21875 0 
L 43.21875 8.296875 
Q 40.140625 3.328125 35.546875 0.953125 
Q 30.953125 -1.421875 24.3125 -1.421875 
Q 15.921875 -1.421875 10.953125 3.296875 
Q 6 8.015625 6 15.921875 
Q 6 25.140625 12.171875 29.828125 
Q 18.359375 34.515625 30.609375 34.515625 
L 43.21875 34.515625 
L 43.21875 35.40625 
Q 43.21875 41.609375 39.140625 45 
Q 35.0625 48.390625 27.6875 48.390625 
Q 23 48.390625 18.546875 47.265625 
Q 14.109375 46.140625 10.015625 43.890625 
L 10.015625 52.203125 
Q 14.9375 54.109375 19.578125 55.046875 
Q 24.21875 56 28.609375 56 
Q 40.484375 56 46.34375 49.84375 
Q 52.203125 43.703125 52.203125 31.203125 
z
" id="DejaVuSans-97"/>
      <path d="M 9.421875 54.6875 
L 18.40625 54.6875 
L 18.40625 0 
L 9.421875 0 
z
M 9.421875 75.984375 
L 18.40625 75.984375 
L 18.40625 64.59375 
L 9.421875 64.59375 
z
" id="DejaVuSans-105"/>
      <path d="M 54.890625 33.015625 
L 54.890625 0 
L 45.90625 0 
L 45.90625 32.71875 
Q 45.90625 40.484375 42.875 44.328125 
Q 39.84375 48.1875 33.796875 48.1875 
Q 26.515625 48.1875 22.3125 43.546875 
Q 18.109375 38.921875 18.109375 30.90625 
L 18.109375 0 
L 9.078125 0 
L 9.078125 54.6875 
L 18.109375 54.6875 
L 18.109375 46.1875 
Q 21.34375 51.125 25.703125 53.5625 
Q 30.078125 56 35.796875 56 
Q 45.21875 56 50.046875 50.171875 
Q 54.890625 44.34375 54.890625 33.015625 
z
" id="DejaVuSans-110"/>
     </defs>
     <use xlink:href="#DejaVuSans-82"/>
     <use x="69.482422" xlink:href="#DejaVuSans-77"/>
     <use x="155.761719" xlink:href="#DejaVuSans-83"/>
     <use x="219.238281" xlink:href="#DejaVuSans-69"/>
     <use x="282.421875" xlink:href="#DejaVuSans-32"/>
     <use x="314.208984" xlink:href="#DejaVuSans-98"/>
     <use x="377.685547" xlink:href="#DejaVuSans-111"/>
     <use x="435.742188" xlink:href="#DejaVuSans-120"/>
     <use x="494.921875" xlink:href="#DejaVuSans-112"/>
     <use x="558.398438" xlink:href="#DejaVuSans-108"/>
     <use x="586.181641" xlink:href="#DejaVuSans-111"/>
     <use x="647.363281" xlink:href="#DejaVuSans-116"/>
     <use x="686.572266" xlink:href="#DejaVuSans-58"/>
     <use x="720.263672" xlink:href="#DejaVuSans-32"/>
     <use x="752.050781" xlink:href="#DejaVuSans-116"/>
     <use x="791.259766" xlink:href="#DejaVuSans-114"/>
     <use x="832.373047" xlink:href="#DejaVuSans-97"/>
     <use x="893.652344" xlink:href="#DejaVuSans-105"/>
     <use x="921.435547" xlink:href="#DejaVuSans-110"/>
     <use x="984.814453" xlink:href="#DejaVuSans-105"/>
     <use x="1012.597656" xlink:href="#DejaVuSans-110"/>
     <use x="1075.976562" xlink:href="#DejaVuSans-103"/>
     <use x="1139.453125" xlink:href="#DejaVuSans-32"/>
     <use x="1171.240234" xlink:href="#DejaVuSans-100"/>
     <use x="1234.716797" xlink:href="#DejaVuSans-97"/>
     <use x="1295.996094" xlink:href="#DejaVuSans-116"/>
     <use x="1335.205078" xlink:href="#DejaVuSans-97"/>
     <use x="1396.484375" xlink:href="#DejaVuSans-115"/>
     <use x="1448.583984" xlink:href="#DejaVuSans-101"/>
     <use x="1510.107422" xlink:href="#DejaVuSans-116"/>
    </g>
   </g>
  </g>
  <g id="axes_2">
   <g id="patch_13">
    <path d="M 757.178182 325.2024 
L 1244.16 325.2024 
L 1244.16 83.0304 
L 757.178182 83.0304 
z
" style="fill:#ffffff;"/>
   </g>
   <g id="matplotlib.axis_3">
    <g id="xtick_7">
     <g id="line2d_44">
      <g>
       <use style="stroke:#000000;stroke-width:0.8;" x="797.76" xlink:href="#m39f7c35820" y="325.2024"/>
      </g>
     </g>
     <g id="text_16">
      <!-- 1 -->
      <g transform="translate(794.57875 339.800837)scale(0.1 -0.1)">
       <use xlink:href="#DejaVuSans-49"/>
      </g>
     </g>
    </g>
    <g id="xtick_8">
     <g id="line2d_45">
      <g>
       <use style="stroke:#000000;stroke-width:0.8;" x="878.923636" xlink:href="#m39f7c35820" y="325.2024"/>
      </g>
     </g>
     <g id="text_17">
      <!-- 2 -->
      <g transform="translate(875.742386 339.800837)scale(0.1 -0.1)">
       <use xlink:href="#DejaVuSans-50"/>
      </g>
     </g>
    </g>
    <g id="xtick_9">
     <g id="line2d_46">
      <g>
       <use style="stroke:#000000;stroke-width:0.8;" x="960.087273" xlink:href="#m39f7c35820" y="325.2024"/>
      </g>
     </g>
     <g id="text_18">
      <!-- 3 -->
      <g transform="translate(956.906023 339.800837)scale(0.1 -0.1)">
       <use xlink:href="#DejaVuSans-51"/>
      </g>
     </g>
    </g>
    <g id="xtick_10">
     <g id="line2d_47">
      <g>
       <use style="stroke:#000000;stroke-width:0.8;" x="1041.250909" xlink:href="#m39f7c35820" y="325.2024"/>
      </g>
     </g>
     <g id="text_19">
      <!-- 4 -->
      <g transform="translate(1038.069659 339.800837)scale(0.1 -0.1)">
       <use xlink:href="#DejaVuSans-52"/>
      </g>
     </g>
    </g>
    <g id="xtick_11">
     <g id="line2d_48">
      <g>
       <use style="stroke:#000000;stroke-width:0.8;" x="1122.414545" xlink:href="#m39f7c35820" y="325.2024"/>
      </g>
     </g>
     <g id="text_20">
      <!-- 5 -->
      <g transform="translate(1119.233295 339.800837)scale(0.1 -0.1)">
       <use xlink:href="#DejaVuSans-53"/>
      </g>
     </g>
    </g>
    <g id="xtick_12">
     <g id="line2d_49">
      <g>
       <use style="stroke:#000000;stroke-width:0.8;" x="1203.578182" xlink:href="#m39f7c35820" y="325.2024"/>
      </g>
     </g>
     <g id="text_21">
      <!-- 6 -->
      <g transform="translate(1200.396932 339.800837)scale(0.1 -0.1)">
       <use xlink:href="#DejaVuSans-54"/>
      </g>
     </g>
    </g>
    <g id="text_22">
     <!-- Column number -->
     <g transform="translate(960.41831 353.478962)scale(0.1 -0.1)">
      <defs>
       <path d="M 64.40625 67.28125 
L 64.40625 56.890625 
Q 59.421875 61.53125 53.78125 63.8125 
Q 48.140625 66.109375 41.796875 66.109375 
Q 29.296875 66.109375 22.65625 58.46875 
Q 16.015625 50.828125 16.015625 36.375 
Q 16.015625 21.96875 22.65625 14.328125 
Q 29.296875 6.6875 41.796875 6.6875 
Q 48.140625 6.6875 53.78125 8.984375 
Q 59.421875 11.28125 64.40625 15.921875 
L 64.40625 5.609375 
Q 59.234375 2.09375 53.4375 0.328125 
Q 47.65625 -1.421875 41.21875 -1.421875 
Q 24.65625 -1.421875 15.125 8.703125 
Q 5.609375 18.84375 5.609375 36.375 
Q 5.609375 53.953125 15.125 64.078125 
Q 24.65625 74.21875 41.21875 74.21875 
Q 47.75 74.21875 53.53125 72.484375 
Q 59.328125 70.75 64.40625 67.28125 
z
" id="DejaVuSans-67"/>
       <path d="M 8.5 21.578125 
L 8.5 54.6875 
L 17.484375 54.6875 
L 17.484375 21.921875 
Q 17.484375 14.15625 20.5 10.265625 
Q 23.53125 6.390625 29.59375 6.390625 
Q 36.859375 6.390625 41.078125 11.03125 
Q 45.3125 15.671875 45.3125 23.6875 
L 45.3125 54.6875 
L 54.296875 54.6875 
L 54.296875 0 
L 45.3125 0 
L 45.3125 8.40625 
Q 42.046875 3.421875 37.71875 1 
Q 33.40625 -1.421875 27.6875 -1.421875 
Q 18.265625 -1.421875 13.375 4.4375 
Q 8.5 10.296875 8.5 21.578125 
z
M 31.109375 56 
z
" id="DejaVuSans-117"/>
       <path d="M 52 44.1875 
Q 55.375 50.25 60.0625 53.125 
Q 64.75 56 71.09375 56 
Q 79.640625 56 84.28125 50.015625 
Q 88.921875 44.046875 88.921875 33.015625 
L 88.921875 0 
L 79.890625 0 
L 79.890625 32.71875 
Q 79.890625 40.578125 77.09375 44.375 
Q 74.3125 48.1875 68.609375 48.1875 
Q 61.625 48.1875 57.5625 43.546875 
Q 53.515625 38.921875 53.515625 30.90625 
L 53.515625 0 
L 44.484375 0 
L 44.484375 32.71875 
Q 44.484375 40.625 41.703125 44.40625 
Q 38.921875 48.1875 33.109375 48.1875 
Q 26.21875 48.1875 22.15625 43.53125 
Q 18.109375 38.875 18.109375 30.90625 
L 18.109375 0 
L 9.078125 0 
L 9.078125 54.6875 
L 18.109375 54.6875 
L 18.109375 46.1875 
Q 21.1875 51.21875 25.484375 53.609375 
Q 29.78125 56 35.6875 56 
Q 41.65625 56 45.828125 52.96875 
Q 50 49.953125 52 44.1875 
z
" id="DejaVuSans-109"/>
      </defs>
      <use xlink:href="#DejaVuSans-67"/>
      <use x="69.824219" xlink:href="#DejaVuSans-111"/>
      <use x="131.005859" xlink:href="#DejaVuSans-108"/>
      <use x="158.789062" xlink:href="#DejaVuSans-117"/>
      <use x="222.167969" xlink:href="#DejaVuSans-109"/>
      <use x="319.580078" xlink:href="#DejaVuSans-110"/>
      <use x="382.958984" xlink:href="#DejaVuSans-32"/>
      <use x="414.746094" xlink:href="#DejaVuSans-110"/>
      <use x="478.125" xlink:href="#DejaVuSans-117"/>
      <use x="541.503906" xlink:href="#DejaVuSans-109"/>
      <use x="638.916016" xlink:href="#DejaVuSans-98"/>
      <use x="702.392578" xlink:href="#DejaVuSans-101"/>
      <use x="763.916016" xlink:href="#DejaVuSans-114"/>
     </g>
    </g>
   </g>
   <g id="matplotlib.axis_4">
    <g id="ytick_8">
     <g id="line2d_50">
      <g>
       <use style="stroke:#000000;stroke-width:0.8;" x="757.178182" xlink:href="#mf8bf9c8e41" y="325.2024"/>
      </g>
     </g>
     <g id="text_23">
      <!-- 0 -->
      <g transform="translate(743.815682 329.001619)scale(0.1 -0.1)">
       <use xlink:href="#DejaVuSans-48"/>
      </g>
     </g>
    </g>
    <g id="ytick_9">
     <g id="line2d_51">
      <g>
       <use style="stroke:#000000;stroke-width:0.8;" x="757.178182" xlink:href="#mf8bf9c8e41" y="284.8404"/>
      </g>
     </g>
     <g id="text_24">
      <!-- 10 -->
      <g transform="translate(737.453182 288.639619)scale(0.1 -0.1)">
       <use xlink:href="#DejaVuSans-49"/>
       <use x="63.623047" xlink:href="#DejaVuSans-48"/>
      </g>
     </g>
    </g>
    <g id="ytick_10">
     <g id="line2d_52">
      <g>
       <use style="stroke:#000000;stroke-width:0.8;" x="757.178182" xlink:href="#mf8bf9c8e41" y="244.4784"/>
      </g>
     </g>
     <g id="text_25">
      <!-- 20 -->
      <g transform="translate(737.453182 248.277619)scale(0.1 -0.1)">
       <use xlink:href="#DejaVuSans-50"/>
       <use x="63.623047" xlink:href="#DejaVuSans-48"/>
      </g>
     </g>
    </g>
    <g id="ytick_11">
     <g id="line2d_53">
      <g>
       <use style="stroke:#000000;stroke-width:0.8;" x="757.178182" xlink:href="#mf8bf9c8e41" y="204.1164"/>
      </g>
     </g>
     <g id="text_26">
      <!-- 30 -->
      <g transform="translate(737.453182 207.915619)scale(0.1 -0.1)">
       <use xlink:href="#DejaVuSans-51"/>
       <use x="63.623047" xlink:href="#DejaVuSans-48"/>
      </g>
     </g>
    </g>
    <g id="ytick_12">
     <g id="line2d_54">
      <g>
       <use style="stroke:#000000;stroke-width:0.8;" x="757.178182" xlink:href="#mf8bf9c8e41" y="163.7544"/>
      </g>
     </g>
     <g id="text_27">
      <!-- 40 -->
      <g transform="translate(737.453182 167.553619)scale(0.1 -0.1)">
       <use xlink:href="#DejaVuSans-52"/>
       <use x="63.623047" xlink:href="#DejaVuSans-48"/>
      </g>
     </g>
    </g>
    <g id="ytick_13">
     <g id="line2d_55">
      <g>
       <use style="stroke:#000000;stroke-width:0.8;" x="757.178182" xlink:href="#mf8bf9c8e41" y="123.3924"/>
      </g>
     </g>
     <g id="text_28">
      <!-- 50 -->
      <g transform="translate(737.453182 127.191619)scale(0.1 -0.1)">
       <use xlink:href="#DejaVuSans-53"/>
       <use x="63.623047" xlink:href="#DejaVuSans-48"/>
      </g>
     </g>
    </g>
    <g id="ytick_14">
     <g id="line2d_56">
      <g>
       <use style="stroke:#000000;stroke-width:0.8;" x="757.178182" xlink:href="#mf8bf9c8e41" y="83.0304"/>
      </g>
     </g>
     <g id="text_29">
      <!-- 60 -->
      <g transform="translate(737.453182 86.829619)scale(0.1 -0.1)">
       <use xlink:href="#DejaVuSans-54"/>
       <use x="63.623047" xlink:href="#DejaVuSans-48"/>
      </g>
     </g>
    </g>
    <g id="text_30">
     <!-- percentage -->
     <g transform="translate(731.373494 232.579681)rotate(-90)scale(0.1 -0.1)">
      <defs>
       <path d="M 48.78125 52.59375 
L 48.78125 44.1875 
Q 44.96875 46.296875 41.140625 47.34375 
Q 37.3125 48.390625 33.40625 48.390625 
Q 24.65625 48.390625 19.8125 42.84375 
Q 14.984375 37.3125 14.984375 27.296875 
Q 14.984375 17.28125 19.8125 11.734375 
Q 24.65625 6.203125 33.40625 6.203125 
Q 37.3125 6.203125 41.140625 7.25 
Q 44.96875 8.296875 48.78125 10.40625 
L 48.78125 2.09375 
Q 45.015625 0.34375 40.984375 -0.53125 
Q 36.96875 -1.421875 32.421875 -1.421875 
Q 20.0625 -1.421875 12.78125 6.34375 
Q 5.515625 14.109375 5.515625 27.296875 
Q 5.515625 40.671875 12.859375 48.328125 
Q 20.21875 56 33.015625 56 
Q 37.15625 56 41.109375 55.140625 
Q 45.0625 54.296875 48.78125 52.59375 
z
" id="DejaVuSans-99"/>
      </defs>
      <use xlink:href="#DejaVuSans-112"/>
      <use x="63.476562" xlink:href="#DejaVuSans-101"/>
      <use x="125" xlink:href="#DejaVuSans-114"/>
      <use x="163.863281" xlink:href="#DejaVuSans-99"/>
      <use x="218.84375" xlink:href="#DejaVuSans-101"/>
      <use x="280.367188" xlink:href="#DejaVuSans-110"/>
      <use x="343.746094" xlink:href="#DejaVuSans-116"/>
      <use x="382.955078" xlink:href="#DejaVuSans-97"/>
      <use x="444.234375" xlink:href="#DejaVuSans-103"/>
      <use x="507.710938" xlink:href="#DejaVuSans-101"/>
     </g>
    </g>
   </g>
   <g id="line2d_57">
    <path clip-path="url(#p418771e1e0)" d="M 797.76 321.897143 
L 797.76 324.019517 
" style="fill:none;stroke:#000000;stroke-linecap:square;"/>
   </g>
   <g id="line2d_58">
    <path clip-path="url(#p418771e1e0)" d="M 797.76 243.179028 
L 797.76 126.655688 
" style="fill:none;stroke:#000000;stroke-linecap:square;"/>
   </g>
   <g id="line2d_59">
    <path clip-path="url(#p418771e1e0)" d="M 787.614545 324.019517 
L 807.905455 324.019517 
" style="fill:none;stroke:#000000;stroke-linecap:square;"/>
   </g>
   <g id="line2d_60">
    <path clip-path="url(#p418771e1e0)" d="M 787.614545 126.655688 
L 807.905455 126.655688 
" style="fill:none;stroke:#000000;stroke-linecap:square;"/>
   </g>
   <g id="line2d_61">
    <path clip-path="url(#p418771e1e0)" d="M 878.923636 318.329072 
L 878.923636 324.411117 
" style="fill:none;stroke:#000000;stroke-linecap:square;"/>
   </g>
   <g id="line2d_62">
    <path clip-path="url(#p418771e1e0)" d="M 878.923636 280.744414 
L 878.923636 224.42402 
" style="fill:none;stroke:#000000;stroke-linecap:square;"/>
   </g>
   <g id="line2d_63">
    <path clip-path="url(#p418771e1e0)" d="M 868.778182 324.411117 
L 889.069091 324.411117 
" style="fill:none;stroke:#000000;stroke-linecap:square;"/>
   </g>
   <g id="line2d_64">
    <path clip-path="url(#p418771e1e0)" d="M 868.778182 224.42402 
L 889.069091 224.42402 
" style="fill:none;stroke:#000000;stroke-linecap:square;"/>
   </g>
   <g id="line2d_65">
    <path clip-path="url(#p418771e1e0)" d="M 960.087273 317.447449 
L 960.087273 324.722781 
" style="fill:none;stroke:#000000;stroke-linecap:square;"/>
   </g>
   <g id="line2d_66">
    <path clip-path="url(#p418771e1e0)" d="M 960.087273 287.709608 
L 960.087273 243.123586 
" style="fill:none;stroke:#000000;stroke-linecap:square;"/>
   </g>
   <g id="line2d_67">
    <path clip-path="url(#p418771e1e0)" d="M 949.941818 324.722781 
L 970.232727 324.722781 
" style="fill:none;stroke:#000000;stroke-linecap:square;"/>
   </g>
   <g id="line2d_68">
    <path clip-path="url(#p418771e1e0)" d="M 949.941818 243.123586 
L 970.232727 243.123586 
" style="fill:none;stroke:#000000;stroke-linecap:square;"/>
   </g>
   <g id="line2d_69">
    <path clip-path="url(#p418771e1e0)" d="M 1041.250909 322.242789 
L 1041.250909 324.267851 
" style="fill:none;stroke:#000000;stroke-linecap:square;"/>
   </g>
   <g id="line2d_70">
    <path clip-path="url(#p418771e1e0)" d="M 1041.250909 241.669017 
L 1041.250909 120.881514 
" style="fill:none;stroke:#000000;stroke-linecap:square;"/>
   </g>
   <g id="line2d_71">
    <path clip-path="url(#p418771e1e0)" d="M 1031.105455 324.267851 
L 1051.396364 324.267851 
" style="fill:none;stroke:#000000;stroke-linecap:square;"/>
   </g>
   <g id="line2d_72">
    <path clip-path="url(#p418771e1e0)" d="M 1031.105455 120.881514 
L 1051.396364 120.881514 
" style="fill:none;stroke:#000000;stroke-linecap:square;"/>
   </g>
   <g id="line2d_73">
    <path clip-path="url(#p418771e1e0)" d="M 1122.414545 316.06606 
L 1122.414545 324.504746 
" style="fill:none;stroke:#000000;stroke-linecap:square;"/>
   </g>
   <g id="line2d_74">
    <path clip-path="url(#p418771e1e0)" d="M 1122.414545 267.772048 
L 1122.414545 196.737418 
" style="fill:none;stroke:#000000;stroke-linecap:square;"/>
   </g>
   <g id="line2d_75">
    <path clip-path="url(#p418771e1e0)" d="M 1112.269091 324.504746 
L 1132.56 324.504746 
" style="fill:none;stroke:#000000;stroke-linecap:square;"/>
   </g>
   <g id="line2d_76">
    <path clip-path="url(#p418771e1e0)" d="M 1112.269091 196.737418 
L 1132.56 196.737418 
" style="fill:none;stroke:#000000;stroke-linecap:square;"/>
   </g>
   <g id="line2d_77">
    <path clip-path="url(#p418771e1e0)" d="M 1203.578182 316.84252 
L 1203.578182 324.366519 
" style="fill:none;stroke:#000000;stroke-linecap:square;"/>
   </g>
   <g id="line2d_78">
    <path clip-path="url(#p418771e1e0)" d="M 1203.578182 275.64759 
L 1203.578182 214.178711 
" style="fill:none;stroke:#000000;stroke-linecap:square;"/>
   </g>
   <g id="line2d_79">
    <path clip-path="url(#p418771e1e0)" d="M 1193.432727 324.366519 
L 1213.723636 324.366519 
" style="fill:none;stroke:#000000;stroke-linecap:square;"/>
   </g>
   <g id="line2d_80">
    <path clip-path="url(#p418771e1e0)" d="M 1193.432727 214.178711 
L 1213.723636 214.178711 
" style="fill:none;stroke:#000000;stroke-linecap:square;"/>
   </g>
   <g id="patch_14">
    <path clip-path="url(#p418771e1e0)" d="M 777.469091 321.897143 
L 818.050909 321.897143 
L 818.050909 243.179028 
L 777.469091 243.179028 
L 777.469091 321.897143 
z
" style="fill:#ffc0cb;stroke:#000000;stroke-linejoin:miter;"/>
   </g>
   <g id="patch_15">
    <path clip-path="url(#p418771e1e0)" d="M 858.632727 318.329072 
L 899.214545 318.329072 
L 899.214545 280.744414 
L 858.632727 280.744414 
L 858.632727 318.329072 
z
" style="fill:#add8e6;stroke:#000000;stroke-linejoin:miter;"/>
   </g>
   <g id="patch_16">
    <path clip-path="url(#p418771e1e0)" d="M 939.796364 317.447449 
L 980.378182 317.447449 
L 980.378182 287.709608 
L 939.796364 287.709608 
L 939.796364 317.447449 
z
" style="fill:#90ee90;stroke:#000000;stroke-linejoin:miter;"/>
   </g>
   <g id="patch_17">
    <path clip-path="url(#p418771e1e0)" d="M 1020.96 322.242789 
L 1061.541818 322.242789 
L 1061.541818 241.669017 
L 1020.96 241.669017 
L 1020.96 322.242789 
z
" style="fill:#ffc0cb;stroke:#000000;stroke-linejoin:miter;"/>
   </g>
   <g id="patch_18">
    <path clip-path="url(#p418771e1e0)" d="M 1102.123636 316.06606 
L 1142.705455 316.06606 
L 1142.705455 267.772048 
L 1102.123636 267.772048 
L 1102.123636 316.06606 
z
" style="fill:#add8e6;stroke:#000000;stroke-linejoin:miter;"/>
   </g>
   <g id="patch_19">
    <path clip-path="url(#p418771e1e0)" d="M 1183.287273 316.84252 
L 1223.869091 316.84252 
L 1223.869091 275.64759 
L 1183.287273 275.64759 
L 1183.287273 316.84252 
z
" style="fill:#90ee90;stroke:#000000;stroke-linejoin:miter;"/>
   </g>
   <g id="line2d_81">
    <path clip-path="url(#p418771e1e0)" d="M 777.469091 309.165885 
L 818.050909 309.165885 
" style="fill:none;stroke:#ff7f0e;stroke-linecap:square;"/>
   </g>
   <g id="line2d_82">
    <path clip-path="url(#p418771e1e0)" d="M 858.632727 306.622795 
L 899.214545 306.622795 
" style="fill:none;stroke:#ff7f0e;stroke-linecap:square;"/>
   </g>
   <g id="line2d_83">
    <path clip-path="url(#p418771e1e0)" d="M 939.796364 309.019148 
L 980.378182 309.019148 
" style="fill:none;stroke:#ff7f0e;stroke-linecap:square;"/>
   </g>
   <g id="line2d_84">
    <path clip-path="url(#p418771e1e0)" d="M 1020.96 314.08827 
L 1061.541818 314.08827 
" style="fill:none;stroke:#ff7f0e;stroke-linecap:square;"/>
   </g>
   <g id="line2d_85">
    <path clip-path="url(#p418771e1e0)" d="M 1102.123636 300.704548 
L 1142.705455 300.704548 
" style="fill:none;stroke:#ff7f0e;stroke-linecap:square;"/>
   </g>
   <g id="line2d_86">
    <path clip-path="url(#p418771e1e0)" d="M 1183.287273 305.950229 
L 1223.869091 305.950229 
" style="fill:none;stroke:#ff7f0e;stroke-linecap:square;"/>
   </g>
   <g id="patch_20">
    <path d="M 757.178182 325.2024 
L 757.178182 83.0304 
" style="fill:none;stroke:#000000;stroke-linecap:square;stroke-linejoin:miter;stroke-width:0.8;"/>
   </g>
   <g id="patch_21">
    <path d="M 1244.16 325.2024 
L 1244.16 83.0304 
" style="fill:none;stroke:#000000;stroke-linecap:square;stroke-linejoin:miter;stroke-width:0.8;"/>
   </g>
   <g id="patch_22">
    <path d="M 757.178182 325.2024 
L 1244.16 325.2024 
" style="fill:none;stroke:#000000;stroke-linecap:square;stroke-linejoin:miter;stroke-width:0.8;"/>
   </g>
   <g id="patch_23">
    <path d="M 757.178182 83.0304 
L 1244.16 83.0304 
" style="fill:none;stroke:#000000;stroke-linecap:square;stroke-linejoin:miter;stroke-width:0.8;"/>
   </g>
   <g id="text_31">
    <!-- Normalized RMSE boxplot: training dataset -->
    <g transform="translate(871.775966 77.0304)scale(0.12 -0.12)">
     <defs>
      <path d="M 9.8125 72.90625 
L 23.09375 72.90625 
L 55.421875 11.921875 
L 55.421875 72.90625 
L 64.984375 72.90625 
L 64.984375 0 
L 51.703125 0 
L 19.390625 60.984375 
L 19.390625 0 
L 9.8125 0 
z
" id="DejaVuSans-78"/>
      <path d="M 5.515625 54.6875 
L 48.1875 54.6875 
L 48.1875 46.484375 
L 14.40625 7.171875 
L 48.1875 7.171875 
L 48.1875 0 
L 4.296875 0 
L 4.296875 8.203125 
L 38.09375 47.515625 
L 5.515625 47.515625 
z
" id="DejaVuSans-122"/>
     </defs>
     <use xlink:href="#DejaVuSans-78"/>
     <use x="74.804688" xlink:href="#DejaVuSans-111"/>
     <use x="135.986328" xlink:href="#DejaVuSans-114"/>
     <use x="175.349609" xlink:href="#DejaVuSans-109"/>
     <use x="272.761719" xlink:href="#DejaVuSans-97"/>
     <use x="334.041016" xlink:href="#DejaVuSans-108"/>
     <use x="361.824219" xlink:href="#DejaVuSans-105"/>
     <use x="389.607422" xlink:href="#DejaVuSans-122"/>
     <use x="442.097656" xlink:href="#DejaVuSans-101"/>
     <use x="503.621094" xlink:href="#DejaVuSans-100"/>
     <use x="567.097656" xlink:href="#DejaVuSans-32"/>
     <use x="598.884766" xlink:href="#DejaVuSans-82"/>
     <use x="668.367188" xlink:href="#DejaVuSans-77"/>
     <use x="754.646484" xlink:href="#DejaVuSans-83"/>
     <use x="818.123047" xlink:href="#DejaVuSans-69"/>
     <use x="881.306641" xlink:href="#DejaVuSans-32"/>
     <use x="913.09375" xlink:href="#DejaVuSans-98"/>
     <use x="976.570312" xlink:href="#DejaVuSans-111"/>
     <use x="1034.626953" xlink:href="#DejaVuSans-120"/>
     <use x="1093.806641" xlink:href="#DejaVuSans-112"/>
     <use x="1157.283203" xlink:href="#DejaVuSans-108"/>
     <use x="1185.066406" xlink:href="#DejaVuSans-111"/>
     <use x="1246.248047" xlink:href="#DejaVuSans-116"/>
     <use x="1285.457031" xlink:href="#DejaVuSans-58"/>
     <use x="1319.148438" xlink:href="#DejaVuSans-32"/>
     <use x="1350.935547" xlink:href="#DejaVuSans-116"/>
     <use x="1390.144531" xlink:href="#DejaVuSans-114"/>
     <use x="1431.257812" xlink:href="#DejaVuSans-97"/>
     <use x="1492.537109" xlink:href="#DejaVuSans-105"/>
     <use x="1520.320312" xlink:href="#DejaVuSans-110"/>
     <use x="1583.699219" xlink:href="#DejaVuSans-105"/>
     <use x="1611.482422" xlink:href="#DejaVuSans-110"/>
     <use x="1674.861328" xlink:href="#DejaVuSans-103"/>
     <use x="1738.337891" xlink:href="#DejaVuSans-32"/>
     <use x="1770.125" xlink:href="#DejaVuSans-100"/>
     <use x="1833.601562" xlink:href="#DejaVuSans-97"/>
     <use x="1894.880859" xlink:href="#DejaVuSans-116"/>
     <use x="1934.089844" xlink:href="#DejaVuSans-97"/>
     <use x="1995.369141" xlink:href="#DejaVuSans-115"/>
     <use x="2047.46875" xlink:href="#DejaVuSans-101"/>
     <use x="2108.992188" xlink:href="#DejaVuSans-116"/>
    </g>
   </g>
  </g>
  <g id="axes_3">
   <g id="patch_24">
    <path d="M 172.8 615.8088 
L 659.781818 615.8088 
L 659.781818 373.6368 
L 172.8 373.6368 
z
" style="fill:#ffffff;"/>
   </g>
   <g id="matplotlib.axis_5">
    <g id="xtick_13">
     <g id="line2d_87">
      <g>
       <use style="stroke:#000000;stroke-width:0.8;" x="213.381818" xlink:href="#m39f7c35820" y="615.8088"/>
      </g>
     </g>
     <g id="text_32">
      <!-- 1 -->
      <g transform="translate(210.200568 630.407237)scale(0.1 -0.1)">
       <use xlink:href="#DejaVuSans-49"/>
      </g>
     </g>
    </g>
    <g id="xtick_14">
     <g id="line2d_88">
      <g>
       <use style="stroke:#000000;stroke-width:0.8;" x="294.545455" xlink:href="#m39f7c35820" y="615.8088"/>
      </g>
     </g>
     <g id="text_33">
      <!-- 2 -->
      <g transform="translate(291.364205 630.407237)scale(0.1 -0.1)">
       <use xlink:href="#DejaVuSans-50"/>
      </g>
     </g>
    </g>
    <g id="xtick_15">
     <g id="line2d_89">
      <g>
       <use style="stroke:#000000;stroke-width:0.8;" x="375.709091" xlink:href="#m39f7c35820" y="615.8088"/>
      </g>
     </g>
     <g id="text_34">
      <!-- 3 -->
      <g transform="translate(372.527841 630.407237)scale(0.1 -0.1)">
       <use xlink:href="#DejaVuSans-51"/>
      </g>
     </g>
    </g>
    <g id="xtick_16">
     <g id="line2d_90">
      <g>
       <use style="stroke:#000000;stroke-width:0.8;" x="456.872727" xlink:href="#m39f7c35820" y="615.8088"/>
      </g>
     </g>
     <g id="text_35">
      <!-- 4 -->
      <g transform="translate(453.691477 630.407237)scale(0.1 -0.1)">
       <use xlink:href="#DejaVuSans-52"/>
      </g>
     </g>
    </g>
    <g id="xtick_17">
     <g id="line2d_91">
      <g>
       <use style="stroke:#000000;stroke-width:0.8;" x="538.036364" xlink:href="#m39f7c35820" y="615.8088"/>
      </g>
     </g>
     <g id="text_36">
      <!-- 5 -->
      <g transform="translate(534.855114 630.407237)scale(0.1 -0.1)">
       <use xlink:href="#DejaVuSans-53"/>
      </g>
     </g>
    </g>
    <g id="xtick_18">
     <g id="line2d_92">
      <g>
       <use style="stroke:#000000;stroke-width:0.8;" x="619.2" xlink:href="#m39f7c35820" y="615.8088"/>
      </g>
     </g>
     <g id="text_37">
      <!-- 6 -->
      <g transform="translate(616.01875 630.407237)scale(0.1 -0.1)">
       <use xlink:href="#DejaVuSans-54"/>
      </g>
     </g>
    </g>
   </g>
   <g id="matplotlib.axis_6">
    <g id="ytick_15">
     <g id="line2d_93">
      <g>
       <use style="stroke:#000000;stroke-width:0.8;" x="172.8" xlink:href="#mf8bf9c8e41" y="615.8088"/>
      </g>
     </g>
     <g id="text_38">
      <!-- 0 -->
      <g transform="translate(159.4375 619.608019)scale(0.1 -0.1)">
       <use xlink:href="#DejaVuSans-48"/>
      </g>
     </g>
    </g>
    <g id="ytick_16">
     <g id="line2d_94">
      <g>
       <use style="stroke:#000000;stroke-width:0.8;" x="172.8" xlink:href="#mf8bf9c8e41" y="575.4468"/>
      </g>
     </g>
     <g id="text_39">
      <!-- 10 -->
      <g transform="translate(153.075 579.246019)scale(0.1 -0.1)">
       <use xlink:href="#DejaVuSans-49"/>
       <use x="63.623047" xlink:href="#DejaVuSans-48"/>
      </g>
     </g>
    </g>
    <g id="ytick_17">
     <g id="line2d_95">
      <g>
       <use style="stroke:#000000;stroke-width:0.8;" x="172.8" xlink:href="#mf8bf9c8e41" y="535.0848"/>
      </g>
     </g>
     <g id="text_40">
      <!-- 20 -->
      <g transform="translate(153.075 538.884019)scale(0.1 -0.1)">
       <use xlink:href="#DejaVuSans-50"/>
       <use x="63.623047" xlink:href="#DejaVuSans-48"/>
      </g>
     </g>
    </g>
    <g id="ytick_18">
     <g id="line2d_96">
      <g>
       <use style="stroke:#000000;stroke-width:0.8;" x="172.8" xlink:href="#mf8bf9c8e41" y="494.7228"/>
      </g>
     </g>
     <g id="text_41">
      <!-- 30 -->
      <g transform="translate(153.075 498.522019)scale(0.1 -0.1)">
       <use xlink:href="#DejaVuSans-51"/>
       <use x="63.623047" xlink:href="#DejaVuSans-48"/>
      </g>
     </g>
    </g>
    <g id="ytick_19">
     <g id="line2d_97">
      <g>
       <use style="stroke:#000000;stroke-width:0.8;" x="172.8" xlink:href="#mf8bf9c8e41" y="454.3608"/>
      </g>
     </g>
     <g id="text_42">
      <!-- 40 -->
      <g transform="translate(153.075 458.160019)scale(0.1 -0.1)">
       <use xlink:href="#DejaVuSans-52"/>
       <use x="63.623047" xlink:href="#DejaVuSans-48"/>
      </g>
     </g>
    </g>
    <g id="ytick_20">
     <g id="line2d_98">
      <g>
       <use style="stroke:#000000;stroke-width:0.8;" x="172.8" xlink:href="#mf8bf9c8e41" y="413.9988"/>
      </g>
     </g>
     <g id="text_43">
      <!-- 50 -->
      <g transform="translate(153.075 417.798019)scale(0.1 -0.1)">
       <use xlink:href="#DejaVuSans-53"/>
       <use x="63.623047" xlink:href="#DejaVuSans-48"/>
      </g>
     </g>
    </g>
    <g id="ytick_21">
     <g id="line2d_99">
      <g>
       <use style="stroke:#000000;stroke-width:0.8;" x="172.8" xlink:href="#mf8bf9c8e41" y="373.6368"/>
      </g>
     </g>
     <g id="text_44">
      <!-- 60 -->
      <g transform="translate(153.075 377.436019)scale(0.1 -0.1)">
       <use xlink:href="#DejaVuSans-54"/>
       <use x="63.623047" xlink:href="#DejaVuSans-48"/>
      </g>
     </g>
    </g>
    <g id="text_45">
     <!-- degrees -->
     <g transform="translate(146.995312 514.848581)rotate(-90)scale(0.1 -0.1)">
      <use xlink:href="#DejaVuSans-100"/>
      <use x="63.476562" xlink:href="#DejaVuSans-101"/>
      <use x="125" xlink:href="#DejaVuSans-103"/>
      <use x="188.476562" xlink:href="#DejaVuSans-114"/>
      <use x="227.339844" xlink:href="#DejaVuSans-101"/>
      <use x="288.863281" xlink:href="#DejaVuSans-101"/>
      <use x="350.386719" xlink:href="#DejaVuSans-115"/>
     </g>
    </g>
   </g>
   <g id="line2d_100">
    <path clip-path="url(#p69265d10d7)" d="M 213.381818 560.95132 
L 213.381818 586.187022 
" style="fill:none;stroke:#000000;stroke-linecap:square;"/>
   </g>
   <g id="line2d_101">
    <path clip-path="url(#p69265d10d7)" d="M 213.381818 532.959641 
L 213.381818 495.943965 
" style="fill:none;stroke:#000000;stroke-linecap:square;"/>
   </g>
   <g id="line2d_102">
    <path clip-path="url(#p69265d10d7)" d="M 203.236364 586.187022 
L 223.527273 586.187022 
" style="fill:none;stroke:#000000;stroke-linecap:square;"/>
   </g>
   <g id="line2d_103">
    <path clip-path="url(#p69265d10d7)" d="M 203.236364 495.943965 
L 223.527273 495.943965 
" style="fill:none;stroke:#000000;stroke-linecap:square;"/>
   </g>
   <g id="line2d_104">
    <path clip-path="url(#p69265d10d7)" d="M 294.545455 577.611694 
L 294.545455 600.188339 
" style="fill:none;stroke:#000000;stroke-linecap:square;"/>
   </g>
   <g id="line2d_105">
    <path clip-path="url(#p69265d10d7)" d="M 294.545455 547.23645 
L 294.545455 505.434023 
" style="fill:none;stroke:#000000;stroke-linecap:square;"/>
   </g>
   <g id="line2d_106">
    <path clip-path="url(#p69265d10d7)" d="M 284.4 600.188339 
L 304.690909 600.188339 
" style="fill:none;stroke:#000000;stroke-linecap:square;"/>
   </g>
   <g id="line2d_107">
    <path clip-path="url(#p69265d10d7)" d="M 284.4 505.434023 
L 304.690909 505.434023 
" style="fill:none;stroke:#000000;stroke-linecap:square;"/>
   </g>
   <g id="line2d_108">
    <path clip-path="url(#p69265d10d7)" d="M 375.709091 589.82169 
L 375.709091 599.531024 
" style="fill:none;stroke:#000000;stroke-linecap:square;"/>
   </g>
   <g id="line2d_109">
    <path clip-path="url(#p69265d10d7)" d="M 375.709091 579.672033 
L 375.709091 564.55725 
" style="fill:none;stroke:#000000;stroke-linecap:square;"/>
   </g>
   <g id="line2d_110">
    <path clip-path="url(#p69265d10d7)" d="M 365.563636 599.531024 
L 385.854545 599.531024 
" style="fill:none;stroke:#000000;stroke-linecap:square;"/>
   </g>
   <g id="line2d_111">
    <path clip-path="url(#p69265d10d7)" d="M 365.563636 564.55725 
L 385.854545 564.55725 
" style="fill:none;stroke:#000000;stroke-linecap:square;"/>
   </g>
   <g id="line2d_112">
    <path clip-path="url(#p69265d10d7)" d="M 456.872727 561.129455 
L 456.872727 584.879834 
" style="fill:none;stroke:#000000;stroke-linecap:square;"/>
   </g>
   <g id="line2d_113">
    <path clip-path="url(#p69265d10d7)" d="M 456.872727 536.809789 
L 456.872727 505.107379 
" style="fill:none;stroke:#000000;stroke-linecap:square;"/>
   </g>
   <g id="line2d_114">
    <path clip-path="url(#p69265d10d7)" d="M 446.727273 584.879834 
L 467.018182 584.879834 
" style="fill:none;stroke:#000000;stroke-linecap:square;"/>
   </g>
   <g id="line2d_115">
    <path clip-path="url(#p69265d10d7)" d="M 446.727273 505.107379 
L 467.018182 505.107379 
" style="fill:none;stroke:#000000;stroke-linecap:square;"/>
   </g>
   <g id="line2d_116">
    <path clip-path="url(#p69265d10d7)" d="M 538.036364 575.022406 
L 538.036364 598.863761 
" style="fill:none;stroke:#000000;stroke-linecap:square;"/>
   </g>
   <g id="line2d_117">
    <path clip-path="url(#p69265d10d7)" d="M 538.036364 547.426809 
L 538.036364 506.820771 
" style="fill:none;stroke:#000000;stroke-linecap:square;"/>
   </g>
   <g id="line2d_118">
    <path clip-path="url(#p69265d10d7)" d="M 527.890909 598.863761 
L 548.181818 598.863761 
" style="fill:none;stroke:#000000;stroke-linecap:square;"/>
   </g>
   <g id="line2d_119">
    <path clip-path="url(#p69265d10d7)" d="M 527.890909 506.820771 
L 548.181818 506.820771 
" style="fill:none;stroke:#000000;stroke-linecap:square;"/>
   </g>
   <g id="line2d_120">
    <path clip-path="url(#p69265d10d7)" d="M 619.2 590.7751 
L 619.2 605.279396 
" style="fill:none;stroke:#000000;stroke-linecap:square;"/>
   </g>
   <g id="line2d_121">
    <path clip-path="url(#p69265d10d7)" d="M 619.2 579.904396 
L 619.2 563.636991 
" style="fill:none;stroke:#000000;stroke-linecap:square;"/>
   </g>
   <g id="line2d_122">
    <path clip-path="url(#p69265d10d7)" d="M 609.054545 605.279396 
L 629.345455 605.279396 
" style="fill:none;stroke:#000000;stroke-linecap:square;"/>
   </g>
   <g id="line2d_123">
    <path clip-path="url(#p69265d10d7)" d="M 609.054545 563.636991 
L 629.345455 563.636991 
" style="fill:none;stroke:#000000;stroke-linecap:square;"/>
   </g>
   <g id="patch_25">
    <path clip-path="url(#p69265d10d7)" d="M 193.090909 560.95132 
L 233.672727 560.95132 
L 233.672727 532.959641 
L 193.090909 532.959641 
L 193.090909 560.95132 
z
" style="fill:#ffc0cb;stroke:#000000;stroke-linejoin:miter;"/>
   </g>
   <g id="patch_26">
    <path clip-path="url(#p69265d10d7)" d="M 274.254545 577.611694 
L 314.836364 577.611694 
L 314.836364 547.23645 
L 274.254545 547.23645 
L 274.254545 577.611694 
z
" style="fill:#add8e6;stroke:#000000;stroke-linejoin:miter;"/>
   </g>
   <g id="patch_27">
    <path clip-path="url(#p69265d10d7)" d="M 355.418182 589.82169 
L 396 589.82169 
L 396 579.672033 
L 355.418182 579.672033 
L 355.418182 589.82169 
z
" style="fill:#90ee90;stroke:#000000;stroke-linejoin:miter;"/>
   </g>
   <g id="patch_28">
    <path clip-path="url(#p69265d10d7)" d="M 436.581818 561.129455 
L 477.163636 561.129455 
L 477.163636 536.809789 
L 436.581818 536.809789 
L 436.581818 561.129455 
z
" style="fill:#ffc0cb;stroke:#000000;stroke-linejoin:miter;"/>
   </g>
   <g id="patch_29">
    <path clip-path="url(#p69265d10d7)" d="M 517.745455 575.022406 
L 558.327273 575.022406 
L 558.327273 547.426809 
L 517.745455 547.426809 
L 517.745455 575.022406 
z
" style="fill:#add8e6;stroke:#000000;stroke-linejoin:miter;"/>
   </g>
   <g id="patch_30">
    <path clip-path="url(#p69265d10d7)" d="M 598.909091 590.7751 
L 639.490909 590.7751 
L 639.490909 579.904396 
L 598.909091 579.904396 
L 598.909091 590.7751 
z
" style="fill:#90ee90;stroke:#000000;stroke-linejoin:miter;"/>
   </g>
   <g id="line2d_124">
    <path clip-path="url(#p69265d10d7)" d="M 193.090909 546.698218 
L 233.672727 546.698218 
" style="fill:none;stroke:#ff7f0e;stroke-linecap:square;"/>
   </g>
   <g id="line2d_125">
    <path clip-path="url(#p69265d10d7)" d="M 274.254545 562.77494 
L 314.836364 562.77494 
" style="fill:none;stroke:#ff7f0e;stroke-linecap:square;"/>
   </g>
   <g id="line2d_126">
    <path clip-path="url(#p69265d10d7)" d="M 355.418182 585.937012 
L 396 585.937012 
" style="fill:none;stroke:#ff7f0e;stroke-linecap:square;"/>
   </g>
   <g id="line2d_127">
    <path clip-path="url(#p69265d10d7)" d="M 436.581818 548.614016 
L 477.163636 548.614016 
" style="fill:none;stroke:#ff7f0e;stroke-linecap:square;"/>
   </g>
   <g id="line2d_128">
    <path clip-path="url(#p69265d10d7)" d="M 517.745455 561.489778 
L 558.327273 561.489778 
" style="fill:none;stroke:#ff7f0e;stroke-linecap:square;"/>
   </g>
   <g id="line2d_129">
    <path clip-path="url(#p69265d10d7)" d="M 598.909091 586.180217 
L 639.490909 586.180217 
" style="fill:none;stroke:#ff7f0e;stroke-linecap:square;"/>
   </g>
   <g id="patch_31">
    <path d="M 172.8 615.8088 
L 172.8 373.6368 
" style="fill:none;stroke:#000000;stroke-linecap:square;stroke-linejoin:miter;stroke-width:0.8;"/>
   </g>
   <g id="patch_32">
    <path d="M 659.781818 615.8088 
L 659.781818 373.6368 
" style="fill:none;stroke:#000000;stroke-linecap:square;stroke-linejoin:miter;stroke-width:0.8;"/>
   </g>
   <g id="patch_33">
    <path d="M 172.8 615.8088 
L 659.781818 615.8088 
" style="fill:none;stroke:#000000;stroke-linecap:square;stroke-linejoin:miter;stroke-width:0.8;"/>
   </g>
   <g id="patch_34">
    <path d="M 172.8 373.6368 
L 659.781818 373.6368 
" style="fill:none;stroke:#000000;stroke-linecap:square;stroke-linejoin:miter;stroke-width:0.8;"/>
   </g>
   <g id="text_46">
    <!-- RMSE boxplot: test dataset -->
    <g transform="translate(335.052784 367.6368)scale(0.12 -0.12)">
     <use xlink:href="#DejaVuSans-82"/>
     <use x="69.482422" xlink:href="#DejaVuSans-77"/>
     <use x="155.761719" xlink:href="#DejaVuSans-83"/>
     <use x="219.238281" xlink:href="#DejaVuSans-69"/>
     <use x="282.421875" xlink:href="#DejaVuSans-32"/>
     <use x="314.208984" xlink:href="#DejaVuSans-98"/>
     <use x="377.685547" xlink:href="#DejaVuSans-111"/>
     <use x="435.742188" xlink:href="#DejaVuSans-120"/>
     <use x="494.921875" xlink:href="#DejaVuSans-112"/>
     <use x="558.398438" xlink:href="#DejaVuSans-108"/>
     <use x="586.181641" xlink:href="#DejaVuSans-111"/>
     <use x="647.363281" xlink:href="#DejaVuSans-116"/>
     <use x="686.572266" xlink:href="#DejaVuSans-58"/>
     <use x="720.263672" xlink:href="#DejaVuSans-32"/>
     <use x="752.050781" xlink:href="#DejaVuSans-116"/>
     <use x="791.259766" xlink:href="#DejaVuSans-101"/>
     <use x="852.783203" xlink:href="#DejaVuSans-115"/>
     <use x="904.882812" xlink:href="#DejaVuSans-116"/>
     <use x="944.091797" xlink:href="#DejaVuSans-32"/>
     <use x="975.878906" xlink:href="#DejaVuSans-100"/>
     <use x="1039.355469" xlink:href="#DejaVuSans-97"/>
     <use x="1100.634766" xlink:href="#DejaVuSans-116"/>
     <use x="1139.84375" xlink:href="#DejaVuSans-97"/>
     <use x="1201.123047" xlink:href="#DejaVuSans-115"/>
     <use x="1253.222656" xlink:href="#DejaVuSans-101"/>
     <use x="1314.746094" xlink:href="#DejaVuSans-116"/>
    </g>
   </g>
  </g>
  <g id="axes_4">
   <g id="patch_35">
    <path d="M 757.178182 615.8088 
L 1244.16 615.8088 
L 1244.16 373.6368 
L 757.178182 373.6368 
z
" style="fill:#ffffff;"/>
   </g>
   <g id="matplotlib.axis_7">
    <g id="xtick_19">
     <g id="line2d_130">
      <g>
       <use style="stroke:#000000;stroke-width:0.8;" x="797.76" xlink:href="#m39f7c35820" y="615.8088"/>
      </g>
     </g>
     <g id="text_47">
      <!-- 1 -->
      <g transform="translate(794.57875 630.407237)scale(0.1 -0.1)">
       <use xlink:href="#DejaVuSans-49"/>
      </g>
     </g>
    </g>
    <g id="xtick_20">
     <g id="line2d_131">
      <g>
       <use style="stroke:#000000;stroke-width:0.8;" x="878.923636" xlink:href="#m39f7c35820" y="615.8088"/>
      </g>
     </g>
     <g id="text_48">
      <!-- 2 -->
      <g transform="translate(875.742386 630.407237)scale(0.1 -0.1)">
       <use xlink:href="#DejaVuSans-50"/>
      </g>
     </g>
    </g>
    <g id="xtick_21">
     <g id="line2d_132">
      <g>
       <use style="stroke:#000000;stroke-width:0.8;" x="960.087273" xlink:href="#m39f7c35820" y="615.8088"/>
      </g>
     </g>
     <g id="text_49">
      <!-- 3 -->
      <g transform="translate(956.906023 630.407237)scale(0.1 -0.1)">
       <use xlink:href="#DejaVuSans-51"/>
      </g>
     </g>
    </g>
    <g id="xtick_22">
     <g id="line2d_133">
      <g>
       <use style="stroke:#000000;stroke-width:0.8;" x="1041.250909" xlink:href="#m39f7c35820" y="615.8088"/>
      </g>
     </g>
     <g id="text_50">
      <!-- 4 -->
      <g transform="translate(1038.069659 630.407237)scale(0.1 -0.1)">
       <use xlink:href="#DejaVuSans-52"/>
      </g>
     </g>
    </g>
    <g id="xtick_23">
     <g id="line2d_134">
      <g>
       <use style="stroke:#000000;stroke-width:0.8;" x="1122.414545" xlink:href="#m39f7c35820" y="615.8088"/>
      </g>
     </g>
     <g id="text_51">
      <!-- 5 -->
      <g transform="translate(1119.233295 630.407237)scale(0.1 -0.1)">
       <use xlink:href="#DejaVuSans-53"/>
      </g>
     </g>
    </g>
    <g id="xtick_24">
     <g id="line2d_135">
      <g>
       <use style="stroke:#000000;stroke-width:0.8;" x="1203.578182" xlink:href="#m39f7c35820" y="615.8088"/>
      </g>
     </g>
     <g id="text_52">
      <!-- 6 -->
      <g transform="translate(1200.396932 630.407237)scale(0.1 -0.1)">
       <use xlink:href="#DejaVuSans-54"/>
      </g>
     </g>
    </g>
    <g id="text_53">
     <!-- Column number -->
     <g transform="translate(960.41831 644.085362)scale(0.1 -0.1)">
      <use xlink:href="#DejaVuSans-67"/>
      <use x="69.824219" xlink:href="#DejaVuSans-111"/>
      <use x="131.005859" xlink:href="#DejaVuSans-108"/>
      <use x="158.789062" xlink:href="#DejaVuSans-117"/>
      <use x="222.167969" xlink:href="#DejaVuSans-109"/>
      <use x="319.580078" xlink:href="#DejaVuSans-110"/>
      <use x="382.958984" xlink:href="#DejaVuSans-32"/>
      <use x="414.746094" xlink:href="#DejaVuSans-110"/>
      <use x="478.125" xlink:href="#DejaVuSans-117"/>
      <use x="541.503906" xlink:href="#DejaVuSans-109"/>
      <use x="638.916016" xlink:href="#DejaVuSans-98"/>
      <use x="702.392578" xlink:href="#DejaVuSans-101"/>
      <use x="763.916016" xlink:href="#DejaVuSans-114"/>
     </g>
    </g>
   </g>
   <g id="matplotlib.axis_8">
    <g id="ytick_22">
     <g id="line2d_136">
      <g>
       <use style="stroke:#000000;stroke-width:0.8;" x="757.178182" xlink:href="#mf8bf9c8e41" y="615.8088"/>
      </g>
     </g>
     <g id="text_54">
      <!-- 0 -->
      <g transform="translate(743.815682 619.608019)scale(0.1 -0.1)">
       <use xlink:href="#DejaVuSans-48"/>
      </g>
     </g>
    </g>
    <g id="ytick_23">
     <g id="line2d_137">
      <g>
       <use style="stroke:#000000;stroke-width:0.8;" x="757.178182" xlink:href="#mf8bf9c8e41" y="575.4468"/>
      </g>
     </g>
     <g id="text_55">
      <!-- 10 -->
      <g transform="translate(737.453182 579.246019)scale(0.1 -0.1)">
       <use xlink:href="#DejaVuSans-49"/>
       <use x="63.623047" xlink:href="#DejaVuSans-48"/>
      </g>
     </g>
    </g>
    <g id="ytick_24">
     <g id="line2d_138">
      <g>
       <use style="stroke:#000000;stroke-width:0.8;" x="757.178182" xlink:href="#mf8bf9c8e41" y="535.0848"/>
      </g>
     </g>
     <g id="text_56">
      <!-- 20 -->
      <g transform="translate(737.453182 538.884019)scale(0.1 -0.1)">
       <use xlink:href="#DejaVuSans-50"/>
       <use x="63.623047" xlink:href="#DejaVuSans-48"/>
      </g>
     </g>
    </g>
    <g id="ytick_25">
     <g id="line2d_139">
      <g>
       <use style="stroke:#000000;stroke-width:0.8;" x="757.178182" xlink:href="#mf8bf9c8e41" y="494.7228"/>
      </g>
     </g>
     <g id="text_57">
      <!-- 30 -->
      <g transform="translate(737.453182 498.522019)scale(0.1 -0.1)">
       <use xlink:href="#DejaVuSans-51"/>
       <use x="63.623047" xlink:href="#DejaVuSans-48"/>
      </g>
     </g>
    </g>
    <g id="ytick_26">
     <g id="line2d_140">
      <g>
       <use style="stroke:#000000;stroke-width:0.8;" x="757.178182" xlink:href="#mf8bf9c8e41" y="454.3608"/>
      </g>
     </g>
     <g id="text_58">
      <!-- 40 -->
      <g transform="translate(737.453182 458.160019)scale(0.1 -0.1)">
       <use xlink:href="#DejaVuSans-52"/>
       <use x="63.623047" xlink:href="#DejaVuSans-48"/>
      </g>
     </g>
    </g>
    <g id="ytick_27">
     <g id="line2d_141">
      <g>
       <use style="stroke:#000000;stroke-width:0.8;" x="757.178182" xlink:href="#mf8bf9c8e41" y="413.9988"/>
      </g>
     </g>
     <g id="text_59">
      <!-- 50 -->
      <g transform="translate(737.453182 417.798019)scale(0.1 -0.1)">
       <use xlink:href="#DejaVuSans-53"/>
       <use x="63.623047" xlink:href="#DejaVuSans-48"/>
      </g>
     </g>
    </g>
    <g id="ytick_28">
     <g id="line2d_142">
      <g>
       <use style="stroke:#000000;stroke-width:0.8;" x="757.178182" xlink:href="#mf8bf9c8e41" y="373.6368"/>
      </g>
     </g>
     <g id="text_60">
      <!-- 60 -->
      <g transform="translate(737.453182 377.436019)scale(0.1 -0.1)">
       <use xlink:href="#DejaVuSans-54"/>
       <use x="63.623047" xlink:href="#DejaVuSans-48"/>
      </g>
     </g>
    </g>
    <g id="text_61">
     <!-- percentage -->
     <g transform="translate(731.373494 523.186081)rotate(-90)scale(0.1 -0.1)">
      <use xlink:href="#DejaVuSans-112"/>
      <use x="63.476562" xlink:href="#DejaVuSans-101"/>
      <use x="125" xlink:href="#DejaVuSans-114"/>
      <use x="163.863281" xlink:href="#DejaVuSans-99"/>
      <use x="218.84375" xlink:href="#DejaVuSans-101"/>
      <use x="280.367188" xlink:href="#DejaVuSans-110"/>
      <use x="343.746094" xlink:href="#DejaVuSans-116"/>
      <use x="382.955078" xlink:href="#DejaVuSans-97"/>
      <use x="444.234375" xlink:href="#DejaVuSans-103"/>
      <use x="507.710938" xlink:href="#DejaVuSans-101"/>
     </g>
    </g>
   </g>
   <g id="line2d_143">
    <path clip-path="url(#p6375b7df41)" d="M 797.76 612.222372 
L 797.76 614.286635 
" style="fill:none;stroke:#000000;stroke-linecap:square;"/>
   </g>
   <g id="line2d_144">
    <path clip-path="url(#p6375b7df41)" d="M 797.76 568.250684 
L 797.76 502.584645 
" style="fill:none;stroke:#000000;stroke-linecap:square;"/>
   </g>
   <g id="line2d_145">
    <path clip-path="url(#p6375b7df41)" d="M 787.614545 614.286635 
L 807.905455 614.286635 
" style="fill:none;stroke:#000000;stroke-linecap:square;"/>
   </g>
   <g id="line2d_146">
    <path clip-path="url(#p6375b7df41)" d="M 787.614545 502.584645 
L 807.905455 502.584645 
" style="fill:none;stroke:#000000;stroke-linecap:square;"/>
   </g>
   <g id="line2d_147">
    <path clip-path="url(#p6375b7df41)" d="M 878.923636 612.254248 
L 878.923636 614.817927 
" style="fill:none;stroke:#000000;stroke-linecap:square;"/>
   </g>
   <g id="line2d_148">
    <path clip-path="url(#p6375b7df41)" d="M 878.923636 559.964362 
L 878.923636 481.900457 
" style="fill:none;stroke:#000000;stroke-linecap:square;"/>
   </g>
   <g id="line2d_149">
    <path clip-path="url(#p6375b7df41)" d="M 868.778182 614.817927 
L 889.069091 614.817927 
" style="fill:none;stroke:#000000;stroke-linecap:square;"/>
   </g>
   <g id="line2d_150">
    <path clip-path="url(#p6375b7df41)" d="M 868.778182 481.900457 
L 889.069091 481.900457 
" style="fill:none;stroke:#000000;stroke-linecap:square;"/>
   </g>
   <g id="line2d_151">
    <path clip-path="url(#p6375b7df41)" d="M 960.087273 604.768109 
L 960.087273 612.295518 
" style="fill:none;stroke:#000000;stroke-linecap:square;"/>
   </g>
   <g id="line2d_152">
    <path clip-path="url(#p6375b7df41)" d="M 960.087273 567.769721 
L 960.087273 512.971705 
" style="fill:none;stroke:#000000;stroke-linecap:square;"/>
   </g>
   <g id="line2d_153">
    <path clip-path="url(#p6375b7df41)" d="M 949.941818 612.295518 
L 970.232727 612.295518 
" style="fill:none;stroke:#000000;stroke-linecap:square;"/>
   </g>
   <g id="line2d_154">
    <path clip-path="url(#p6375b7df41)" d="M 949.941818 512.971705 
L 970.232727 512.971705 
" style="fill:none;stroke:#000000;stroke-linecap:square;"/>
   </g>
   <g id="line2d_155">
    <path clip-path="url(#p6375b7df41)" d="M 1041.250909 610.717304 
L 1041.250909 614.294464 
" style="fill:none;stroke:#000000;stroke-linecap:square;"/>
   </g>
   <g id="line2d_156">
    <path clip-path="url(#p6375b7df41)" d="M 1041.250909 502.937153 
L 1041.250909 341.908676 
" style="fill:none;stroke:#000000;stroke-linecap:square;"/>
   </g>
   <g id="line2d_157">
    <path clip-path="url(#p6375b7df41)" d="M 1031.105455 614.294464 
L 1051.396364 614.294464 
" style="fill:none;stroke:#000000;stroke-linecap:square;"/>
   </g>
   <g id="line2d_158">
    <path clip-path="url(#p6375b7df41)" d="M 1031.105455 341.908676 
L 1051.396364 341.908676 
" style="fill:none;stroke:#000000;stroke-linecap:square;"/>
   </g>
   <g id="line2d_159">
    <path clip-path="url(#p6375b7df41)" d="M 1122.414545 609.606755 
L 1122.414545 615.029816 
" style="fill:none;stroke:#000000;stroke-linecap:square;"/>
   </g>
   <g id="line2d_160">
    <path clip-path="url(#p6375b7df41)" d="M 1122.414545 513.367448 
L 1122.414545 369.196998 
" style="fill:none;stroke:#000000;stroke-linecap:square;"/>
   </g>
   <g id="line2d_161">
    <path clip-path="url(#p6375b7df41)" d="M 1112.269091 615.029816 
L 1132.56 615.029816 
" style="fill:none;stroke:#000000;stroke-linecap:square;"/>
   </g>
   <g id="line2d_162">
    <path clip-path="url(#p6375b7df41)" d="M 1112.269091 369.196998 
L 1132.56 369.196998 
" style="fill:none;stroke:#000000;stroke-linecap:square;"/>
   </g>
   <g id="line2d_163">
    <path clip-path="url(#p6375b7df41)" d="M 1203.578182 606.602681 
L 1203.578182 613.910897 
" style="fill:none;stroke:#000000;stroke-linecap:square;"/>
   </g>
   <g id="line2d_164">
    <path clip-path="url(#p6375b7df41)" d="M 1203.578182 564.534404 
L 1203.578182 501.457073 
" style="fill:none;stroke:#000000;stroke-linecap:square;"/>
   </g>
   <g id="line2d_165">
    <path clip-path="url(#p6375b7df41)" d="M 1193.432727 613.910897 
L 1213.723636 613.910897 
" style="fill:none;stroke:#000000;stroke-linecap:square;"/>
   </g>
   <g id="line2d_166">
    <path clip-path="url(#p6375b7df41)" d="M 1193.432727 501.457073 
L 1213.723636 501.457073 
" style="fill:none;stroke:#000000;stroke-linecap:square;"/>
   </g>
   <g id="patch_36">
    <path clip-path="url(#p6375b7df41)" d="M 777.469091 612.222372 
L 818.050909 612.222372 
L 818.050909 568.250684 
L 777.469091 568.250684 
L 777.469091 612.222372 
z
" style="fill:#ffc0cb;stroke:#000000;stroke-linejoin:miter;"/>
   </g>
   <g id="patch_37">
    <path clip-path="url(#p6375b7df41)" d="M 858.632727 612.254248 
L 899.214545 612.254248 
L 899.214545 559.964362 
L 858.632727 559.964362 
L 858.632727 612.254248 
z
" style="fill:#add8e6;stroke:#000000;stroke-linejoin:miter;"/>
   </g>
   <g id="patch_38">
    <path clip-path="url(#p6375b7df41)" d="M 939.796364 604.768109 
L 980.378182 604.768109 
L 980.378182 567.769721 
L 939.796364 567.769721 
L 939.796364 604.768109 
z
" style="fill:#90ee90;stroke:#000000;stroke-linejoin:miter;"/>
   </g>
   <g id="patch_39">
    <path clip-path="url(#p6375b7df41)" d="M 1020.96 610.717304 
L 1061.541818 610.717304 
L 1061.541818 502.937153 
L 1020.96 502.937153 
L 1020.96 610.717304 
z
" style="fill:#ffc0cb;stroke:#000000;stroke-linejoin:miter;"/>
   </g>
   <g id="patch_40">
    <path clip-path="url(#p6375b7df41)" d="M 1102.123636 609.606755 
L 1142.705455 609.606755 
L 1142.705455 513.367448 
L 1102.123636 513.367448 
L 1102.123636 609.606755 
z
" style="fill:#add8e6;stroke:#000000;stroke-linejoin:miter;"/>
   </g>
   <g id="patch_41">
    <path clip-path="url(#p6375b7df41)" d="M 1183.287273 606.602681 
L 1223.869091 606.602681 
L 1223.869091 564.534404 
L 1183.287273 564.534404 
L 1183.287273 606.602681 
z
" style="fill:#90ee90;stroke:#000000;stroke-linejoin:miter;"/>
   </g>
   <g id="line2d_167">
    <path clip-path="url(#p6375b7df41)" d="M 777.469091 609.419034 
L 818.050909 609.419034 
" style="fill:none;stroke:#ff7f0e;stroke-linecap:square;"/>
   </g>
   <g id="line2d_168">
    <path clip-path="url(#p6375b7df41)" d="M 858.632727 599.178721 
L 899.214545 599.178721 
" style="fill:none;stroke:#ff7f0e;stroke-linecap:square;"/>
   </g>
   <g id="line2d_169">
    <path clip-path="url(#p6375b7df41)" d="M 939.796364 594.937696 
L 980.378182 594.937696 
" style="fill:none;stroke:#ff7f0e;stroke-linecap:square;"/>
   </g>
   <g id="line2d_170">
    <path clip-path="url(#p6375b7df41)" d="M 1020.96 588.224683 
L 1061.541818 588.224683 
" style="fill:none;stroke:#ff7f0e;stroke-linecap:square;"/>
   </g>
   <g id="line2d_171">
    <path clip-path="url(#p6375b7df41)" d="M 1102.123636 583.450689 
L 1142.705455 583.450689 
" style="fill:none;stroke:#ff7f0e;stroke-linecap:square;"/>
   </g>
   <g id="line2d_172">
    <path clip-path="url(#p6375b7df41)" d="M 1183.287273 595.624053 
L 1223.869091 595.624053 
" style="fill:none;stroke:#ff7f0e;stroke-linecap:square;"/>
   </g>
   <g id="patch_42">
    <path d="M 757.178182 615.8088 
L 757.178182 373.6368 
" style="fill:none;stroke:#000000;stroke-linecap:square;stroke-linejoin:miter;stroke-width:0.8;"/>
   </g>
   <g id="patch_43">
    <path d="M 1244.16 615.8088 
L 1244.16 373.6368 
" style="fill:none;stroke:#000000;stroke-linecap:square;stroke-linejoin:miter;stroke-width:0.8;"/>
   </g>
   <g id="patch_44">
    <path d="M 757.178182 615.8088 
L 1244.16 615.8088 
" style="fill:none;stroke:#000000;stroke-linecap:square;stroke-linejoin:miter;stroke-width:0.8;"/>
   </g>
   <g id="patch_45">
    <path d="M 757.178182 373.6368 
L 1244.16 373.6368 
" style="fill:none;stroke:#000000;stroke-linecap:square;stroke-linejoin:miter;stroke-width:0.8;"/>
   </g>
   <g id="text_62">
    <!-- Normalized RMSE boxplot: training dataset -->
    <g transform="translate(871.775966 367.6368)scale(0.12 -0.12)">
     <use xlink:href="#DejaVuSans-78"/>
     <use x="74.804688" xlink:href="#DejaVuSans-111"/>
     <use x="135.986328" xlink:href="#DejaVuSans-114"/>
     <use x="175.349609" xlink:href="#DejaVuSans-109"/>
     <use x="272.761719" xlink:href="#DejaVuSans-97"/>
     <use x="334.041016" xlink:href="#DejaVuSans-108"/>
     <use x="361.824219" xlink:href="#DejaVuSans-105"/>
     <use x="389.607422" xlink:href="#DejaVuSans-122"/>
     <use x="442.097656" xlink:href="#DejaVuSans-101"/>
     <use x="503.621094" xlink:href="#DejaVuSans-100"/>
     <use x="567.097656" xlink:href="#DejaVuSans-32"/>
     <use x="598.884766" xlink:href="#DejaVuSans-82"/>
     <use x="668.367188" xlink:href="#DejaVuSans-77"/>
     <use x="754.646484" xlink:href="#DejaVuSans-83"/>
     <use x="818.123047" xlink:href="#DejaVuSans-69"/>
     <use x="881.306641" xlink:href="#DejaVuSans-32"/>
     <use x="913.09375" xlink:href="#DejaVuSans-98"/>
     <use x="976.570312" xlink:href="#DejaVuSans-111"/>
     <use x="1034.626953" xlink:href="#DejaVuSans-120"/>
     <use x="1093.806641" xlink:href="#DejaVuSans-112"/>
     <use x="1157.283203" xlink:href="#DejaVuSans-108"/>
     <use x="1185.066406" xlink:href="#DejaVuSans-111"/>
     <use x="1246.248047" xlink:href="#DejaVuSans-116"/>
     <use x="1285.457031" xlink:href="#DejaVuSans-58"/>
     <use x="1319.148438" xlink:href="#DejaVuSans-32"/>
     <use x="1350.935547" xlink:href="#DejaVuSans-116"/>
     <use x="1390.144531" xlink:href="#DejaVuSans-114"/>
     <use x="1431.257812" xlink:href="#DejaVuSans-97"/>
     <use x="1492.537109" xlink:href="#DejaVuSans-105"/>
     <use x="1520.320312" xlink:href="#DejaVuSans-110"/>
     <use x="1583.699219" xlink:href="#DejaVuSans-105"/>
     <use x="1611.482422" xlink:href="#DejaVuSans-110"/>
     <use x="1674.861328" xlink:href="#DejaVuSans-103"/>
     <use x="1738.337891" xlink:href="#DejaVuSans-32"/>
     <use x="1770.125" xlink:href="#DejaVuSans-100"/>
     <use x="1833.601562" xlink:href="#DejaVuSans-97"/>
     <use x="1894.880859" xlink:href="#DejaVuSans-116"/>
     <use x="1934.089844" xlink:href="#DejaVuSans-97"/>
     <use x="1995.369141" xlink:href="#DejaVuSans-115"/>
     <use x="2047.46875" xlink:href="#DejaVuSans-101"/>
     <use x="2108.992188" xlink:href="#DejaVuSans-116"/>
    </g>
   </g>
  </g>
 </g>
 <defs>
  <clipPath id="p00c316f79e">
   <rect height="242.172" width="486.981818" x="172.8" y="83.0304"/>
  </clipPath>
  <clipPath id="p418771e1e0">
   <rect height="242.172" width="486.981818" x="757.178182" y="83.0304"/>
  </clipPath>
  <clipPath id="p69265d10d7">
   <rect height="242.172" width="486.981818" x="172.8" y="373.6368"/>
  </clipPath>
  <clipPath id="p6375b7df41">
   <rect height="242.172" width="486.981818" x="757.178182" y="373.6368"/>
  </clipPath>
 </defs>
</svg>
