<?xml version="1.0" encoding="utf-8" standalone="no"?>
<!DOCTYPE svg PUBLIC "-//W3C//DTD SVG 1.1//EN"
  "http://www.w3.org/Graphics/SVG/1.1/DTD/svg11.dtd">
<!-- Created with matplotlib (https://matplotlib.org/) -->
<svg height="691.92pt" version="1.1" viewBox="0 0 1382.4 691.92" width="1382.4pt" xmlns="http://www.w3.org/2000/svg" xmlns:xlink="http://www.w3.org/1999/xlink">
 <metadata>
  <rdf:RDF xmlns:cc="http://creativecommons.org/ns#" xmlns:dc="http://purl.org/dc/elements/1.1/" xmlns:rdf="http://www.w3.org/1999/02/22-rdf-syntax-ns#">
   <cc:Work>
    <dc:type rdf:resource="http://purl.org/dc/dcmitype/StillImage"/>
    <dc:date>2021-11-23T10:03:13.843934</dc:date>
    <dc:format>image/svg+xml</dc:format>
    <dc:creator>
     <cc:Agent>
      <dc:title>Matplotlib v3.3.4, https://matplotlib.org/</dc:title>
     </cc:Agent>
    </dc:creator>
   </cc:Work>
  </rdf:RDF>
 </metadata>
 <defs>
  <style type="text/css">*{stroke-linecap:butt;stroke-linejoin:round;}</style>
 </defs>
 <g id="figure_1">
  <g id="patch_1">
   <path d="M 0 691.92 
L 1382.4 691.92 
L 1382.4 0 
L 0 0 
z
" style="fill:#ffffff;"/>
  </g>
  <g id="axes_1">
   <g id="patch_2">
    <path d="M 172.8 615.8088 
L 1244.16 615.8088 
L 1244.16 83.0304 
L 172.8 83.0304 
z
" style="fill:#ffffff;"/>
   </g>
   <g id="matplotlib.axis_1">
    <g id="xtick_1">
     <g id="line2d_1">
      <defs>
       <path d="M 0 0 
L 0 3.5 
" id="m3cad4b9f5e" style="stroke:#000000;stroke-width:0.8;"/>
      </defs>
      <g>
       <use style="stroke:#000000;stroke-width:0.8;" x="221.498182" xlink:href="#m3cad4b9f5e" y="615.8088"/>
      </g>
     </g>
     <g id="text_1">
      <!-- 0 -->
      <g transform="translate(218.316932 630.407237)scale(0.1 -0.1)">
       <defs>
        <path d="M 31.78125 66.40625 
Q 24.171875 66.40625 20.328125 58.90625 
Q 16.5 51.421875 16.5 36.375 
Q 16.5 21.390625 20.328125 13.890625 
Q 24.171875 6.390625 31.78125 6.390625 
Q 39.453125 6.390625 43.28125 13.890625 
Q 47.125 21.390625 47.125 36.375 
Q 47.125 51.421875 43.28125 58.90625 
Q 39.453125 66.40625 31.78125 66.40625 
z
M 31.78125 74.21875 
Q 44.046875 74.21875 50.515625 64.515625 
Q 56.984375 54.828125 56.984375 36.375 
Q 56.984375 17.96875 50.515625 8.265625 
Q 44.046875 -1.421875 31.78125 -1.421875 
Q 19.53125 -1.421875 13.0625 8.265625 
Q 6.59375 17.96875 6.59375 36.375 
Q 6.59375 54.828125 13.0625 64.515625 
Q 19.53125 74.21875 31.78125 74.21875 
z
" id="DejaVuSans-48"/>
       </defs>
       <use xlink:href="#DejaVuSans-48"/>
      </g>
     </g>
    </g>
    <g id="xtick_2">
     <g id="line2d_2">
      <g>
       <use style="stroke:#000000;stroke-width:0.8;" x="401.861818" xlink:href="#m3cad4b9f5e" y="615.8088"/>
      </g>
     </g>
     <g id="text_2">
      <!-- 100 -->
      <g transform="translate(392.318068 630.407237)scale(0.1 -0.1)">
       <defs>
        <path d="M 12.40625 8.296875 
L 28.515625 8.296875 
L 28.515625 63.921875 
L 10.984375 60.40625 
L 10.984375 69.390625 
L 28.421875 72.90625 
L 38.28125 72.90625 
L 38.28125 8.296875 
L 54.390625 8.296875 
L 54.390625 0 
L 12.40625 0 
z
" id="DejaVuSans-49"/>
       </defs>
       <use xlink:href="#DejaVuSans-49"/>
       <use x="63.623047" xlink:href="#DejaVuSans-48"/>
       <use x="127.246094" xlink:href="#DejaVuSans-48"/>
      </g>
     </g>
    </g>
    <g id="xtick_3">
     <g id="line2d_3">
      <g>
       <use style="stroke:#000000;stroke-width:0.8;" x="582.225455" xlink:href="#m3cad4b9f5e" y="615.8088"/>
      </g>
     </g>
     <g id="text_3">
      <!-- 200 -->
      <g transform="translate(572.681705 630.407237)scale(0.1 -0.1)">
       <defs>
        <path d="M 19.1875 8.296875 
L 53.609375 8.296875 
L 53.609375 0 
L 7.328125 0 
L 7.328125 8.296875 
Q 12.9375 14.109375 22.625 23.890625 
Q 32.328125 33.6875 34.8125 36.53125 
Q 39.546875 41.84375 41.421875 45.53125 
Q 43.3125 49.21875 43.3125 52.78125 
Q 43.3125 58.59375 39.234375 62.25 
Q 35.15625 65.921875 28.609375 65.921875 
Q 23.96875 65.921875 18.8125 64.3125 
Q 13.671875 62.703125 7.8125 59.421875 
L 7.8125 69.390625 
Q 13.765625 71.78125 18.9375 73 
Q 24.125 74.21875 28.421875 74.21875 
Q 39.75 74.21875 46.484375 68.546875 
Q 53.21875 62.890625 53.21875 53.421875 
Q 53.21875 48.921875 51.53125 44.890625 
Q 49.859375 40.875 45.40625 35.40625 
Q 44.1875 33.984375 37.640625 27.21875 
Q 31.109375 20.453125 19.1875 8.296875 
z
" id="DejaVuSans-50"/>
       </defs>
       <use xlink:href="#DejaVuSans-50"/>
       <use x="63.623047" xlink:href="#DejaVuSans-48"/>
       <use x="127.246094" xlink:href="#DejaVuSans-48"/>
      </g>
     </g>
    </g>
    <g id="xtick_4">
     <g id="line2d_4">
      <g>
       <use style="stroke:#000000;stroke-width:0.8;" x="762.589091" xlink:href="#m3cad4b9f5e" y="615.8088"/>
      </g>
     </g>
     <g id="text_4">
      <!-- 300 -->
      <g transform="translate(753.045341 630.407237)scale(0.1 -0.1)">
       <defs>
        <path d="M 40.578125 39.3125 
Q 47.65625 37.796875 51.625 33 
Q 55.609375 28.21875 55.609375 21.1875 
Q 55.609375 10.40625 48.1875 4.484375 
Q 40.765625 -1.421875 27.09375 -1.421875 
Q 22.515625 -1.421875 17.65625 -0.515625 
Q 12.796875 0.390625 7.625 2.203125 
L 7.625 11.71875 
Q 11.71875 9.328125 16.59375 8.109375 
Q 21.484375 6.890625 26.8125 6.890625 
Q 36.078125 6.890625 40.9375 10.546875 
Q 45.796875 14.203125 45.796875 21.1875 
Q 45.796875 27.640625 41.28125 31.265625 
Q 36.765625 34.90625 28.71875 34.90625 
L 20.21875 34.90625 
L 20.21875 43.015625 
L 29.109375 43.015625 
Q 36.375 43.015625 40.234375 45.921875 
Q 44.09375 48.828125 44.09375 54.296875 
Q 44.09375 59.90625 40.109375 62.90625 
Q 36.140625 65.921875 28.71875 65.921875 
Q 24.65625 65.921875 20.015625 65.03125 
Q 15.375 64.15625 9.8125 62.3125 
L 9.8125 71.09375 
Q 15.4375 72.65625 20.34375 73.4375 
Q 25.25 74.21875 29.59375 74.21875 
Q 40.828125 74.21875 47.359375 69.109375 
Q 53.90625 64.015625 53.90625 55.328125 
Q 53.90625 49.265625 50.4375 45.09375 
Q 46.96875 40.921875 40.578125 39.3125 
z
" id="DejaVuSans-51"/>
       </defs>
       <use xlink:href="#DejaVuSans-51"/>
       <use x="63.623047" xlink:href="#DejaVuSans-48"/>
       <use x="127.246094" xlink:href="#DejaVuSans-48"/>
      </g>
     </g>
    </g>
    <g id="xtick_5">
     <g id="line2d_5">
      <g>
       <use style="stroke:#000000;stroke-width:0.8;" x="942.952727" xlink:href="#m3cad4b9f5e" y="615.8088"/>
      </g>
     </g>
     <g id="text_5">
      <!-- 400 -->
      <g transform="translate(933.408977 630.407237)scale(0.1 -0.1)">
       <defs>
        <path d="M 37.796875 64.3125 
L 12.890625 25.390625 
L 37.796875 25.390625 
z
M 35.203125 72.90625 
L 47.609375 72.90625 
L 47.609375 25.390625 
L 58.015625 25.390625 
L 58.015625 17.1875 
L 47.609375 17.1875 
L 47.609375 0 
L 37.796875 0 
L 37.796875 17.1875 
L 4.890625 17.1875 
L 4.890625 26.703125 
z
" id="DejaVuSans-52"/>
       </defs>
       <use xlink:href="#DejaVuSans-52"/>
       <use x="63.623047" xlink:href="#DejaVuSans-48"/>
       <use x="127.246094" xlink:href="#DejaVuSans-48"/>
      </g>
     </g>
    </g>
    <g id="xtick_6">
     <g id="line2d_6">
      <g>
       <use style="stroke:#000000;stroke-width:0.8;" x="1123.316364" xlink:href="#m3cad4b9f5e" y="615.8088"/>
      </g>
     </g>
     <g id="text_6">
      <!-- 500 -->
      <g transform="translate(1113.772614 630.407237)scale(0.1 -0.1)">
       <defs>
        <path d="M 10.796875 72.90625 
L 49.515625 72.90625 
L 49.515625 64.59375 
L 19.828125 64.59375 
L 19.828125 46.734375 
Q 21.96875 47.46875 24.109375 47.828125 
Q 26.265625 48.1875 28.421875 48.1875 
Q 40.625 48.1875 47.75 41.5 
Q 54.890625 34.8125 54.890625 23.390625 
Q 54.890625 11.625 47.5625 5.09375 
Q 40.234375 -1.421875 26.90625 -1.421875 
Q 22.3125 -1.421875 17.546875 -0.640625 
Q 12.796875 0.140625 7.71875 1.703125 
L 7.71875 11.625 
Q 12.109375 9.234375 16.796875 8.0625 
Q 21.484375 6.890625 26.703125 6.890625 
Q 35.15625 6.890625 40.078125 11.328125 
Q 45.015625 15.765625 45.015625 23.390625 
Q 45.015625 31 40.078125 35.4375 
Q 35.15625 39.890625 26.703125 39.890625 
Q 22.75 39.890625 18.8125 39.015625 
Q 14.890625 38.140625 10.796875 36.28125 
z
" id="DejaVuSans-53"/>
       </defs>
       <use xlink:href="#DejaVuSans-53"/>
       <use x="63.623047" xlink:href="#DejaVuSans-48"/>
       <use x="127.246094" xlink:href="#DejaVuSans-48"/>
      </g>
     </g>
    </g>
    <g id="text_7">
     <!-- Number of training Epochs -->
     <g transform="translate(601.3475 648.644425)scale(0.16 -0.16)">
      <defs>
       <path d="M 9.8125 72.90625 
L 23.09375 72.90625 
L 55.421875 11.921875 
L 55.421875 72.90625 
L 64.984375 72.90625 
L 64.984375 0 
L 51.703125 0 
L 19.390625 60.984375 
L 19.390625 0 
L 9.8125 0 
z
" id="DejaVuSans-78"/>
       <path d="M 8.5 21.578125 
L 8.5 54.6875 
L 17.484375 54.6875 
L 17.484375 21.921875 
Q 17.484375 14.15625 20.5 10.265625 
Q 23.53125 6.390625 29.59375 6.390625 
Q 36.859375 6.390625 41.078125 11.03125 
Q 45.3125 15.671875 45.3125 23.6875 
L 45.3125 54.6875 
L 54.296875 54.6875 
L 54.296875 0 
L 45.3125 0 
L 45.3125 8.40625 
Q 42.046875 3.421875 37.71875 1 
Q 33.40625 -1.421875 27.6875 -1.421875 
Q 18.265625 -1.421875 13.375 4.4375 
Q 8.5 10.296875 8.5 21.578125 
z
M 31.109375 56 
z
" id="DejaVuSans-117"/>
       <path d="M 52 44.1875 
Q 55.375 50.25 60.0625 53.125 
Q 64.75 56 71.09375 56 
Q 79.640625 56 84.28125 50.015625 
Q 88.921875 44.046875 88.921875 33.015625 
L 88.921875 0 
L 79.890625 0 
L 79.890625 32.71875 
Q 79.890625 40.578125 77.09375 44.375 
Q 74.3125 48.1875 68.609375 48.1875 
Q 61.625 48.1875 57.5625 43.546875 
Q 53.515625 38.921875 53.515625 30.90625 
L 53.515625 0 
L 44.484375 0 
L 44.484375 32.71875 
Q 44.484375 40.625 41.703125 44.40625 
Q 38.921875 48.1875 33.109375 48.1875 
Q 26.21875 48.1875 22.15625 43.53125 
Q 18.109375 38.875 18.109375 30.90625 
L 18.109375 0 
L 9.078125 0 
L 9.078125 54.6875 
L 18.109375 54.6875 
L 18.109375 46.1875 
Q 21.1875 51.21875 25.484375 53.609375 
Q 29.78125 56 35.6875 56 
Q 41.65625 56 45.828125 52.96875 
Q 50 49.953125 52 44.1875 
z
" id="DejaVuSans-109"/>
       <path d="M 48.6875 27.296875 
Q 48.6875 37.203125 44.609375 42.84375 
Q 40.53125 48.484375 33.40625 48.484375 
Q 26.265625 48.484375 22.1875 42.84375 
Q 18.109375 37.203125 18.109375 27.296875 
Q 18.109375 17.390625 22.1875 11.75 
Q 26.265625 6.109375 33.40625 6.109375 
Q 40.53125 6.109375 44.609375 11.75 
Q 48.6875 17.390625 48.6875 27.296875 
z
M 18.109375 46.390625 
Q 20.953125 51.265625 25.265625 53.625 
Q 29.59375 56 35.59375 56 
Q 45.5625 56 51.78125 48.09375 
Q 58.015625 40.1875 58.015625 27.296875 
Q 58.015625 14.40625 51.78125 6.484375 
Q 45.5625 -1.421875 35.59375 -1.421875 
Q 29.59375 -1.421875 25.265625 0.953125 
Q 20.953125 3.328125 18.109375 8.203125 
L 18.109375 0 
L 9.078125 0 
L 9.078125 75.984375 
L 18.109375 75.984375 
z
" id="DejaVuSans-98"/>
       <path d="M 56.203125 29.59375 
L 56.203125 25.203125 
L 14.890625 25.203125 
Q 15.484375 15.921875 20.484375 11.0625 
Q 25.484375 6.203125 34.421875 6.203125 
Q 39.59375 6.203125 44.453125 7.46875 
Q 49.3125 8.734375 54.109375 11.28125 
L 54.109375 2.78125 
Q 49.265625 0.734375 44.1875 -0.34375 
Q 39.109375 -1.421875 33.890625 -1.421875 
Q 20.796875 -1.421875 13.15625 6.1875 
Q 5.515625 13.8125 5.515625 26.8125 
Q 5.515625 40.234375 12.765625 48.109375 
Q 20.015625 56 32.328125 56 
Q 43.359375 56 49.78125 48.890625 
Q 56.203125 41.796875 56.203125 29.59375 
z
M 47.21875 32.234375 
Q 47.125 39.59375 43.09375 43.984375 
Q 39.0625 48.390625 32.421875 48.390625 
Q 24.90625 48.390625 20.390625 44.140625 
Q 15.875 39.890625 15.1875 32.171875 
z
" id="DejaVuSans-101"/>
       <path d="M 41.109375 46.296875 
Q 39.59375 47.171875 37.8125 47.578125 
Q 36.03125 48 33.890625 48 
Q 26.265625 48 22.1875 43.046875 
Q 18.109375 38.09375 18.109375 28.8125 
L 18.109375 0 
L 9.078125 0 
L 9.078125 54.6875 
L 18.109375 54.6875 
L 18.109375 46.1875 
Q 20.953125 51.171875 25.484375 53.578125 
Q 30.03125 56 36.53125 56 
Q 37.453125 56 38.578125 55.875 
Q 39.703125 55.765625 41.0625 55.515625 
z
" id="DejaVuSans-114"/>
       <path id="DejaVuSans-32"/>
       <path d="M 30.609375 48.390625 
Q 23.390625 48.390625 19.1875 42.75 
Q 14.984375 37.109375 14.984375 27.296875 
Q 14.984375 17.484375 19.15625 11.84375 
Q 23.34375 6.203125 30.609375 6.203125 
Q 37.796875 6.203125 41.984375 11.859375 
Q 46.1875 17.53125 46.1875 27.296875 
Q 46.1875 37.015625 41.984375 42.703125 
Q 37.796875 48.390625 30.609375 48.390625 
z
M 30.609375 56 
Q 42.328125 56 49.015625 48.375 
Q 55.71875 40.765625 55.71875 27.296875 
Q 55.71875 13.875 49.015625 6.21875 
Q 42.328125 -1.421875 30.609375 -1.421875 
Q 18.84375 -1.421875 12.171875 6.21875 
Q 5.515625 13.875 5.515625 27.296875 
Q 5.515625 40.765625 12.171875 48.375 
Q 18.84375 56 30.609375 56 
z
" id="DejaVuSans-111"/>
       <path d="M 37.109375 75.984375 
L 37.109375 68.5 
L 28.515625 68.5 
Q 23.6875 68.5 21.796875 66.546875 
Q 19.921875 64.59375 19.921875 59.515625 
L 19.921875 54.6875 
L 34.71875 54.6875 
L 34.71875 47.703125 
L 19.921875 47.703125 
L 19.921875 0 
L 10.890625 0 
L 10.890625 47.703125 
L 2.296875 47.703125 
L 2.296875 54.6875 
L 10.890625 54.6875 
L 10.890625 58.5 
Q 10.890625 67.625 15.140625 71.796875 
Q 19.390625 75.984375 28.609375 75.984375 
z
" id="DejaVuSans-102"/>
       <path d="M 18.3125 70.21875 
L 18.3125 54.6875 
L 36.8125 54.6875 
L 36.8125 47.703125 
L 18.3125 47.703125 
L 18.3125 18.015625 
Q 18.3125 11.328125 20.140625 9.421875 
Q 21.96875 7.515625 27.59375 7.515625 
L 36.8125 7.515625 
L 36.8125 0 
L 27.59375 0 
Q 17.1875 0 13.234375 3.875 
Q 9.28125 7.765625 9.28125 18.015625 
L 9.28125 47.703125 
L 2.6875 47.703125 
L 2.6875 54.6875 
L 9.28125 54.6875 
L 9.28125 70.21875 
z
" id="DejaVuSans-116"/>
       <path d="M 34.28125 27.484375 
Q 23.390625 27.484375 19.1875 25 
Q 14.984375 22.515625 14.984375 16.5 
Q 14.984375 11.71875 18.140625 8.90625 
Q 21.296875 6.109375 26.703125 6.109375 
Q 34.1875 6.109375 38.703125 11.40625 
Q 43.21875 16.703125 43.21875 25.484375 
L 43.21875 27.484375 
z
M 52.203125 31.203125 
L 52.203125 0 
L 43.21875 0 
L 43.21875 8.296875 
Q 40.140625 3.328125 35.546875 0.953125 
Q 30.953125 -1.421875 24.3125 -1.421875 
Q 15.921875 -1.421875 10.953125 3.296875 
Q 6 8.015625 6 15.921875 
Q 6 25.140625 12.171875 29.828125 
Q 18.359375 34.515625 30.609375 34.515625 
L 43.21875 34.515625 
L 43.21875 35.40625 
Q 43.21875 41.609375 39.140625 45 
Q 35.0625 48.390625 27.6875 48.390625 
Q 23 48.390625 18.546875 47.265625 
Q 14.109375 46.140625 10.015625 43.890625 
L 10.015625 52.203125 
Q 14.9375 54.109375 19.578125 55.046875 
Q 24.21875 56 28.609375 56 
Q 40.484375 56 46.34375 49.84375 
Q 52.203125 43.703125 52.203125 31.203125 
z
" id="DejaVuSans-97"/>
       <path d="M 9.421875 54.6875 
L 18.40625 54.6875 
L 18.40625 0 
L 9.421875 0 
z
M 9.421875 75.984375 
L 18.40625 75.984375 
L 18.40625 64.59375 
L 9.421875 64.59375 
z
" id="DejaVuSans-105"/>
       <path d="M 54.890625 33.015625 
L 54.890625 0 
L 45.90625 0 
L 45.90625 32.71875 
Q 45.90625 40.484375 42.875 44.328125 
Q 39.84375 48.1875 33.796875 48.1875 
Q 26.515625 48.1875 22.3125 43.546875 
Q 18.109375 38.921875 18.109375 30.90625 
L 18.109375 0 
L 9.078125 0 
L 9.078125 54.6875 
L 18.109375 54.6875 
L 18.109375 46.1875 
Q 21.34375 51.125 25.703125 53.5625 
Q 30.078125 56 35.796875 56 
Q 45.21875 56 50.046875 50.171875 
Q 54.890625 44.34375 54.890625 33.015625 
z
" id="DejaVuSans-110"/>
       <path d="M 45.40625 27.984375 
Q 45.40625 37.75 41.375 43.109375 
Q 37.359375 48.484375 30.078125 48.484375 
Q 22.859375 48.484375 18.828125 43.109375 
Q 14.796875 37.75 14.796875 27.984375 
Q 14.796875 18.265625 18.828125 12.890625 
Q 22.859375 7.515625 30.078125 7.515625 
Q 37.359375 7.515625 41.375 12.890625 
Q 45.40625 18.265625 45.40625 27.984375 
z
M 54.390625 6.78125 
Q 54.390625 -7.171875 48.1875 -13.984375 
Q 42 -20.796875 29.203125 -20.796875 
Q 24.46875 -20.796875 20.265625 -20.09375 
Q 16.0625 -19.390625 12.109375 -17.921875 
L 12.109375 -9.1875 
Q 16.0625 -11.328125 19.921875 -12.34375 
Q 23.78125 -13.375 27.78125 -13.375 
Q 36.625 -13.375 41.015625 -8.765625 
Q 45.40625 -4.15625 45.40625 5.171875 
L 45.40625 9.625 
Q 42.625 4.78125 38.28125 2.390625 
Q 33.9375 0 27.875 0 
Q 17.828125 0 11.671875 7.65625 
Q 5.515625 15.328125 5.515625 27.984375 
Q 5.515625 40.671875 11.671875 48.328125 
Q 17.828125 56 27.875 56 
Q 33.9375 56 38.28125 53.609375 
Q 42.625 51.21875 45.40625 46.390625 
L 45.40625 54.6875 
L 54.390625 54.6875 
z
" id="DejaVuSans-103"/>
       <path d="M 9.8125 72.90625 
L 55.90625 72.90625 
L 55.90625 64.59375 
L 19.671875 64.59375 
L 19.671875 43.015625 
L 54.390625 43.015625 
L 54.390625 34.71875 
L 19.671875 34.71875 
L 19.671875 8.296875 
L 56.78125 8.296875 
L 56.78125 0 
L 9.8125 0 
z
" id="DejaVuSans-69"/>
       <path d="M 18.109375 8.203125 
L 18.109375 -20.796875 
L 9.078125 -20.796875 
L 9.078125 54.6875 
L 18.109375 54.6875 
L 18.109375 46.390625 
Q 20.953125 51.265625 25.265625 53.625 
Q 29.59375 56 35.59375 56 
Q 45.5625 56 51.78125 48.09375 
Q 58.015625 40.1875 58.015625 27.296875 
Q 58.015625 14.40625 51.78125 6.484375 
Q 45.5625 -1.421875 35.59375 -1.421875 
Q 29.59375 -1.421875 25.265625 0.953125 
Q 20.953125 3.328125 18.109375 8.203125 
z
M 48.6875 27.296875 
Q 48.6875 37.203125 44.609375 42.84375 
Q 40.53125 48.484375 33.40625 48.484375 
Q 26.265625 48.484375 22.1875 42.84375 
Q 18.109375 37.203125 18.109375 27.296875 
Q 18.109375 17.390625 22.1875 11.75 
Q 26.265625 6.109375 33.40625 6.109375 
Q 40.53125 6.109375 44.609375 11.75 
Q 48.6875 17.390625 48.6875 27.296875 
z
" id="DejaVuSans-112"/>
       <path d="M 48.78125 52.59375 
L 48.78125 44.1875 
Q 44.96875 46.296875 41.140625 47.34375 
Q 37.3125 48.390625 33.40625 48.390625 
Q 24.65625 48.390625 19.8125 42.84375 
Q 14.984375 37.3125 14.984375 27.296875 
Q 14.984375 17.28125 19.8125 11.734375 
Q 24.65625 6.203125 33.40625 6.203125 
Q 37.3125 6.203125 41.140625 7.25 
Q 44.96875 8.296875 48.78125 10.40625 
L 48.78125 2.09375 
Q 45.015625 0.34375 40.984375 -0.53125 
Q 36.96875 -1.421875 32.421875 -1.421875 
Q 20.0625 -1.421875 12.78125 6.34375 
Q 5.515625 14.109375 5.515625 27.296875 
Q 5.515625 40.671875 12.859375 48.328125 
Q 20.21875 56 33.015625 56 
Q 37.15625 56 41.109375 55.140625 
Q 45.0625 54.296875 48.78125 52.59375 
z
" id="DejaVuSans-99"/>
       <path d="M 54.890625 33.015625 
L 54.890625 0 
L 45.90625 0 
L 45.90625 32.71875 
Q 45.90625 40.484375 42.875 44.328125 
Q 39.84375 48.1875 33.796875 48.1875 
Q 26.515625 48.1875 22.3125 43.546875 
Q 18.109375 38.921875 18.109375 30.90625 
L 18.109375 0 
L 9.078125 0 
L 9.078125 75.984375 
L 18.109375 75.984375 
L 18.109375 46.1875 
Q 21.34375 51.125 25.703125 53.5625 
Q 30.078125 56 35.796875 56 
Q 45.21875 56 50.046875 50.171875 
Q 54.890625 44.34375 54.890625 33.015625 
z
" id="DejaVuSans-104"/>
       <path d="M 44.28125 53.078125 
L 44.28125 44.578125 
Q 40.484375 46.53125 36.375 47.5 
Q 32.28125 48.484375 27.875 48.484375 
Q 21.1875 48.484375 17.84375 46.4375 
Q 14.5 44.390625 14.5 40.28125 
Q 14.5 37.15625 16.890625 35.375 
Q 19.28125 33.59375 26.515625 31.984375 
L 29.59375 31.296875 
Q 39.15625 29.25 43.1875 25.515625 
Q 47.21875 21.78125 47.21875 15.09375 
Q 47.21875 7.46875 41.1875 3.015625 
Q 35.15625 -1.421875 24.609375 -1.421875 
Q 20.21875 -1.421875 15.453125 -0.5625 
Q 10.6875 0.296875 5.421875 2 
L 5.421875 11.28125 
Q 10.40625 8.6875 15.234375 7.390625 
Q 20.0625 6.109375 24.8125 6.109375 
Q 31.15625 6.109375 34.5625 8.28125 
Q 37.984375 10.453125 37.984375 14.40625 
Q 37.984375 18.0625 35.515625 20.015625 
Q 33.0625 21.96875 24.703125 23.78125 
L 21.578125 24.515625 
Q 13.234375 26.265625 9.515625 29.90625 
Q 5.8125 33.546875 5.8125 39.890625 
Q 5.8125 47.609375 11.28125 51.796875 
Q 16.75 56 26.8125 56 
Q 31.78125 56 36.171875 55.265625 
Q 40.578125 54.546875 44.28125 53.078125 
z
" id="DejaVuSans-115"/>
      </defs>
      <use xlink:href="#DejaVuSans-78"/>
      <use x="74.804688" xlink:href="#DejaVuSans-117"/>
      <use x="138.183594" xlink:href="#DejaVuSans-109"/>
      <use x="235.595703" xlink:href="#DejaVuSans-98"/>
      <use x="299.072266" xlink:href="#DejaVuSans-101"/>
      <use x="360.595703" xlink:href="#DejaVuSans-114"/>
      <use x="401.708984" xlink:href="#DejaVuSans-32"/>
      <use x="433.496094" xlink:href="#DejaVuSans-111"/>
      <use x="494.677734" xlink:href="#DejaVuSans-102"/>
      <use x="529.882812" xlink:href="#DejaVuSans-32"/>
      <use x="561.669922" xlink:href="#DejaVuSans-116"/>
      <use x="600.878906" xlink:href="#DejaVuSans-114"/>
      <use x="641.992188" xlink:href="#DejaVuSans-97"/>
      <use x="703.271484" xlink:href="#DejaVuSans-105"/>
      <use x="731.054688" xlink:href="#DejaVuSans-110"/>
      <use x="794.433594" xlink:href="#DejaVuSans-105"/>
      <use x="822.216797" xlink:href="#DejaVuSans-110"/>
      <use x="885.595703" xlink:href="#DejaVuSans-103"/>
      <use x="949.072266" xlink:href="#DejaVuSans-32"/>
      <use x="980.859375" xlink:href="#DejaVuSans-69"/>
      <use x="1044.042969" xlink:href="#DejaVuSans-112"/>
      <use x="1107.519531" xlink:href="#DejaVuSans-111"/>
      <use x="1168.701172" xlink:href="#DejaVuSans-99"/>
      <use x="1223.681641" xlink:href="#DejaVuSans-104"/>
      <use x="1287.060547" xlink:href="#DejaVuSans-115"/>
     </g>
    </g>
   </g>
   <g id="matplotlib.axis_2">
    <g id="ytick_1">
     <g id="line2d_7">
      <defs>
       <path d="M 0 0 
L -3.5 0 
" id="ma2c4529308" style="stroke:#000000;stroke-width:0.8;"/>
      </defs>
      <g>
       <use style="stroke:#000000;stroke-width:0.8;" x="172.8" xlink:href="#ma2c4529308" y="599.731637"/>
      </g>
     </g>
     <g id="text_8">
      <!-- 80000 -->
      <g transform="translate(133.9875 603.530855)scale(0.1 -0.1)">
       <defs>
        <path d="M 31.78125 34.625 
Q 24.75 34.625 20.71875 30.859375 
Q 16.703125 27.09375 16.703125 20.515625 
Q 16.703125 13.921875 20.71875 10.15625 
Q 24.75 6.390625 31.78125 6.390625 
Q 38.8125 6.390625 42.859375 10.171875 
Q 46.921875 13.96875 46.921875 20.515625 
Q 46.921875 27.09375 42.890625 30.859375 
Q 38.875 34.625 31.78125 34.625 
z
M 21.921875 38.8125 
Q 15.578125 40.375 12.03125 44.71875 
Q 8.5 49.078125 8.5 55.328125 
Q 8.5 64.0625 14.71875 69.140625 
Q 20.953125 74.21875 31.78125 74.21875 
Q 42.671875 74.21875 48.875 69.140625 
Q 55.078125 64.0625 55.078125 55.328125 
Q 55.078125 49.078125 51.53125 44.71875 
Q 48 40.375 41.703125 38.8125 
Q 48.828125 37.15625 52.796875 32.3125 
Q 56.78125 27.484375 56.78125 20.515625 
Q 56.78125 9.90625 50.3125 4.234375 
Q 43.84375 -1.421875 31.78125 -1.421875 
Q 19.734375 -1.421875 13.25 4.234375 
Q 6.78125 9.90625 6.78125 20.515625 
Q 6.78125 27.484375 10.78125 32.3125 
Q 14.796875 37.15625 21.921875 38.8125 
z
M 18.3125 54.390625 
Q 18.3125 48.734375 21.84375 45.5625 
Q 25.390625 42.390625 31.78125 42.390625 
Q 38.140625 42.390625 41.71875 45.5625 
Q 45.3125 48.734375 45.3125 54.390625 
Q 45.3125 60.0625 41.71875 63.234375 
Q 38.140625 66.40625 31.78125 66.40625 
Q 25.390625 66.40625 21.84375 63.234375 
Q 18.3125 60.0625 18.3125 54.390625 
z
" id="DejaVuSans-56"/>
       </defs>
       <use xlink:href="#DejaVuSans-56"/>
       <use x="63.623047" xlink:href="#DejaVuSans-48"/>
       <use x="127.246094" xlink:href="#DejaVuSans-48"/>
       <use x="190.869141" xlink:href="#DejaVuSans-48"/>
       <use x="254.492188" xlink:href="#DejaVuSans-48"/>
      </g>
     </g>
    </g>
    <g id="ytick_2">
     <g id="line2d_8">
      <g>
       <use style="stroke:#000000;stroke-width:0.8;" x="172.8" xlink:href="#ma2c4529308" y="524.67448"/>
      </g>
     </g>
     <g id="text_9">
      <!-- 100000 -->
      <g transform="translate(127.625 528.473699)scale(0.1 -0.1)">
       <use xlink:href="#DejaVuSans-49"/>
       <use x="63.623047" xlink:href="#DejaVuSans-48"/>
       <use x="127.246094" xlink:href="#DejaVuSans-48"/>
       <use x="190.869141" xlink:href="#DejaVuSans-48"/>
       <use x="254.492188" xlink:href="#DejaVuSans-48"/>
       <use x="318.115234" xlink:href="#DejaVuSans-48"/>
      </g>
     </g>
    </g>
    <g id="ytick_3">
     <g id="line2d_9">
      <g>
       <use style="stroke:#000000;stroke-width:0.8;" x="172.8" xlink:href="#ma2c4529308" y="449.617324"/>
      </g>
     </g>
     <g id="text_10">
      <!-- 120000 -->
      <g transform="translate(127.625 453.416543)scale(0.1 -0.1)">
       <use xlink:href="#DejaVuSans-49"/>
       <use x="63.623047" xlink:href="#DejaVuSans-50"/>
       <use x="127.246094" xlink:href="#DejaVuSans-48"/>
       <use x="190.869141" xlink:href="#DejaVuSans-48"/>
       <use x="254.492188" xlink:href="#DejaVuSans-48"/>
       <use x="318.115234" xlink:href="#DejaVuSans-48"/>
      </g>
     </g>
    </g>
    <g id="ytick_4">
     <g id="line2d_10">
      <g>
       <use style="stroke:#000000;stroke-width:0.8;" x="172.8" xlink:href="#ma2c4529308" y="374.560168"/>
      </g>
     </g>
     <g id="text_11">
      <!-- 140000 -->
      <g transform="translate(127.625 378.359387)scale(0.1 -0.1)">
       <use xlink:href="#DejaVuSans-49"/>
       <use x="63.623047" xlink:href="#DejaVuSans-52"/>
       <use x="127.246094" xlink:href="#DejaVuSans-48"/>
       <use x="190.869141" xlink:href="#DejaVuSans-48"/>
       <use x="254.492188" xlink:href="#DejaVuSans-48"/>
       <use x="318.115234" xlink:href="#DejaVuSans-48"/>
      </g>
     </g>
    </g>
    <g id="ytick_5">
     <g id="line2d_11">
      <g>
       <use style="stroke:#000000;stroke-width:0.8;" x="172.8" xlink:href="#ma2c4529308" y="299.503012"/>
      </g>
     </g>
     <g id="text_12">
      <!-- 160000 -->
      <g transform="translate(127.625 303.30223)scale(0.1 -0.1)">
       <defs>
        <path d="M 33.015625 40.375 
Q 26.375 40.375 22.484375 35.828125 
Q 18.609375 31.296875 18.609375 23.390625 
Q 18.609375 15.53125 22.484375 10.953125 
Q 26.375 6.390625 33.015625 6.390625 
Q 39.65625 6.390625 43.53125 10.953125 
Q 47.40625 15.53125 47.40625 23.390625 
Q 47.40625 31.296875 43.53125 35.828125 
Q 39.65625 40.375 33.015625 40.375 
z
M 52.59375 71.296875 
L 52.59375 62.3125 
Q 48.875 64.0625 45.09375 64.984375 
Q 41.3125 65.921875 37.59375 65.921875 
Q 27.828125 65.921875 22.671875 59.328125 
Q 17.53125 52.734375 16.796875 39.40625 
Q 19.671875 43.65625 24.015625 45.921875 
Q 28.375 48.1875 33.59375 48.1875 
Q 44.578125 48.1875 50.953125 41.515625 
Q 57.328125 34.859375 57.328125 23.390625 
Q 57.328125 12.15625 50.6875 5.359375 
Q 44.046875 -1.421875 33.015625 -1.421875 
Q 20.359375 -1.421875 13.671875 8.265625 
Q 6.984375 17.96875 6.984375 36.375 
Q 6.984375 53.65625 15.1875 63.9375 
Q 23.390625 74.21875 37.203125 74.21875 
Q 40.921875 74.21875 44.703125 73.484375 
Q 48.484375 72.75 52.59375 71.296875 
z
" id="DejaVuSans-54"/>
       </defs>
       <use xlink:href="#DejaVuSans-49"/>
       <use x="63.623047" xlink:href="#DejaVuSans-54"/>
       <use x="127.246094" xlink:href="#DejaVuSans-48"/>
       <use x="190.869141" xlink:href="#DejaVuSans-48"/>
       <use x="254.492188" xlink:href="#DejaVuSans-48"/>
       <use x="318.115234" xlink:href="#DejaVuSans-48"/>
      </g>
     </g>
    </g>
    <g id="ytick_6">
     <g id="line2d_12">
      <g>
       <use style="stroke:#000000;stroke-width:0.8;" x="172.8" xlink:href="#ma2c4529308" y="224.445855"/>
      </g>
     </g>
     <g id="text_13">
      <!-- 180000 -->
      <g transform="translate(127.625 228.245074)scale(0.1 -0.1)">
       <use xlink:href="#DejaVuSans-49"/>
       <use x="63.623047" xlink:href="#DejaVuSans-56"/>
       <use x="127.246094" xlink:href="#DejaVuSans-48"/>
       <use x="190.869141" xlink:href="#DejaVuSans-48"/>
       <use x="254.492188" xlink:href="#DejaVuSans-48"/>
       <use x="318.115234" xlink:href="#DejaVuSans-48"/>
      </g>
     </g>
    </g>
    <g id="ytick_7">
     <g id="line2d_13">
      <g>
       <use style="stroke:#000000;stroke-width:0.8;" x="172.8" xlink:href="#ma2c4529308" y="149.388699"/>
      </g>
     </g>
     <g id="text_14">
      <!-- 200000 -->
      <g transform="translate(127.625 153.187918)scale(0.1 -0.1)">
       <use xlink:href="#DejaVuSans-50"/>
       <use x="63.623047" xlink:href="#DejaVuSans-48"/>
       <use x="127.246094" xlink:href="#DejaVuSans-48"/>
       <use x="190.869141" xlink:href="#DejaVuSans-48"/>
       <use x="254.492188" xlink:href="#DejaVuSans-48"/>
       <use x="318.115234" xlink:href="#DejaVuSans-48"/>
      </g>
     </g>
    </g>
    <g id="text_15">
     <!-- Reconstructions loss &amp; KL loss -->
     <g transform="translate(120.2975 470.4746)rotate(-90)scale(0.16 -0.16)">
      <defs>
       <path d="M 44.390625 34.1875 
Q 47.5625 33.109375 50.5625 29.59375 
Q 53.5625 26.078125 56.59375 19.921875 
L 66.609375 0 
L 56 0 
L 46.6875 18.703125 
Q 43.0625 26.03125 39.671875 28.421875 
Q 36.28125 30.8125 30.421875 30.8125 
L 19.671875 30.8125 
L 19.671875 0 
L 9.8125 0 
L 9.8125 72.90625 
L 32.078125 72.90625 
Q 44.578125 72.90625 50.734375 67.671875 
Q 56.890625 62.453125 56.890625 51.90625 
Q 56.890625 45.015625 53.6875 40.46875 
Q 50.484375 35.9375 44.390625 34.1875 
z
M 19.671875 64.796875 
L 19.671875 38.921875 
L 32.078125 38.921875 
Q 39.203125 38.921875 42.84375 42.21875 
Q 46.484375 45.515625 46.484375 51.90625 
Q 46.484375 58.296875 42.84375 61.546875 
Q 39.203125 64.796875 32.078125 64.796875 
z
" id="DejaVuSans-82"/>
       <path d="M 9.421875 75.984375 
L 18.40625 75.984375 
L 18.40625 0 
L 9.421875 0 
z
" id="DejaVuSans-108"/>
       <path d="M 24.3125 39.203125 
Q 19.875 35.25 17.796875 31.3125 
Q 15.71875 27.390625 15.71875 23.09375 
Q 15.71875 15.96875 20.890625 11.234375 
Q 26.078125 6.5 33.890625 6.5 
Q 38.53125 6.5 42.578125 8.03125 
Q 46.625 9.578125 50.203125 12.703125 
z
M 31.203125 44.671875 
L 56 19.28125 
Q 58.890625 23.640625 60.5 28.59375 
Q 62.109375 33.546875 62.40625 39.109375 
L 71.484375 39.109375 
Q 70.90625 32.671875 68.359375 26.359375 
Q 65.828125 20.0625 61.28125 13.921875 
L 74.90625 0 
L 62.59375 0 
L 55.609375 7.171875 
Q 50.53125 2.828125 44.96875 0.703125 
Q 39.40625 -1.421875 33.015625 -1.421875 
Q 21.234375 -1.421875 13.765625 5.296875 
Q 6.296875 12.015625 6.296875 22.515625 
Q 6.296875 28.765625 9.5625 34.25 
Q 12.84375 39.75 19.390625 44.578125 
Q 17.046875 47.65625 15.8125 50.703125 
Q 14.59375 53.765625 14.59375 56.6875 
Q 14.59375 64.59375 20.015625 69.40625 
Q 25.4375 74.21875 34.421875 74.21875 
Q 38.484375 74.21875 42.5 73.34375 
Q 46.53125 72.46875 50.6875 70.703125 
L 50.6875 61.8125 
Q 46.4375 64.109375 42.578125 65.296875 
Q 38.71875 66.5 35.40625 66.5 
Q 30.28125 66.5 27.078125 63.78125 
Q 23.875 61.078125 23.875 56.78125 
Q 23.875 54.296875 25.3125 51.78125 
Q 26.765625 49.265625 31.203125 44.671875 
z
" id="DejaVuSans-38"/>
       <path d="M 9.8125 72.90625 
L 19.671875 72.90625 
L 19.671875 42.09375 
L 52.390625 72.90625 
L 65.09375 72.90625 
L 28.90625 38.921875 
L 67.671875 0 
L 54.6875 0 
L 19.671875 35.109375 
L 19.671875 0 
L 9.8125 0 
z
" id="DejaVuSans-75"/>
       <path d="M 9.8125 72.90625 
L 19.671875 72.90625 
L 19.671875 8.296875 
L 55.171875 8.296875 
L 55.171875 0 
L 9.8125 0 
z
" id="DejaVuSans-76"/>
      </defs>
      <use xlink:href="#DejaVuSans-82"/>
      <use x="64.982422" xlink:href="#DejaVuSans-101"/>
      <use x="126.505859" xlink:href="#DejaVuSans-99"/>
      <use x="181.486328" xlink:href="#DejaVuSans-111"/>
      <use x="242.667969" xlink:href="#DejaVuSans-110"/>
      <use x="306.046875" xlink:href="#DejaVuSans-115"/>
      <use x="358.146484" xlink:href="#DejaVuSans-116"/>
      <use x="397.355469" xlink:href="#DejaVuSans-114"/>
      <use x="438.46875" xlink:href="#DejaVuSans-117"/>
      <use x="501.847656" xlink:href="#DejaVuSans-99"/>
      <use x="556.828125" xlink:href="#DejaVuSans-116"/>
      <use x="596.037109" xlink:href="#DejaVuSans-105"/>
      <use x="623.820312" xlink:href="#DejaVuSans-111"/>
      <use x="685.001953" xlink:href="#DejaVuSans-110"/>
      <use x="748.380859" xlink:href="#DejaVuSans-115"/>
      <use x="800.480469" xlink:href="#DejaVuSans-32"/>
      <use x="832.267578" xlink:href="#DejaVuSans-108"/>
      <use x="860.050781" xlink:href="#DejaVuSans-111"/>
      <use x="921.232422" xlink:href="#DejaVuSans-115"/>
      <use x="973.332031" xlink:href="#DejaVuSans-115"/>
      <use x="1025.431641" xlink:href="#DejaVuSans-32"/>
      <use x="1057.21875" xlink:href="#DejaVuSans-38"/>
      <use x="1135.197266" xlink:href="#DejaVuSans-32"/>
      <use x="1166.984375" xlink:href="#DejaVuSans-75"/>
      <use x="1232.560547" xlink:href="#DejaVuSans-76"/>
      <use x="1288.273438" xlink:href="#DejaVuSans-32"/>
      <use x="1320.060547" xlink:href="#DejaVuSans-108"/>
      <use x="1347.84375" xlink:href="#DejaVuSans-111"/>
      <use x="1409.025391" xlink:href="#DejaVuSans-115"/>
      <use x="1461.125" xlink:href="#DejaVuSans-115"/>
     </g>
    </g>
   </g>
   <g id="line2d_14">
    <path clip-path="url(#pb00cf372a6)" d="M 221.498182 107.2476 
L 223.301818 185.977447 
L 225.105455 195.065706 
L 226.909091 216.5504 
L 228.712727 244.337361 
L 230.516364 253.185961 
L 232.32 264.61535 
L 234.123636 275.298098 
L 235.927273 282.766593 
L 237.730909 288.39935 
L 239.534545 291.123955 
L 241.338182 296.141168 
L 243.141818 296.233544 
L 244.945455 299.798803 
L 246.749091 301.19389 
L 248.552727 303.538972 
L 250.356364 306.311872 
L 252.16 304.151466 
L 253.963636 307.490739 
L 255.767273 311.72415 
L 257.570909 313.985349 
L 259.374545 316.90797 
L 261.178182 321.919497 
L 262.981818 326.071028 
L 264.785455 322.157343 
L 266.589091 330.686071 
L 268.392727 329.348202 
L 270.196364 341.35484 
L 272 342.681121 
L 273.803636 348.270953 
L 275.607273 352.203815 
L 277.410909 356.640201 
L 279.214545 359.885466 
L 281.018182 363.82139 
L 282.821818 364.395131 
L 284.625455 368.838815 
L 286.429091 386.455759 
L 288.232727 372.5165 
L 290.036364 390.399809 
L 291.84 377.619036 
L 293.643636 403.885047 
L 295.447273 396.274262 
L 297.250909 410.629916 
L 299.054545 405.518293 
L 300.858182 408.850172 
L 302.661818 422.192893 
L 304.465455 417.108585 
L 306.269091 422.325802 
L 308.072727 429.589801 
L 309.876364 423.693181 
L 311.68 429.951169 
L 313.483636 429.598964 
L 315.287273 433.344107 
L 317.090909 436.030329 
L 318.894545 443.249549 
L 320.698182 440.652385 
L 322.501818 430.855742 
L 324.305455 447.369204 
L 326.109091 446.081561 
L 327.912727 450.475421 
L 329.716364 446.898813 
L 331.52 448.222116 
L 333.323636 456.75951 
L 335.127273 450.80991 
L 336.930909 445.352788 
L 338.734545 449.429084 
L 340.538182 451.606314 
L 342.341818 450.057257 
L 344.145455 450.077178 
L 345.949091 465.969161 
L 347.752727 456.383228 
L 349.556364 466.233627 
L 351.36 468.921485 
L 353.163636 462.089042 
L 354.967273 461.634648 
L 356.770909 468.585452 
L 358.574545 468.394223 
L 360.378182 476.535726 
L 362.181818 463.083229 
L 363.985455 459.536927 
L 365.789091 462.58896 
L 367.592727 474.366843 
L 369.396364 482.437898 
L 371.2 472.397862 
L 373.003636 483.195598 
L 374.807273 481.741465 
L 376.610909 484.16526 
L 378.414545 484.911521 
L 380.218182 482.344474 
L 382.021818 483.3105 
L 383.825455 486.078769 
L 385.629091 484.495101 
L 387.432727 486.665728 
L 389.236364 492.06443 
L 391.04 476.939879 
L 392.843636 492.409434 
L 394.647273 482.996497 
L 396.450909 492.66212 
L 398.254545 486.609404 
L 400.058182 491.865836 
L 401.861818 494.024279 
L 403.665455 490.745112 
L 405.469091 479.970216 
L 407.272727 496.569367 
L 409.076364 495.358804 
L 410.88 500.858993 
L 412.683636 494.152123 
L 414.487273 501.01128 
L 416.290909 493.305316 
L 418.094545 501.776656 
L 419.898182 502.011474 
L 421.701818 491.808096 
L 423.505455 502.767217 
L 425.309091 487.730711 
L 427.112727 502.095278 
L 428.916364 505.096409 
L 430.72 490.450725 
L 432.523636 500.315424 
L 436.130909 503.811327 
L 437.934545 501.976313 
L 439.738182 510.388587 
L 441.541818 509.607492 
L 443.345455 499.814218 
L 445.149091 503.341015 
L 446.952727 497.427208 
L 448.756364 502.21022 
L 450.56 508.831325 
L 452.363636 512.73692 
L 454.167273 509.754934 
L 455.970909 504.75074 
L 457.774545 512.491294 
L 459.578182 515.816144 
L 461.381818 515.831766 
L 463.185455 511.502879 
L 464.989091 508.589252 
L 466.792727 506.266878 
L 468.596364 514.131799 
L 470.4 515.099217 
L 472.203636 517.931 
L 474.007273 514.250297 
L 475.810909 494.121163 
L 477.614545 511.499952 
L 479.418182 513.421279 
L 481.221818 522.737235 
L 483.025455 525.175323 
L 484.829091 516.579215 
L 486.632727 511.068464 
L 488.436364 518.294289 
L 490.24 522.929839 
L 493.847273 516.922688 
L 495.650909 513.202947 
L 497.454545 500.024365 
L 499.258182 513.476943 
L 501.061818 516.860749 
L 502.865455 521.252767 
L 504.669091 518.872053 
L 506.472727 488.175579 
L 508.276364 521.128893 
L 510.08 504.316823 
L 511.883636 526.827024 
L 513.687273 530.17742 
L 515.490909 527.428719 
L 517.294545 523.447008 
L 519.098182 518.472258 
L 520.901818 518.569986 
L 522.705455 518.137303 
L 524.509091 516.742513 
L 526.312727 531.914789 
L 528.116364 522.454687 
L 529.92 530.346909 
L 531.723636 511.759821 
L 533.527273 532.883828 
L 535.330909 509.675542 
L 537.134545 528.070229 
L 538.938182 534.057354 
L 540.741818 531.213335 
L 542.545455 529.331015 
L 544.349091 532.745059 
L 546.152727 538.004733 
L 547.956364 517.092337 
L 549.76 532.870507 
L 551.563636 528.131791 
L 553.367273 528.090097 
L 555.170909 531.953057 
L 556.974545 497.031784 
L 558.778182 536.971548 
L 560.581818 527.568371 
L 562.385455 530.065963 
L 564.189091 540.436065 
L 565.992727 538.017856 
L 567.796364 525.674359 
L 569.6 527.788563 
L 571.403636 530.986717 
L 573.207273 537.376724 
L 575.010909 539.381694 
L 576.814545 535.758596 
L 578.618182 537.416933 
L 580.421818 539.406367 
L 582.225455 542.739363 
L 584.029091 544.836787 
L 585.832727 517.06572 
L 587.636364 543.922824 
L 589.44 542.236507 
L 591.243636 536.421727 
L 593.047273 540.30564 
L 594.850909 536.686114 
L 596.654545 537.988809 
L 598.458182 534.658116 
L 600.261818 536.087892 
L 602.065455 542.339394 
L 603.869091 523.326671 
L 605.672727 539.575376 
L 607.476364 544.980658 
L 609.28 540.356205 
L 611.083636 543.88102 
L 612.887273 547.663503 
L 616.494545 527.027707 
L 618.298182 541.962485 
L 620.101818 544.829009 
L 621.905455 544.434121 
L 623.709091 537.399154 
L 625.512727 548.227086 
L 627.316364 541.185926 
L 629.12 540.389652 
L 630.923636 543.829733 
L 632.727273 538.015005 
L 634.530909 547.724865 
L 636.334545 542.650069 
L 638.138182 541.858746 
L 639.941818 548.309356 
L 641.745455 548.765051 
L 643.549091 542.623517 
L 645.352727 546.94952 
L 647.156364 547.751582 
L 648.96 545.122706 
L 650.763636 539.887091 
L 652.567273 530.063629 
L 654.370909 542.266201 
L 656.174545 550.25659 
L 657.978182 533.615559 
L 659.781818 553.806404 
L 661.585455 551.426317 
L 663.389091 551.032606 
L 665.192727 540.756142 
L 666.996364 542.346092 
L 668.8 537.292576 
L 670.603636 552.560838 
L 672.407273 543.592643 
L 674.210909 553.570997 
L 676.014545 540.296438 
L 677.818182 544.06946 
L 679.621818 544.537362 
L 681.425455 544.528195 
L 683.229091 551.399459 
L 685.032727 540.842022 
L 686.836364 546.767316 
L 688.64 551.463522 
L 690.443636 549.227664 
L 692.247273 550.608725 
L 694.050909 557.845623 
L 695.854545 551.670125 
L 697.658182 549.451317 
L 699.461818 552.083278 
L 701.265455 553.950024 
L 703.069091 551.80476 
L 704.872727 555.414566 
L 706.676364 556.184788 
L 708.48 545.945946 
L 710.283636 557.627567 
L 712.087273 557.828962 
L 713.890909 548.437484 
L 715.694545 558.197253 
L 717.498182 561.41763 
L 719.301818 557.779272 
L 721.105455 549.550215 
L 722.909091 558.646916 
L 724.712727 541.092948 
L 728.32 552.279997 
L 730.123636 560.019555 
L 731.927273 544.803167 
L 733.730909 553.262435 
L 735.534545 544.291759 
L 737.338182 546.857802 
L 739.141818 556.439722 
L 740.945455 532.812977 
L 742.749091 561.647351 
L 744.552727 559.293203 
L 746.356364 545.537359 
L 748.16 549.70058 
L 749.963636 561.257766 
L 751.767273 562.853666 
L 753.570909 562.72997 
L 755.374545 564.290067 
L 757.178182 558.480789 
L 758.981818 565.855416 
L 760.785455 557.316257 
L 762.589091 540.929014 
L 764.392727 562.623891 
L 766.196364 563.196861 
L 768 537.475869 
L 769.803636 545.955006 
L 771.607273 550.911011 
L 773.410909 563.231651 
L 775.214545 542.72075 
L 777.018182 564.526957 
L 778.821818 549.294177 
L 780.625455 565.468396 
L 782.429091 565.125346 
L 784.232727 566.834578 
L 786.036364 565.307006 
L 787.84 561.618094 
L 789.643636 562.9182 
L 791.447273 546.028322 
L 793.250909 561.914251 
L 795.054545 543.800313 
L 796.858182 557.189961 
L 798.661818 560.582157 
L 800.465455 565.74673 
L 802.269091 562.58377 
L 804.072727 560.892366 
L 805.876364 563.074617 
L 807.68 558.615418 
L 809.483636 564.319941 
L 811.287273 562.506307 
L 813.090909 570.659776 
L 814.894545 562.546103 
L 816.698182 560.219964 
L 818.501818 557.619857 
L 820.305455 557.904852 
L 822.109091 564.079989 
L 823.912727 567.01738 
L 825.716364 565.933295 
L 827.52 566.699609 
L 829.323636 558.616127 
L 831.127273 564.315253 
L 832.930909 559.19356 
L 834.734545 549.693979 
L 836.538182 565.969478 
L 838.341818 566.878525 
L 840.145455 560.331594 
L 841.949091 570.525917 
L 845.556364 566.985538 
L 847.36 569.962603 
L 849.163636 567.830985 
L 850.967273 562.751897 
L 852.770909 556.559279 
L 854.574545 558.138675 
L 856.378182 540.092042 
L 858.181818 572.124923 
L 859.985455 564.766475 
L 861.789091 572.929917 
L 863.592727 572.562617 
L 865.396364 548.268822 
L 867.2 575.174648 
L 869.003636 563.204977 
L 870.807273 571.374337 
L 872.610909 572.868914 
L 874.414545 567.612436 
L 876.218182 561.444339 
L 878.021818 571.639887 
L 879.825455 568.926125 
L 881.629091 570.951776 
L 883.432727 572.344724 
L 885.236364 565.72976 
L 887.04 565.347403 
L 888.843636 573.823052 
L 890.647273 565.905035 
L 892.450909 545.000204 
L 894.254545 568.739412 
L 896.058182 571.460764 
L 897.861818 556.442076 
L 899.665455 571.479959 
L 901.469091 562.626668 
L 903.272727 572.633825 
L 905.076364 567.768968 
L 906.88 571.84905 
L 908.683636 569.846254 
L 910.487273 529.33535 
L 912.290909 559.008436 
L 914.094545 573.94767 
L 915.898182 566.460674 
L 917.701818 570.018418 
L 919.505455 577.062065 
L 921.309091 560.783681 
L 923.112727 563.450406 
L 924.916364 566.547463 
L 926.72 564.312734 
L 928.523636 568.864429 
L 930.327273 564.483309 
L 932.130909 573.289232 
L 933.934545 569.960621 
L 935.738182 573.255616 
L 937.541818 572.678716 
L 939.345455 573.605754 
L 941.149091 569.308267 
L 942.952727 568.470351 
L 944.756364 576.267397 
L 946.56 578.87166 
L 948.363636 561.75078 
L 950.167273 578.082832 
L 951.970909 543.187887 
L 953.774545 565.574479 
L 955.578182 576.827857 
L 957.381818 572.361113 
L 959.185455 548.891835 
L 960.989091 576.186706 
L 962.792727 562.834058 
L 964.596364 573.078713 
L 966.4 567.941871 
L 968.203636 572.59695 
L 970.007273 570.561131 
L 971.810909 571.749289 
L 973.614545 579.598486 
L 975.418182 582.404093 
L 977.221818 575.120885 
L 979.025455 539.507266 
L 980.829091 581.275324 
L 982.632727 571.942932 
L 984.436364 575.542901 
L 986.24 567.390997 
L 988.043636 576.449148 
L 989.847273 573.608026 
L 991.650909 581.539937 
L 993.454545 577.51921 
L 995.258182 583.479121 
L 997.061818 579.650629 
L 1000.669091 585.341725 
L 1002.472727 574.356066 
L 1004.276364 580.677721 
L 1006.08 576.240151 
L 1007.883636 578.278249 
L 1009.687273 577.424678 
L 1011.490909 580.48463 
L 1013.294545 576.719348 
L 1015.098182 583.548428 
L 1016.901818 570.570182 
L 1020.509091 581.08395 
L 1022.312727 581.033832 
L 1024.116364 565.582952 
L 1025.92 579.158332 
L 1027.723636 573.156934 
L 1029.527273 580.901668 
L 1031.330909 560.158044 
L 1033.134545 577.312563 
L 1034.938182 581.216149 
L 1036.741818 584.622514 
L 1038.545455 548.109542 
L 1040.349091 567.388616 
L 1042.152727 578.396106 
L 1043.956364 580.501304 
L 1045.76 579.342307 
L 1047.563636 574.56571 
L 1049.367273 584.855598 
L 1051.170909 574.394484 
L 1052.974545 576.598801 
L 1054.778182 579.5942 
L 1056.581818 579.161115 
L 1058.385455 576.009866 
L 1060.189091 566.236375 
L 1061.992727 579.954483 
L 1063.796364 567.295348 
L 1065.6 582.332086 
L 1067.403636 582.551094 
L 1069.207273 573.565489 
L 1071.010909 582.025459 
L 1072.814545 583.246341 
L 1074.618182 581.478099 
L 1076.421818 585.374252 
L 1080.029091 575.568686 
L 1081.832727 584.812447 
L 1083.636364 577.289663 
L 1085.44 580.729109 
L 1087.243636 581.770477 
L 1089.047273 585.933152 
L 1090.850909 570.49132 
L 1092.654545 578.091469 
L 1094.458182 569.995448 
L 1096.261818 580.875865 
L 1098.065455 584.299809 
L 1099.869091 575.122528 
L 1101.672727 575.683486 
L 1103.476364 583.948993 
L 1105.28 583.572039 
L 1107.083636 587.208702 
L 1108.887273 580.509043 
L 1110.690909 588.720844 
L 1112.494545 569.458969 
L 1114.298182 584.083663 
L 1116.101818 580.329962 
L 1117.905455 573.29927 
L 1119.709091 583.244165 
L 1121.512727 582.050864 
L 1123.316364 577.005628 
L 1125.12 587.523823 
L 1126.923636 574.297491 
L 1128.727273 587.738715 
L 1130.530909 586.821307 
L 1132.334545 588.116093 
L 1134.138182 572.573005 
L 1135.941818 582.215763 
L 1137.745455 586.139327 
L 1139.549091 577.393986 
L 1141.352727 588.743332 
L 1144.96 587.773896 
L 1146.763636 589.708506 
L 1148.567273 583.672857 
L 1150.370909 573.726627 
L 1152.174545 578.049591 
L 1153.978182 585.768726 
L 1155.781818 578.4034 
L 1157.585455 584.564935 
L 1159.389091 585.963481 
L 1161.192727 583.930781 
L 1162.996364 588.023844 
L 1164.8 574.853513 
L 1166.603636 577.559029 
L 1168.407273 589.38112 
L 1170.210909 574.336356 
L 1172.014545 591.41958 
L 1173.818182 586.254835 
L 1175.621818 579.595917 
L 1177.425455 556.900835 
L 1179.229091 585.668763 
L 1181.032727 567.891963 
L 1182.836364 589.298632 
L 1184.64 588.738579 
L 1186.443636 585.295204 
L 1188.247273 578.605823 
L 1190.050909 578.40118 
L 1191.854545 577.794517 
L 1193.658182 584.357403 
L 1195.461818 591.5916 
L 1195.461818 591.5916 
" style="fill:none;stroke:#1f77b4;stroke-linecap:square;stroke-width:1.5;"/>
   </g>
   <g id="patch_3">
    <path d="M 172.8 615.8088 
L 172.8 83.0304 
" style="fill:none;stroke:#000000;stroke-linecap:square;stroke-linejoin:miter;stroke-width:0.8;"/>
   </g>
   <g id="patch_4">
    <path d="M 1244.16 615.8088 
L 1244.16 83.0304 
" style="fill:none;stroke:#000000;stroke-linecap:square;stroke-linejoin:miter;stroke-width:0.8;"/>
   </g>
   <g id="patch_5">
    <path d="M 172.8 615.8088 
L 1244.16 615.8088 
" style="fill:none;stroke:#000000;stroke-linecap:square;stroke-linejoin:miter;stroke-width:0.8;"/>
   </g>
   <g id="patch_6">
    <path d="M 172.8 83.0304 
L 1244.16 83.0304 
" style="fill:none;stroke:#000000;stroke-linecap:square;stroke-linejoin:miter;stroke-width:0.8;"/>
   </g>
   <g id="text_16">
    <!-- Validation loss -->
    <g transform="translate(636.605 77.0304)scale(0.2 -0.2)">
     <defs>
      <path d="M 28.609375 0 
L 0.78125 72.90625 
L 11.078125 72.90625 
L 34.1875 11.53125 
L 57.328125 72.90625 
L 67.578125 72.90625 
L 39.796875 0 
z
" id="DejaVuSans-86"/>
      <path d="M 45.40625 46.390625 
L 45.40625 75.984375 
L 54.390625 75.984375 
L 54.390625 0 
L 45.40625 0 
L 45.40625 8.203125 
Q 42.578125 3.328125 38.25 0.953125 
Q 33.9375 -1.421875 27.875 -1.421875 
Q 17.96875 -1.421875 11.734375 6.484375 
Q 5.515625 14.40625 5.515625 27.296875 
Q 5.515625 40.1875 11.734375 48.09375 
Q 17.96875 56 27.875 56 
Q 33.9375 56 38.25 53.625 
Q 42.578125 51.265625 45.40625 46.390625 
z
M 14.796875 27.296875 
Q 14.796875 17.390625 18.875 11.75 
Q 22.953125 6.109375 30.078125 6.109375 
Q 37.203125 6.109375 41.296875 11.75 
Q 45.40625 17.390625 45.40625 27.296875 
Q 45.40625 37.203125 41.296875 42.84375 
Q 37.203125 48.484375 30.078125 48.484375 
Q 22.953125 48.484375 18.875 42.84375 
Q 14.796875 37.203125 14.796875 27.296875 
z
" id="DejaVuSans-100"/>
     </defs>
     <use xlink:href="#DejaVuSans-86"/>
     <use x="60.658203" xlink:href="#DejaVuSans-97"/>
     <use x="121.9375" xlink:href="#DejaVuSans-108"/>
     <use x="149.720703" xlink:href="#DejaVuSans-105"/>
     <use x="177.503906" xlink:href="#DejaVuSans-100"/>
     <use x="240.980469" xlink:href="#DejaVuSans-97"/>
     <use x="302.259766" xlink:href="#DejaVuSans-116"/>
     <use x="341.46875" xlink:href="#DejaVuSans-105"/>
     <use x="369.251953" xlink:href="#DejaVuSans-111"/>
     <use x="430.433594" xlink:href="#DejaVuSans-110"/>
     <use x="493.8125" xlink:href="#DejaVuSans-32"/>
     <use x="525.599609" xlink:href="#DejaVuSans-108"/>
     <use x="553.382812" xlink:href="#DejaVuSans-111"/>
     <use x="614.564453" xlink:href="#DejaVuSans-115"/>
     <use x="666.664062" xlink:href="#DejaVuSans-115"/>
    </g>
   </g>
  </g>
 </g>
 <defs>
  <clipPath id="pb00cf372a6">
   <rect height="532.7784" width="1071.36" x="172.8" y="83.0304"/>
  </clipPath>
 </defs>
</svg>
